<svg xmlns="http://www.w3.org/2000/svg" xmlns:xlink="http://www.w3.org/1999/xlink" viewBox="0 0 419.52 296.95"><defs><style>.cls-1,.cls-6{fill:#007e2d;}.cls-1,.cls-21,.cls-4,.cls-9{opacity:0.1;}.cls-1,.cls-17,.cls-21,.cls-4{isolation:isolate;}.cls-2{fill:url(#linear-gradient);}.cls-21,.cls-3{fill:#fff;}.cls-5{fill:#cf6f80;}.cls-7{fill:#3f3d56;}.cls-8{fill:#512e4e;}.cls-10{fill:#535461;}.cls-11{fill:#9d9cb5;}.cls-12{fill:none;stroke:#535461;stroke-miterlimit:10;stroke-width:2px;}.cls-13{fill:url(#linear-gradient-2);}.cls-14{fill:#1d2366;}.cls-15{fill:#ffb0b1;}.cls-16{fill:#c7daf5;}.cls-17{opacity:0.03;}.cls-18{fill:#dce7ff;}.cls-19{fill:#591d4b;}.cls-20{fill:#be8b87;}.cls-22{fill:#efc8c4;}.cls-23{fill:#727a9c;}</style><linearGradient id="linear-gradient" x1="182.73" y1="-56.48" x2="182.73" y2="176.96" gradientTransform="matrix(1, 0, 0, -1, -47.24, 237.48)" gradientUnits="userSpaceOnUse"><stop offset="0" stop-color="gray" stop-opacity="0.25"/><stop offset="0.54" stop-color="gray" stop-opacity="0.12"/><stop offset="1" stop-color="gray" stop-opacity="0.1"/></linearGradient><linearGradient id="linear-gradient-2" x1="386.5" y1="-53.54" x2="386.5" y2="159.68" xlink:href="#linear-gradient"/></defs><g id="Layer_2" data-name="Layer 2"><g id="b098510b-f452-4b85-993b-a1bbfe267c61"><ellipse class="cls-1" cx="139.68" cy="290.85" rx="36.97" ry="5.94"/><ellipse class="cls-1" cx="340.62" cy="291.02" rx="46.13" ry="5.94"/><path class="cls-1" d="M5.55,128.31H44.06v52.48H8.37c-.09.53-.18,1.08-.28,1.62h36v42.32l-.19-.06c-1-.4-2-.83-3-1.28l-.65-.3c-1-.47-2-1-3-1.51L36.1,221A63.25,63.25,0,0,1,21,209.18l-.38-.38c-.62-.67-1.22-1.34-1.81-2l-.64-.76c-.69-.85-1.36-1.72-2-2.6-.09-.13-.18-.26-.28-.38a56.64,56.64,0,0,1-6.53-11.8l-.15-.38c-.52-1.34-1-2.69-1.38-4.06-.17-.57-.34-1.13-.49-1.73,0-.17-.09-.34-.14-.51C5,176.13,4.76,167.4,4.76,158.72v-3c0-3.51,0-7.05.11-10.57,0-.92,0-1.83,0-2.75.06-2.33.13-4.65.23-7,0-.65,0-1.3.09-1.94a10.51,10.51,0,0,1,.06-1.12C5.39,131,5.46,129.64,5.55,128.31Z"/><path class="cls-1" d="M44.06,69.88H22.94A159.15,159.15,0,0,1,34.17,54.41c3.14-3.85,6.45-7.61,9.89-11.23Z"/><path class="cls-1" d="M44.06,71.5v55.18H5.68c0-.16,0-.32,0-.48,0-.44.07-.87.11-1.3s.09-1,.14-1.52.1-1.11.16-1.66.11-1.1.17-1.65.12-1.1.19-1.65.13-1.1.2-1.65l.18-1.36c.09-.64.18-1.28.28-1.92a1.35,1.35,0,0,1,0-.29A130.69,130.69,0,0,1,10,99.35a103.55,103.55,0,0,1,4.76-14,104.8,104.8,0,0,1,7.17-13.79Z"/><path class="cls-1" d="M53.25,128.3v52.49h82.24V128.3Zm0,54.11v45.07l1.4.27c.63.12,1.25.23,1.9.32l.37.05c.26,0,.51.08.76.11.64.09,1.27.16,1.9.22l.91.08.73.06h0l1.18.06c.25,0,.49,0,.74,0h2.7c.33,0,.66,0,1,0h0a5.16,5.16,0,0,0,.68,0h.19a3.44,3.44,0,0,0,.56,0h.13l1.28-.09,1.26-.14.86-.1A74.3,74.3,0,0,0,82.22,226c7.67-2.13,15.17-5.13,22.84-7.32,9.91-2.83,20.87-4.22,30.44-.76V182.41ZM135.49,69.88V0a105.46,105.46,0,0,0-26.72,3.13C87.94,8.37,69.26,19.72,53.25,34.21V69.87h4.13v1.62H53.25v55.19h82.24V71.5H74.32V69.88ZM241.11,46.27a34,34,0,0,1-14.9-4.33c-8.86-4.82-15.93-12.26-23.84-18.53A109.47,109.47,0,0,0,144.67.48v69.4h117.4l.29-.31Zm10.7-1.89,11.34,12.44V41.12a44.86,44.86,0,0,0-11.33,3.24Zm11.34,194.29V182.41H239c-.07-.24-.13-.49-.21-.73.07.24.13.49.2.73H144.69v40.68c.89.67,1.77,1.37,2.65,2.07h0c.95.76,1.88,1.56,2.82,2.35l.94.78c.45.38.91.76,1.37,1.12l2.75,2.18c.46.38.93.72,1.4,1.08A190.89,190.89,0,0,0,180,248c1.83,1,3.67,2,5.54,3,1.24.64,2.48,1.27,3.74,1.88q2.82,1.38,5.69,2.65h0a208.7,208.7,0,0,0,55.39,16.14c4.24.63,8.51,1.12,12.78,1.48V238.66h0ZM144.69,71.5v55.18H263.16V71.5Zm0,56.8v52.49H263.16V128.3ZM272.36,41.05V58.57l14.47-15.88q-7.18-1.17-14.47-1.66Zm0,87.27v52.47H387.59V128.3ZM387.17,242.83l.41-60.42H272.36v91.26a209.42,209.42,0,0,0,22.27-.26h.13c3.54-.23,7.06-.55,10.57-1h.08a194.55,194.55,0,0,0,54.33-14.49m50.07-121c-.43-1-.88-2-1.34-3-.86-1.9-1.76-3.74-2.7-5.58h-9v52.46h22.74c0-14.86-3.78-30-9.69-43.86Zm-13,45.47v52a74.22,74.22,0,0,0,15.71-21.19,72.85,72.85,0,0,0,7-30.79Zm0-69.39v13.66h8.15A146.25,146.25,0,0,0,396.79,113ZM318.63,51.34l-1.8-.68a164.54,164.54,0,0,0-19.47-5.85L275.22,69.12h0l-.43.45.29.31H353.9a168.42,168.42,0,0,0-35.26-18.56Zm37.58,20.17H274L272.36,73v53.69H387.61v-26A163.67,163.67,0,0,0,356.22,71.5Z"/><path class="cls-1" d="M44.06,99.33v27.35H5.68c0-.16,0-.32,0-.48,0-.44.07-.87.11-1.3s.09-1,.14-1.52.1-1.11.16-1.66.11-1.1.17-1.65.12-1.1.19-1.65.13-1.1.2-1.65l.18-1.36c.09-.64.18-1.28.28-1.92a1.35,1.35,0,0,1,0-.29A130.69,130.69,0,0,1,10,99.35Z"/><path class="cls-1" d="M5.55,128.31H44.06v52.48H8.37c-.09.53-.18,1.08-.28,1.62h36v42.32l-.19-.06c-1-.4-2-.83-3-1.28l-.65-.3c-1-.47-2-1-3-1.51L36.1,221A63.25,63.25,0,0,1,21,209.18l-.38-.38c-.62-.67-1.22-1.34-1.81-2l-.64-.76c-.69-.85-1.36-1.72-2-2.6-.09-.13-.18-.26-.28-.38a56.64,56.64,0,0,1-6.53-11.8l-.15-.38c-.52-1.34-1-2.69-1.38-4.06-.17-.57-.34-1.13-.49-1.73,0-.17-.09-.34-.14-.51C5,176.13,4.76,167.4,4.76,158.72v-3c0-3.51,0-7.05.11-10.57,0-.92,0-1.83,0-2.75.06-2.33.13-4.65.23-7,0-.65,0-1.3.09-1.94a10.51,10.51,0,0,1,.06-1.12C5.39,131,5.46,129.64,5.55,128.31Z"/><polygon class="cls-1" points="82.2 79.4 82.2 126.68 53.25 126.68 53.25 79.4 57.38 79.4 57.38 63.39 74.32 63.39 74.32 79.4 82.2 79.4"/><rect class="cls-1" x="53.25" y="128.3" width="28.95" height="52.48"/><path class="cls-1" d="M53.25,182.41h29V226a75.72,75.72,0,0,1-10.42,2.21l-.86.11-1.26.13-1.27.1h-.14l-.55,0h-.2c-.23,0-.45,0-.68,0h0c-.32,0-.65,0-1,0H63.16l-.73,0c-.38,0-.79,0-1.19-.06h0l-.73-.06-.9-.08c-.64-.06-1.27-.13-1.9-.22l-.76-.1-.38-.06c-.63-.1-1.26-.2-1.89-.32-.47-.08-.93-.18-1.4-.28Z"/><rect class="cls-1" x="239.29" y="73.81" width="23.87" height="52.87"/><polygon class="cls-1" points="263.17 128.3 263.17 180.79 144.69 180.79 144.69 158.15 207.79 158.15 207.79 171.5 239.29 171.5 239.29 128.3 263.17 128.3"/><path class="cls-1" d="M263.54,238.68h-.38v34.43q-6.41-.56-12.78-1.48A208.79,208.79,0,0,1,195,255.46q-7.64-3.44-15-7.5a189.92,189.92,0,0,1-23.39-15.3q-2.79-2.13-5.51-4.37c-1.26-1-2.51-2.1-3.77-3.13-.88-.71-1.76-1.41-2.65-2.08V182.41H239c-.07-.24-.13-.49-.2-.73l.21.73h24.17v56.25Z"/><path class="cls-1" d="M325.42,69.88H309.86V65h7V50.65l1.8.67V65h6.78Z"/><path class="cls-1" d="M362.89,126.68H286.53l0,0,0,0H272.36V73.82h4v39.07h18.35V89.75h15.15V71.5h15.55V89.77h15.16v23.14h22.31Z"/><path class="cls-1" d="M272.36,128.3v52.49h90.53V128.3ZM387.47,242.56l.12-41.54h-24.7V182.43H272.36v91.24a209.42,209.42,0,0,0,22.27-.26h.13c3.54-.23,7.06-.55,10.57-1h.08a194.55,194.55,0,0,0,54.33-14.49"/><path class="cls-1" d="M398.39,182.41h21.12a72.85,72.85,0,0,1-7,30.79,74.56,74.56,0,0,1-15.7,21.19V201h1.59Z"/><path class="cls-1" d="M419.52,180.79H398.39V136.93h11.44C415.74,150.75,419.5,165.93,419.52,180.79Z"/><rect class="cls-1" x="250.38" y="88.51" width="12.79" height="16.57"/><rect class="cls-1" x="250.38" y="122.87" width="12.79" height="3.82"/><rect class="cls-1" x="250.38" y="128.3" width="12.79" height="11.13"/><rect class="cls-1" x="250.38" y="157.22" width="12.79" height="16.57"/><rect class="cls-1" x="250.38" y="191.58" width="12.79" height="16.57"/><path class="cls-1" d="M263.16,238.66a2.36,2.36,0,0,1,.38,0h-.38v3.85H250.38v-16.6h12.78Z"/><path class="cls-1" d="M263.16,260.28v12.81q-6.41-.54-12.78-1.48V260.28Z"/><rect class="cls-1" x="144.69" y="179.57" width="54.81" height="1.22"/><rect class="cls-1" x="144.69" y="182.41" width="54.81" height="4.67"/><rect class="cls-1" x="144.69" y="202.37" width="54.81" height="7.5"/><path class="cls-1" d="M199.49,225.17v7.5H156.62q-2.79-2.13-5.52-4.38c-1.25-1-2.5-2.09-3.76-3.12Z"/><path class="cls-1" d="M199.49,248v7.49H195Q187.34,252,180,248Z"/><rect class="cls-1" x="294.63" y="133.39" width="10.79" height="10.79"/><rect class="cls-1" x="61.02" y="83.12" width="10.79" height="10.79"/><rect class="cls-1" x="61.02" y="108.18" width="10.79" height="10.79"/><rect class="cls-1" x="61.02" y="133.24" width="10.79" height="10.79"/><rect class="cls-1" x="61.02" y="158.3" width="10.79" height="10.79"/><rect class="cls-1" x="61.02" y="183.36" width="10.79" height="10.79"/><rect class="cls-1" x="61.02" y="208.42" width="10.79" height="10.79"/><rect class="cls-1" x="335.82" y="133.39" width="10.79" height="10.79"/><rect class="cls-1" x="294.63" y="160" width="10.79" height="10.79"/><rect class="cls-1" x="335.82" y="160" width="10.79" height="10.79"/><rect class="cls-1" x="294.63" y="186.61" width="10.79" height="10.79"/><rect class="cls-1" x="335.82" y="186.61" width="10.79" height="10.79"/><rect class="cls-1" x="294.63" y="213.23" width="10.79" height="10.79"/><rect class="cls-1" x="335.82" y="213.23" width="10.79" height="10.79"/><rect class="cls-1" x="294.63" y="239.84" width="10.79" height="10.79"/><rect class="cls-1" x="335.82" y="239.84" width="10.79" height="10.79"/><polygon class="cls-1" points="294.63 273.41 294.63 266.45 305.42 266.45 305.42 272.42 294.63 273.41"/><path class="cls-1" d="M7.13,113.2v6.17H44.06V113.2ZM10.81,119h-3v-5.4h3Zm3.68,0h-3v-5.4h3Zm3.67,0h-3v-5.4h3Zm3.67,0h-3v-5.4h3Zm3.67,0h-3v-5.4h3Zm3.68,0h-3v-5.4h3Zm3.68,0h-3v-5.4h3Zm3.67,0h-3v-5.4h3Zm3.67,0h-3v-5.4h3Zm3.67,0h-3v-5.4h3Z"/><path class="cls-1" d="M7.13,131.16v6.17H44.06v-6.17Zm3.68,5.78h-3v-5.39h3Zm3.68,0h-3v-5.39h3Zm3.67,0h-3v-5.39h3Zm3.67,0h-3v-5.39h3Zm3.67,0h-3v-5.39h3Zm3.68,0h-3v-5.39h3Zm3.68,0h-3v-5.39h3Zm3.67,0h-3v-5.39h3Zm3.67,0h-3v-5.39h3Zm3.67,0h-3v-5.39h3Z"/><path class="cls-1" d="M7.13,149.12v6.19H44.06v-6.19Zm3.68,5.78h-3v-5.39h3Zm3.68,0h-3v-5.39h3Zm3.67,0h-3v-5.39h3Zm3.67,0h-3v-5.39h3Zm3.67,0h-3v-5.39h3Zm3.68,0h-3v-5.39h3Zm3.68,0h-3v-5.39h3Zm3.67,0h-3v-5.39h3Zm3.67,0h-3v-5.39h3Zm3.67,0h-3v-5.39h3Z"/><path class="cls-1" d="M7.13,167.09v6.16H44.06v-6.16Zm3.68,5.78h-3v-5.4h3Zm3.68,0h-3v-5.4h3Zm3.67,0h-3v-5.4h3Zm3.67,0h-3v-5.4h3Zm3.67,0h-3v-5.4h3Zm3.68,0h-3v-5.4h3Zm3.68,0h-3v-5.4h3Zm3.67,0h-3v-5.4h3Zm3.67,0h-3v-5.4h3Zm3.67,0h-3v-5.4h3Z"/><path class="cls-1" d="M7.29,185.05c.15.58.32,1.16.49,1.74v-1.35h3v5.4H9.19c.05.12.1.26.15.37H44.06v-6.16Zm7.21,5.79h-3v-5.4h3Zm3.67,0h-3v-5.4h3Zm3.67,0h-3v-5.4h3Zm3.68,0h-3v-5.4h3Zm3.67,0h-3v-5.4h3Zm3.68,0h-3v-5.4h3Zm3.67,0h-3v-5.4h3Zm3.67,0h-3v-5.4h3Zm3.68,0h-3v-5.4h3Z"/><path class="cls-1" d="M15.87,203c.09.12.18.26.28.38h2V206c.21.26.43.52.65.76v-3.37h3v5.42H20.61c.12.12.24.26.38.38H44.07V203Zm9.63,5.78h-3v-5.39h3Zm3.68,0h-3v-5.39h3Zm3.68,0h-3v-5.39h3Zm3.67,0h-3v-5.39h3Zm3.67,0h-3v-5.39h3Zm3.67,0h-3v-5.39h3Z"/><path class="cls-1" d="M36.12,221l1.05.58v-.19h3v1.71l.64.3v-2h3v3.28l.18.07V221Z"/><path class="cls-1" d="M286.53,126.68Zm-23.37,112Zm-24.38-57c.07.24.13.49.2.73h0C238.92,182.17,238.86,181.92,238.78,181.68Zm47.75-55ZM57.39,69.86v1.62h17V69.86ZM263.16,238.65Zm-24.38-57c.07.24.13.49.2.73h0C238.92,182.17,238.86,181.92,238.78,181.68Zm47.75-55Zm-23.37,112Zm-24.38-57c.07.24.13.49.2.73h0C238.92,182.17,238.86,181.92,238.78,181.68Z"/><path class="cls-2" d="M175.42,144s-1.49-.21-1.49-2.39a34.17,34.17,0,0,0-1.07-6.24h0s-.93-7.08-2.21-8.21-2.92-7.71-2.92-7.71-.28-3.58-.85-4.35a37.12,37.12,0,0,1-2.49-5.35c-1.14-2.69-5.9-4.55-5.9-4.55s-8.61-5-11.05-6.62h0a3.49,3.49,0,0,1-.62-.47c-.42-.55-2.28-.57-2.28-.57-.19-1.22-.37-2.62-.44-3.89,0-.14,0-.27,0-.41a13.16,13.16,0,0,0,5.77-7.14l.12-.44a1.23,1.23,0,0,0,.74-.67,12.87,12.87,0,0,1,.5-1.52,6,6,0,0,1,1.4-1.23A5.28,5.28,0,0,0,154.08,78c0-1.27-.24-2.55-.16-3.82l0-.32c0-.18.05-.37.09-.56.18-.94.59-1.83.81-2.76a3.51,3.51,0,0,0-.28-2.79c-.77-1.18-2.39-1.41-3.82-1.53-1.61-.14-3.05,0-4.08-1.3a13.9,13.9,0,0,0-1.63-2c-.21-.2-2.27-1.46-2.27-1.54a9.21,9.21,0,0,0-6.43-.5c-1.07.32-2.08.82-3.17,1.08-2.34.55-5-.05-7,1.29a8.25,8.25,0,0,0-2.39,3.14c-.51,1-1,1.94-1.54,2.91a18.84,18.84,0,0,0-2,5,7.49,7.49,0,0,0-.13,1.16h0V76a2.36,2.36,0,0,0,0,.38c0,.12,0,.16,0,.23s0,.26,0,.38a4.55,4.55,0,0,0,.12.51,1.17,1.17,0,0,0,.06.2c0,.13.09.26.14.38a1.19,1.19,0,0,0,.08.2c.06.13.13.26.19.38l.09.15a3.54,3.54,0,0,0,.35.51c.81,1,2,1.66,2.89,2.61v.42A13,13,0,0,0,130,93c0,.15,0,.3,0,.44a21.18,21.18,0,0,1,0,3.38,1.59,1.59,0,0,0-1.26-.56,2,2,0,0,0-.48,0l0,0h0v0c-.83.2-1.86,1.07-2.84,3.54,0,0-3,3.37-5.27,3.23s-8,3.51-8,3.51-5.62,3.65-6.83,7.36a51.06,51.06,0,0,1-2.42,6.18l-7,14.32h0L94.53,145.8a52.93,52.93,0,0,1,.57,5.83c-.14.77,2.92,7.71,2.92,7.71s10.1,17.75,14.23,18.66l.29-.2a2.35,2.35,0,0,0,.56.2l.85-.59a9.56,9.56,0,0,1-.06,2c-.57,1.75.21,13.19,1.2,15.43s.65,31.64.65,31.64l-.15,2.6a.89.89,0,0,0,0,.22l0,.62.11.05a7.33,7.33,0,0,1-.11,2.47,28.33,28.33,0,0,0-.5,4.36s-2.84,18.16-1.49,21.81,2.49,7.65,2.49,7.65,1.42,4.55.07,5.33-5.2,2.08-4.41,4,3.45,6.45,3.86,7.13l0,.36-.56,6.05a7.37,7.37,0,0,0,.64,2.3,4,4,0,0,0,4,2.54c.38,0,.82-.07,1.25-.13a53.35,53.35,0,0,0,9.22-2.4,3.78,3.78,0,0,1-.72-.59h0a2.13,2.13,0,0,1-.64-1.52c.06-1.1-2-6.34-2.51-7.63l-.12-.3s4.7-4.9,3.92-9.26c0,0-5.2-3-3.49-4.7a52.72,52.72,0,0,0,4.77-6.45s.14-17.88,0-20.55a21.94,21.94,0,0,1,.26-5.55c.06-.28.13-.55.2-.82a48.73,48.73,0,0,0,7.14.55c.88,0,1.77,0,2.66-.06,0,.26,0,.53,0,.82.2,4.43.57,12.2.87,15.09.42,4.14,2.77,15.29,2.77,15.29s-4.48,2.88.78,10c0,0,0,2.57-.34,2.95h0a29.34,29.34,0,0,0-.9,3.7,6.52,6.52,0,0,0,0,3.39c.86,1.67,6,1.54,6,1.54h0l.12,0a7.34,7.34,0,0,1,5.42,1.64c2,1.56,9.34.87,13.33.38,1.57-.2,2.62-.38,2.62-.38a1.45,1.45,0,0,0,0-.55h0c0-1-.81-3.14-6-5.06,0,0-4.91-3.3-4.84-6.18h-.67a6.14,6.14,0,0,1,.68,0s-1.93-7-1.14-7.58-1.57-8.35-1.57-8.35-1.35-13.05-1.42-14a7.92,7.92,0,0,1,.36-2.32l-.36-7.15s-.07-2.38,0-3.16a14.84,14.84,0,0,0-.16-2c0-.27-.07-.54-.11-.82,1.84-.46,3-.9,3-.9L160,206c1.56-3,1.85-9.7,1.84-14.42,0-3-.14-5.28-.14-5.28l2.14-3.49s.49-4.17-.29-5.08a.87.87,0,0,1,.1-1.2,3.76,3.76,0,0,1,.46-.32l0-.08a3.21,3.21,0,0,1,.48-.34s-.76-1.17-.08-1.67c.63.43,1.2.76,1.64,1,0,.28-.06.44-.06.44l.18-.38.67.38s3.34-6.67,3.27-7.65,2.28-5.12,2.28-5.12a5.12,5.12,0,0,1,1.57-3.09c1.28-.91,1-7.5,1-7.5s.36-3.44,1.21-4.84S175.42,144,175.42,144Zm-64-2.93.06,1.59-.65-1Z"/><path class="cls-3" d="M167.06,172.66l-.82,3.49s-6.56-3.35-7.75-7.61,2-5.87,2-5.87l6.12,2.59Z"/><path class="cls-4" d="M167.06,172.66l-.82,3.49s-6.56-3.35-7.75-7.61,2-5.87,2-5.87l6.12,2.59Z"/><path class="cls-3" d="M130.23,291.45S124.16,293.68,120,294a3.91,3.91,0,0,1-4-2.52,7.92,7.92,0,0,1-.62-2.3l.54-6,.29-3.2,8.87-2.31,1.25,3.84.12.3c.5,1.28,2.53,6.49,2.46,7.58a2.05,2.05,0,0,0,.63,1.5A3.68,3.68,0,0,0,130.23,291.45Z"/><path class="cls-3" d="M171.69,288.39a1.65,1.65,0,0,1-.05.54s-13,2.17-15.64,0a7,7,0,0,0-5.46-1.6s-5,.14-5.87-1.52a6.65,6.65,0,0,1,0-3.37,33.37,33.37,0,0,1,.88-3.68l.2-.16,1.2-1,14-.41H161c-.07,2.86,4.75,6.14,4.75,6.14C170.87,285.27,171.63,287.41,171.69,288.39Z"/><path class="cls-4" d="M171.69,288.39a1.66,1.66,0,0,1-.06.54s-13,2.17-15.63,0a7,7,0,0,0-5.46-1.6s-5,.14-5.86-1.52a6.63,6.63,0,0,1-.05-3.37c1.94.2,5,.68,6.19,1.83,1.81,1.75,4.89,3.49,6.77,3.63C159.07,288,167.9,288.27,171.69,288.39Z"/><path class="cls-4" d="M130.23,291.45S124.16,293.68,120,294a3.88,3.88,0,0,1-4-2.53c1.54.52,3.69,1.07,4.81.57,1.34-.59,6.07-1,8.73-1.14A3.84,3.84,0,0,0,130.23,291.45Z"/><path class="cls-5" d="M139.23,111.68c-5-2-11.45-8.38-9.84-11.38a6.77,6.77,0,0,0,.63-2.42,21.56,21.56,0,0,0,0-3.41,45,45,0,0,0-.67-5.55s15.64.35,14.73,2.65a8.56,8.56,0,0,0-.24,3.16c.07,1.31.26,2.8.46,4,.27,1.73.55,3,.55,3s-1,1.34-1.52,1.41S146.42,114.45,139.23,111.68Z"/><path class="cls-4" d="M126.44,281.76l-.12.12c-4.67-5.65-10.33,1.4-10.33,1.4l-.08-.15.29-3.2,8.86-2.31,1.26,3.84Z"/><path class="cls-4" d="M161,277.62s-3.41-.07-5.24,1.54-10.62.35-10.24,0a1.3,1.3,0,0,0,.2-.58l1.19-1,14-.41C161,277.47,161,277.62,161,277.62Z"/><path class="cls-6" d="M132.25,233.23a10.91,10.91,0,0,0-.57,2,22.2,22.2,0,0,0-.27,5.52c.15,2.66,0,20.46,0,20.46a54.51,54.51,0,0,1-4.67,6.41c-1.67,1.68,3.42,4.68,3.42,4.68.75,4.33-3.84,9.21-3.84,9.21-4.68-5.65-10.33,1.4-10.33,1.4s-3.07-5.31-3.84-7.21,3-3.21,4.33-4-.07-5.31-.07-5.31-1.12-4-2.45-7.61,1.47-21.7,1.47-21.7a27.46,27.46,0,0,1,.49-4.33,7.26,7.26,0,0,0,.1-2.46c0-.28,0-.51-.07-.66l0-.23,0-.09,1.9-3.54S133.16,231,132.25,233.23Z"/><path class="cls-6" d="M161,277.21s-3.41-.07-5.24,1.51-10.62.35-10.24,0,.35-2.93.35-2.93c-5.16-7.05-.76-9.91-.76-9.91s-2.3-11.09-2.72-15.21c-.29-2.88-.65-10.6-.85-15-.08-1.89-.13-3.2-.13-3.2l4.22-.85.54-.11,10.17-2s.29,1.9.48,3.45a16.67,16.67,0,0,1,.15,2c-.06.76,0,3.13,0,3.13l.35,7.12a8.24,8.24,0,0,0-.35,2.31c.07.9,1.4,13.89,1.4,13.89s2.3,7.74,1.51,8.3S161,277.21,161,277.21Z"/><path class="cls-4" d="M144.12,91.57a8.56,8.56,0,0,0-.24,3.16,13,13,0,0,1-13.82-.26,45,45,0,0,0-.67-5.55S145,89.26,144.12,91.57Z"/><path class="cls-5" d="M150.16,83.19a12.81,12.81,0,0,1-.64,4A13,13,0,0,1,124.2,83.5v-.31a13,13,0,0,1,26-.45,3.38,3.38,0,0,1,0,.45Z"/><path class="cls-4" d="M139.23,111.68c-5-2-11.45-8.38-9.84-11.38a6.77,6.77,0,0,0,.63-2.42l6.85,5.64,4.25,3.48,3.22-8.21c.27,1.72.55,3,.55,3s-1,1.34-1.52,1.41S146.42,114.45,139.23,111.68Z"/><polygon class="cls-6" points="156.96 136.58 151.24 232.75 143.77 233.24 124.44 177.47 127.61 111.27 128.28 97.28 136.87 104.34 141.12 107.82 144.44 99.37 150.61 104.75 156.96 136.58"/><path class="cls-4" d="M132.25,233.23a10.91,10.91,0,0,0-.57,2A55.17,55.17,0,0,1,116,230.29l-.1,0,0-.61v-.32l1.9-3.54S133.16,231,132.25,233.23Z"/><path class="cls-4" d="M145.72,235.2a38.91,38.91,0,0,1-4.19.47c-.08-1.89-.13-3.2-.13-3.2l4.21-.85Z"/><path class="cls-4" d="M156.8,232.92a29.53,29.53,0,0,1-10.59,1l-.05-2.41,10.17-2S156.61,231.35,156.8,232.92Z"/><path class="cls-4" d="M146.14,234.36c-15.55,2.65-29.8-5-29.8-5l.14-2.58s.35-29.25-.63-31.49-1.74-13.61-1.18-15.36-2-27.91-2-27.91l-.41-10.62L97,135.25,103.78,121a52.09,52.09,0,0,0,2.38-6.15c1.18-3.7,6.7-7.33,6.7-7.33s5.65-3.62,7.88-3.49,5.17-3.21,5.17-3.21c2.16-5.51,4.12-3,4.12-3a4.7,4.7,0,0,1-.11.81c-.76,6,12.27,25.17,12.45,25.51h0l1.25,30.22,1.25,38.25Z"/><path class="cls-3" d="M145.72,234.36c-15.55,2.65-29.8-5-29.8-5l.14-2.58s.35-29.25-.63-31.49-1.74-13.61-1.18-15.36-2-27.91-2-27.91l-.43-10.62-15.28-6.21L103.35,121a51.94,51.94,0,0,0,2.38-6.14c1.18-3.7,6.7-7.33,6.7-7.33s5.65-3.63,7.88-3.49,5.16-3.21,5.16-3.21c2.17-5.51,4.56-3,4.56-3,0,.26-.23.37-.11.81,1.67,5.87,11.85,25.17,12,25.51h0l1.25,30.22,1.26,38.25Z"/><path class="cls-4" d="M141.53,125c-1.67-.7-10.53-10.81-10.53-10.81v-2.31c-.32-.76-2.24-.29-3.8.24l.67-14,.76.63C130.29,104.61,141.34,124.65,141.53,125Z"/><path class="cls-3" d="M142,124.15c-1.67-.7-10.54-10.81-10.54-10.81V111c-.32-.75-2.23-.29-3.79.24l.67-14,.76.63C130.72,103.78,141.77,123.82,142,124.15Z"/><path class="cls-4" d="M116.34,174.61c.21,0,10.82-1.11,10.82-1.11s6.42,12.63,6,15.7-1.18,5.79-3.77,5.31-13.9.38-13.9.38Z"/><path class="cls-3" d="M115.92,173.77c.21,0,10.82-1.11,10.82-1.11s6.42,12.63,6,15.7-1.19,5.79-3.77,5.31-13.9.38-13.9.38Z"/><path class="cls-5" d="M123.91,167.85s9.74,5.23,10,6.82-5-.69-6.07-1a14.11,14.11,0,0,0-2.24-.35l-7.44.2Z"/><circle class="cls-4" cx="138.82" cy="124.62" r="1.02"/><circle class="cls-7" cx="138.82" cy="124.2" r="1.02"/><circle class="cls-4" cx="140.7" cy="168.96" r="1.02"/><circle class="cls-7" cx="140.7" cy="168.54" r="1.02"/><circle class="cls-4" cx="139.84" cy="146.79" r="1.02"/><circle class="cls-7" cx="139.84" cy="146.37" r="1.02"/><path class="cls-3" d="M163.45,173.14s.7,1,0,1.53.07,1.68.07,1.68-1.74,1-1,1.94.28,5.06.28,5.06l-2.09,3.47s.12,2.23.13,5.25c0,4.71-.28,11.34-1.81,14.36l.21,24.77s-7.33,2.68-13.47,1.87l-.91-39.76s1.33-22.55,1.82-26.87a45.11,45.11,0,0,0,.35-6.77,76,76,0,0,0-.91-9.91s-.76-13.61-.84-17.38c0-1.8.06-7.06.17-12.06.12-5.47.25-10.62.25-10.62l-1.38-11s1.38-.14,1.8.42a4.71,4.71,0,0,0,.61.47h0c2.39,1.61,10.83,6.58,10.83,6.58s4.67,1.86,5.79,4.52a39.77,39.77,0,0,0,2.44,5.32c.55.75.84,4.32.84,4.32s1.61,6.56,2.87,7.67,2.17,8.19,2.17,8.19L160.59,145s-1,14.52-1.18,15.08S163.45,173.14,163.45,173.14Z"/><path class="cls-3" d="M163.87,173.14s.69,1,0,1.53.06,1.68.06,1.68-1.73,1-1,2,.28,5.06.28,5.06l-2.09,3.47s.13,2.23.14,5.25c0,4.72-.28,11.34-1.81,14.36l.21,24.78s-7.35,2.67-13.48,1.86l-.91-39.76s1.33-22.55,1.82-26.87a45.11,45.11,0,0,0,.35-6.77,76,76,0,0,0-.91-9.91s-.76-13.61-.84-17.38c0-1.8.07-7.06.17-12.06.12-5.46.25-10.62.25-10.62l-1.83-11.1s1.83,0,2.25.56a3.53,3.53,0,0,0,.61.47h0c2.39,1.61,10.84,6.58,10.84,6.58s4.67,1.86,5.78,4.53a38.4,38.4,0,0,0,2.45,5.31c.54.76.83,4.32.83,4.32s1.61,6.56,2.87,7.68,2.16,8.16,2.16,8.16L161,145s-1,14.51-1.19,15.08S163.87,173.14,163.87,173.14Z"/><path class="cls-4" d="M150.58,112.93l1,2.92-5.27,5.31c.12-5.46.25-10.62.25-10.62l-1.83-11.1s1.83,0,2.25.56a3.37,3.37,0,0,0,.61.46h0l4.48,12.94Z"/><path class="cls-3" d="M150.16,112.09l1,2.92-5.28,5.31c.12-5.46.25-10.62.25-10.62l-1.83-11.1s1.83,0,2.25.56a3.42,3.42,0,0,0,.61.47h0l4.48,12.93Z"/><path class="cls-4" d="M150.16,83.19a12.81,12.81,0,0,1-.64,4,.51.51,0,0,1-.41-.1c-.1-3.41-1.78-6.62-3.84-9.35a10,10,0,0,0-2.09-2.16,4.1,4.1,0,0,0-2.83-.8c-1.14.16-2.14.93-3.29,1-1.52.12-2.88-.93-4.39-1a4.34,4.34,0,0,0-3.22,1.49,8.76,8.76,0,0,0-1.72,3.21,18.84,18.84,0,0,0-1,5.52c0,1.06-.12,2.39-1.1,2.78a5.68,5.68,0,0,0-1.43-4.33l0,0v-.31a13,13,0,0,1,26-.45,3.38,3.38,0,0,1,0,.45Z"/><path class="cls-8" d="M142.56,62.58a8.94,8.94,0,0,0-6.31-.5c-1.05.31-2,.82-3.11,1.07-2.27.55-4.93,0-6.88,1.29a8.27,8.27,0,0,0-2.35,3.12l-1.51,2.89a18.81,18.81,0,0,0-2,4.93,6.27,6.27,0,0,0,1,5.1c.8,1,2,1.66,2.86,2.62a5.66,5.66,0,0,1,1.43,4.32c1-.38,1.08-1.71,1.11-2.78a18.56,18.56,0,0,1,1-5.52,8.74,8.74,0,0,1,1.73-3.2,4.33,4.33,0,0,1,3.22-1.5c1.51.06,2.88,1.1,4.38,1,1.14-.1,2.15-.87,3.29-1a4.05,4.05,0,0,1,2.83.81,9.28,9.28,0,0,1,2.08,2.16c2.08,2.73,3.76,5.92,3.85,9.35.43.31,1.05-.1,1.26-.58a15,15,0,0,1,.49-1.52,5.58,5.58,0,0,1,1.38-1.22,5.37,5.37,0,0,0,1.43-4.3,21.55,21.55,0,0,1,0-4.68c.18-.94.58-1.82.8-2.75a3.59,3.59,0,0,0-.27-2.77c-.76-1.18-2.36-1.41-3.75-1.52-1.58-.13-3,0-4-1.29a14.24,14.24,0,0,0-1.59-2C144.59,63.91,142.56,62.66,142.56,62.58Z"/><path class="cls-4" d="M101.32,142.58l-4-7.33L96.1,146.56a52.38,52.38,0,0,1,.56,5.79c-.14.77,2.86,7.68,2.86,7.68s9.91,17.65,14,18.56l13.68-9.77-3.63-4.61s-1.25-.48-1.57,0c0,0-6.73-11.58-7.43-12.42a4.16,4.16,0,0,1-.56-2.51s-1-1.12-.7-2.16-2-4.68-2-4.68l2.16-2Z"/><path class="cls-3" d="M97.57,134.41l-1,.84-1.26,11.31a52.38,52.38,0,0,1,.56,5.79c-.14.77,2.87,7.68,2.87,7.68s9.91,17.65,14,18.56l13.68-9.77-3.63-4.61s-1.25-.48-1.57,0c0,0-6.73-11.58-7.43-12.42a4.16,4.16,0,0,1-.56-2.51s-1-1.12-.7-2.16-2-4.68-2-4.68l2.16-2Z"/><path class="cls-4" d="M162.54,178.72c.76.92.28,5.06.28,5.06l-2.09,3.47s.12,2.23.13,5.25l-3.52,1.1a2.1,2.1,0,0,1-2.62-1.37,2,2,0,0,1-.09-.69l.61-19.58,8.21,3.14c-.7.49.07,1.68.07,1.68S161.78,177.8,162.54,178.72Z"/><path class="cls-3" d="M163,178.3c.76.92.28,5.06.28,5.06l-2.09,3.47s.13,2.23.14,5.25l-3.59,1.12a2,2,0,0,1-2.56-1.35,1.87,1.87,0,0,1-.09-.67l.61-19.64,8.21,3.15c-.7.48.07,1.67.07,1.67S162.2,177.38,163,178.3Z"/><path class="cls-5" d="M165.68,169s-.55,3.57-2,3.78-2,5.76-3.41,5.56-.47-5.16-.43-6.13-1.51-4.95-.34-5.86,4.88,0,4.88,0Z"/><path class="cls-4" d="M168.65,141.53l2.64-5.31a34.73,34.73,0,0,1,1,6.21c0,2.16,1.47,2.38,1.47,2.38s1.6,1.89.76,3.27-1.19,4.82-1.19,4.82.28,6.56-1,7.47a5.11,5.11,0,0,0-1.52,3.07s-2.3,4.12-2.23,5.1-3.21,7.6-3.21,7.6,1.6-8.23-7.75-11.79c0,0-.07-2.8.63-3.57s1.79-1.11,1.1-5a45.37,45.37,0,0,1-.19-9.44c0-.92,2.09-6.72,2.09-6.72Z"/><path class="cls-3" d="M169.79,135.46l2.3.76a34.43,34.43,0,0,1,1,6.21c0,2.16,1.47,2.38,1.47,2.38s1.6,1.89.76,3.27-1.19,4.82-1.19,4.82.28,6.56-1,7.47a5.14,5.14,0,0,0-1.53,3.07s-2.31,4.12-2.23,5.1-3.22,7.6-3.22,7.6,1.61-8.23-7.74-11.79c0,0-.07-2.8.63-3.57s1.78-1.11,1.1-5a45.6,45.6,0,0,1-.2-9.44c0-.92,2.1-6.72,2.1-6.72Z"/><path class="cls-4" d="M119,273.13s3.67-2.31,6.07-.63S119,273.13,119,273.13Z"/><path class="cls-4" d="M147.49,266a7.45,7.45,0,0,1,6,2.52C156.18,271.45,147.49,266,147.49,266Z"/><g class="cls-9"><path d="M152.23,82.54a5.74,5.74,0,0,0-1.37,1.22,12.27,12.27,0,0,0-.49,1.52c-.21.49-.83.89-1.26.58-.1-3.41-1.78-6.62-3.85-9.35a9.91,9.91,0,0,0-2.08-2.16,4,4,0,0,0-2.83-.8c-1.14.15-2.14.93-3.29,1-1.52.13-2.88-.92-4.39-1a4.3,4.3,0,0,0-3.22,1.5,8.68,8.68,0,0,0-1.72,3.19,19,19,0,0,0-1,5.53c0,1.06-.12,2.38-1.1,2.77a3.93,3.93,0,0,1,0,.84c1-.38,1.09-1.71,1.11-2.77a18.89,18.89,0,0,1,1-5.53,9,9,0,0,1,1.73-3.2,4.29,4.29,0,0,1,3.22-1.49c1.52,0,2.88,1.1,4.38,1,1.14-.09,2.15-.87,3.29-1a4.09,4.09,0,0,1,2.84.8,9.69,9.69,0,0,1,2.08,2.16c2.07,2.73,3.75,5.93,3.85,9.35.43.31,1-.1,1.26-.58a12.83,12.83,0,0,1,.49-1.52c.31-.54.91-.82,1.37-1.22a5.37,5.37,0,0,0,1.44-4.3v-.15A5,5,0,0,1,152.23,82.54Z"/><path d="M124.23,82.27c-.87-1-2.06-1.61-2.86-2.62a5.57,5.57,0,0,1-1.11-3.11,5.77,5.77,0,0,0,1.11,3.94c.8,1,2,1.66,2.86,2.62a5.69,5.69,0,0,1,1.43,3.39A5.66,5.66,0,0,0,124.23,82.27Z"/><path d="M154.42,70.81c-.23.93-.63,1.82-.81,2.75a8.67,8.67,0,0,0-.12,1.9,9.91,9.91,0,0,1,.12-1.08c.18-.94.58-1.82.81-2.75a4.6,4.6,0,0,0,.12-1.57A4.69,4.69,0,0,1,154.42,70.81Z"/></g><ellipse class="cls-1" cx="50.66" cy="282.61" rx="36.97" ry="5.94"/><rect class="cls-10" x="49.47" y="168.88" width="2.38" height="53.56"/><path class="cls-7" d="M66.8,222.27l-.15,2.41-.21,3.42-.09,1.42-.21,3.41-.09,1.42-.21,3.41-2.4,38.73a6.57,6.57,0,0,1-6.55,6.15H44.42a6.56,6.56,0,0,1-6.54-6.15l-2.39-38.75-.21-3.42-.09-1.42L35,229.49l-.09-1.42-.21-3.41-.15-2.42a3.41,3.41,0,0,1,3.22-3.6H63.44a3.37,3.37,0,0,1,3.36,3.42Z"/><polygon class="cls-11" points="66.65 224.68 66.44 228.09 34.88 228.09 34.67 224.68 66.65 224.68"/><polygon class="cls-11" points="66.35 229.5 66.14 232.91 35.18 232.91 34.97 229.5 66.35 229.5"/><polygon class="cls-11" points="66.05 234.33 65.84 237.74 35.48 237.74 35.27 234.33 66.05 234.33"/><path class="cls-6" d="M31,189c13.85,10,19.63,25.7,19.63,25.7s-16.69-.57-30.55-10.6S.5,178.36.5,178.36,17.18,178.93,31,189Z"/><path class="cls-12" d="M.49,178.36S17.82,188,23.37,195.94s27.3,18.71,27.3,18.71"/><path class="cls-6" d="M40,168.76a33.65,33.65,0,0,1,10.69,14A33.62,33.62,0,0,1,34,177a33.65,33.65,0,0,1-10.69-14A33.57,33.57,0,0,1,40,168.76Z"/><path class="cls-12" d="M23.35,163s9.44,5.24,12.46,9.57,14.86,10.18,14.86,10.18"/><path class="cls-6" d="M61.61,182.31c-8.66,9.52-10.49,22-10.49,22s12.21-3,20.87-12.52,10.49-22,10.49-22S70.27,172.79,61.61,182.31Z"/><path class="cls-12" d="M82.49,169.8s-11.29,9.75-14.15,16.48-17.22,18-17.22,18"/><path class="cls-13" d="M379.55,179s-6.26-31.16-3.86-35c0,0,.08-3.6-.06-8.2v-.52a11.45,11.45,0,0,0,8.49,1.68l-1.9-2.11a3.5,3.5,0,0,1-1-1.72,3.65,3.65,0,0,1,.41-1.86c1.8-4.55,1.9-10.28-1.57-13.75-2.94-2.92-3.65-6.69-6.83-9.36-2.33-2-3.61-4.82-4.81-7.59a43.25,43.25,0,0,1-2.64-7.18c-.45-1.94-.63-4-1.26-5.84a7.47,7.47,0,0,0-3.63-4.58,13.38,13.38,0,0,1-2-.87,8.52,8.52,0,0,1-1.82-2.13c-2.87-3.8-12.49-1.56-17,0a9.69,9.69,0,0,0-3.37,1.86l0-.06.12-.17a6,6,0,0,0-1.28,1.42,33.76,33.76,0,0,0-1.49,3.41c-.67,1.35-4.39,5.11-2.79,6.62a1.39,1.39,0,0,0,.38.25,3.34,3.34,0,0,0,1.9.19l-.07.16a10.82,10.82,0,0,0-.82,4.21A11.38,11.38,0,0,0,344.13,109a11.65,11.65,0,0,0,3.52-.54c0,.14.05.29.08.43s0,.12,0,.17h0l-.2.28,0,0-6,8.33c-.91.64-6.15,4.43-6.45,7.28-.31,3.11-.62,6.76-.62,6.76l0,.78a2.33,2.33,0,0,1-1.9.51c-1.86-.3-1.86,6.83-1.86,6.83s-1.23,1.14-2.08.15-3.1,2.36-3.1,2.36l-14.07.61h-.33l-.76-2.34a1,1,0,0,0-1.24-.64l-.17.07-.05,0-.1.07-.05.05a.27.27,0,0,0-.07.08l-.05,0,0,0h0a1,1,0,0,0-.14.85l.65,2c-2.71.54-5.49,2.09-3.22,6.33l-11.48-2.12,3.71,3.11,19.17,4c-.25.46-.08,1.12.71,2,3.41,4,9.63,5.09,12.14,5.38a22.18,22.18,0,0,0,2.46,4.17l-.22,4s-6.33,30.45-7.5,32a17.4,17.4,0,0,0,1.61-2.12c-1.84,6.26-4.41,14.82-5.09,16.1-1.08,2.05-2.09,10.34-.85,10.87a10,10,0,0,0,3,0v.69l-.07,26s.31,16-.54,17.48a15,15,0,0,0-1.08,4.71s-3.42,6.29-6.12,8.82l-.06.06-.09-.59s-3.25,4.1-10.44,3.87c0,0-4.33,2.81,2.09,3s14.62-.23,14.62-.23,5.72-8.73,10.52-7.59v6.61h1.47V283a6,6,0,0,0,2.61-3.95,4.8,4.8,0,0,0-1.71-4.45,2.85,2.85,0,0,1-.94-2.08l-.05,0c0-.13,0-.27,0-.41-.43-3.41-1-10.46.91-15.67,2.55-7.15,3.33-17.1,1.47-23a54.22,54.22,0,0,1-1.48-5.77c0-.24-.08-.48-.12-.7a29.8,29.8,0,0,1,3.76.76c4.31,1.19,13.73,1.41,21.77,1.34,0,.22,0,.46.07.69a24,24,0,0,0,.9,4.75c1,3,1.47,16.41,1.47,16.41s1.3,11,.59,15.48c-.38,2.49-.76,5-1,7.5v0s-2.14,6.07-3.7,9.37c0,.08-.08.16-.11.24a5,5,0,0,0-1.22.27s-2.09,4.18-4.17,4.87-1.4,3,3.32,2.12,11.84-1.51,11.84-1.51l.3-4.26,1.45-1.81-.38,4.24,1.55-.3-.21-5.16,2.37-3s2.87-2.55-1.39-7.57v.11l-.14-.22v0c-.7-1.09-1.26-3.13-.23-6.74,1.85-6.54,2.94-12.47,2.94-12.47s4.15-15.88-.84-23.4h.22a12.6,12.6,0,0,1-1.08-3.33c0-.14,0-.28-.07-.43a27.3,27.3,0,0,0,10.27-2.32S381,185,379.55,179Zm-46.86-26.29v.08l-.76,0Zm-2.6.36a.86.86,0,0,0-.35.16,3.42,3.42,0,0,0-.59,1.56l-1.19-.26s-.83-.18-2-.38l-.57-.57C326.93,153.41,328.55,153.22,330.09,153Z"/><polygon class="cls-14" points="369.25 282.08 368.8 287.45 370.31 287.15 370.08 281.32 369.25 282.08"/><path class="cls-15" d="M334.71,256.55c-1.82,5.2-1.31,12.22-.9,15.62.16,1.26.3,2,.3,2s-2.73,6.21-3,6.45-8,5-8,5l-5.45,3.19s-5.53-2.43-2.88-3.26a4,4,0,0,0,1.43-1c2.66-2.52,6-8.79,6-8.79a15.1,15.1,0,0,1,1.07-4.7c.83-1.51.53-17.42.53-17.42l.06-25.93v-3.38l10.38.08a22.88,22.88,0,0,0,.44,3.41,53.14,53.14,0,0,0,1.45,5.75C338,239.53,337.21,249.43,334.71,256.55Z"/><path class="cls-4" d="M334.11,274.2s-2.73,6.21-3,6.45-8,5-8,5l-5.45,3.19s-5.53-2.43-2.88-3.26a4,4,0,0,0,1.43-1l.24,1.66,1.82-.07,15.55-14C334,273.43,334.11,274.2,334.11,274.2Z"/><path class="cls-14" d="M333.92,272.53l-15.64,14.09-1.82.08-.38-2.66s-3.18,4.09-10.24,3.87c0,0-4.25,2.8,2,2.95s14.31-.23,14.31-.23,5.61-8.72,10.3-7.58v6.59h1.45V283a6,6,0,0,0,2.55-3.95,4.82,4.82,0,0,0-1.67-4.43A2.87,2.87,0,0,1,333.92,272.53Z"/><path class="cls-15" d="M370.69,264.66c-1,3.6-.46,5.63.23,6.72v0a12.35,12.35,0,0,1,1.81,4.43l.07.34-7.12,10.38-3.86,1.51s-6.21-2.12-5.08-2.72a5.94,5.94,0,0,0,1.24-2c1.51-3.28,3.61-9.34,3.61-9.34v0c.22-2.5.57-5,1-7.48C363.24,262,362,251,362,251s-.45-13.33-1.44-16.36a25.18,25.18,0,0,1-.88-4.72c-.21-1.9-.25-3.46-.25-3.46s4.09-5.69,11.58.45a8.44,8.44,0,0,1,1.57,1.7c5.18,7.37,1,23.6,1,23.6S372.51,258.14,370.69,264.66Z"/><path class="cls-4" d="M372.81,276.17l-7.12,10.38-3.86,1.51s-6.21-2.12-5.08-2.72a5.79,5.79,0,0,0,1.24-2,4.91,4.91,0,0,1,4,2.48l3.33-.53s4.39-8.63,5.38-9.16.15-3.94.15-3.94v-.87l.08.09v0a12.23,12.23,0,0,1,1.81,4.42Z"/><path class="cls-14" d="M362.21,286s-1.9-3.49-5.53-2.2c0,0-2.05,4.17-4.09,4.85s-1.37,2.95,3.25,2.12,11.59-1.52,11.59-1.52l.3-4.24,4.7-6s2.8-2.53-1.36-7.53v.87s.83,3.41-.16,3.94-5.36,9.17-5.36,9.17Z"/><path class="cls-4" d="M334.26,224.44a21.66,21.66,0,0,0,.45,3.41,48.28,48.28,0,0,0-10.84-.11v-3.38Z"/><path class="cls-4" d="M373,229.59s-6.07.29-13.31.35c-.2-1.89-.25-3.46-.25-3.46s4.09-5.69,11.59.46a8.18,8.18,0,0,1,1.57,1.7A8.7,8.7,0,0,0,373,229.59Z"/><path class="cls-14" d="M373,228.91s-26.58,1.28-34.69-1-16.13-.3-17.34-.83-.23-8.79.83-10.83,6.89-22.73,6.89-22.73l5.61-29.23,5.91-1.63.41-.12,10.3-2.83,7.54-2.09s15,58.55,13.71,62.87a11,11,0,0,0-.22,5.08A12.65,12.65,0,0,0,373,228.91Z"/><path class="cls-16" d="M314.71,144.3s-5.31,5.7-1.29,8.87,6.67.3,6.67.3Z"/><path class="cls-4" d="M314.71,144.3s-5.31,5.7-1.29,8.87,6.67.3,6.67.3Z"/><path class="cls-15" d="M357.62,106.89l-1.56,1.47c-1.33,1.24-3.31,3.07-5.06,4.6-2.43,2.11-4.43,3.66-3.71,2.34s.58-3.63.22-5.79c0-.15-.05-.29-.08-.43a37.82,37.82,0,0,0-1.17-4.69,81,81,0,0,1,6.09-7.07c.81-.76,1.38-1.07,1.41-.54a17.73,17.73,0,0,0,1.23,3.94l.06.15c.44,1.14.94,2.31,1.38,3.32C357.09,105.74,357.62,106.89,357.62,106.89Z"/><path class="cls-4" d="M355.05,100.87a11.27,11.27,0,0,1-7.54,8.64,39.39,39.39,0,0,0-1.25-5.12s7.39-9.54,7.5-7.61A18.5,18.5,0,0,0,355.05,100.87Z"/><path class="cls-4" d="M346.77,112.06l1-1.35s.63,3.86,3,2.16,2.45,12.82,2.45,12.82l-2.5,37.38L332.57,162l.51-18.06,2.05-9.11,5.05-13.24,3-4.37Z"/><path class="cls-14" d="M353.14,125.92l-2.28,33.8-.24,3.58-10.07-.6-.38,0-7.59-.45.51-18.07,2.05-9.1,5.06-13.24,3-4.37,3.59-5.17.95-1.35s.64,3.87,3,2.16l.05,0h0C353,111.61,353.14,125.92,353.14,125.92Z"/><path d="M335.39,131.88a2.75,2.75,0,0,1-2.72,1.59c-1.83-.3-1.82,6.83-1.82,6.83s-1.21,1.14-2.05.15-3,2.35-3,2.35l-13.79.61s6.14,2.8,4.93,11.29c0,0,20.83-1.29,21.51-3.26S335.39,131.88,335.39,131.88Z"/><polygon class="cls-3" points="295.33 147.87 298.96 150.97 328.88 157.26 325.17 153.47 295.33 147.87"/><path d="M346.83,113.25a76.72,76.72,0,0,0-3.11,8c-1,2.82-1.81,5.31-1.81,5.31S340,139.17,339,141.44s-.45,11.14-.45,11.14l-3.68,21.89s-1.66,11.28-4.24,18-5.36,9.75-5.45,9.85c1.14-1.54,7.34-31.87,7.34-31.87l2.05-38.25s.3-3.63.61-6.74,6.44-7.35,6.44-7.35l5.93-8.42C348.14,110.5,347.74,111.89,346.83,113.25Z"/><path class="cls-15" d="M331.38,162.41s-8.73-.38-12.95-5.46,9.77-2,9.77-2l3.63.83Z"/><path class="cls-4" d="M372.13,220.5a11,11,0,0,0-.22,5.08c-9.52.68-19.7-1.89-19.7-1.89-1.9,1.74-6.9,4.31-6.9,4.31l-2.72-33.76c-1.74-4.55-2.42-28.41-2.42-28.41s.15-1.24.37-3.11a.32.32,0,0,1,0-.14c.68-5.23,2-15,2.69-16.36.91-1.82-2.8-6.66-2.8-6.66l1.69-14.4.2-1.74c3.56-1.59,6.29-6.67,6.29-6.67l2.09-3.66h0c2.28-1.46,2.4,12.85,2.4,12.85l-2.28,33.8,7.54-2.08S373.41,216.18,372.13,220.5Z"/><path d="M381.9,222.84c-10.38,5.15-29.24.37-29.24.37-1.89,1.75-6.89,4.32-6.89,4.32L343,193.77c-1.74-4.55-2.42-28.41-2.42-28.41s2.19-17.79,3.1-19.61a2.92,2.92,0,0,0-.17-2.17,27.5,27.5,0,0,1-1.67-12.7l.73-6.19.2-1.74c3.57-1.59,6.29-6.67,6.29-6.67L351,113l3.49-6.12,1.65-2.9.29.25,2.14,2,2.28,1.89c3,2.51,8.1,6.92,10.75,9.61,2.33,2.38,3.06,11.62,3.27,18.57.14,4.58.06,8.17.06,8.17-2.35,3.86,3.79,34.9,3.79,34.9C380.16,185.28,381.9,222.84,381.9,222.84Z"/><path class="cls-17" d="M362,116.21s-7.12,13.55-6.29,18.71,3.17,11,2,12.34a4.2,4.2,0,0,1-3.33,1.67c-1.14.07-4.18,2.19-4.18,2.42s-2.8.23-5.31,1.29a33.49,33.49,0,0,1-6.21,1.67s-7.21-.23-7.88.45-1.36,4.77.08,8,3,5.69,4.24,6.13,8.86-2.12,15.07-2.73,13-5.52,13-5.52,7.43-2.66,8.73-7.12-1.59-29-1.59-29S368.11,113.1,362,116.21Z"/><path class="cls-17" d="M361.07,115.07s-7.12,13.56-6.29,18.71,3.18,11,2,12.35a4.17,4.17,0,0,1-3.33,1.66c-1.14.08-4.17,2.2-4.17,2.43s-2.8.22-5.31,1.28a33.49,33.49,0,0,1-6.21,1.67s-7.21-.23-7.88.45-1.36,4.77.08,8,3,5.69,4.24,6.13,8.86-2.12,15.07-2.72,12.95-5.53,12.95-5.53,7.42-2.66,8.71-7.12-1.59-29-1.59-29S367.2,112,361.07,115.07Z"/><path d="M361.76,115.53s-7.13,13.55-6.29,18.7,3.18,11,2,12.35a4.15,4.15,0,0,1-3.33,1.67c-1.14.07-4.17,2.19-4.17,2.42s-2.8.22-5.31,1.29a33.31,33.31,0,0,1-6.22,1.66s-7.2-.23-7.87.46-1.37,4.77.07,8,3,5.69,4.24,6.13,8.86-2.12,15.07-2.73S363,160,363,160s7.42-2.65,8.72-7.12-1.57-29-1.57-29S367.89,112.44,361.76,115.53Z"/><path class="cls-4" d="M361.6,151.89s-5.69-1.14-3.71.76,2,3.56,4.39,3.48S361.6,151.89,361.6,151.89Z"/><path class="cls-4" d="M371.22,192.71s-2.58,1.74,2.35,5.75S371.22,192.71,371.22,192.71Z"/><path class="cls-4" d="M366.31,207c0,.23-.91,8.35,2.49,10.38S366.31,207,366.31,207Z"/><path class="cls-15" d="M312.22,143.39c-2.75.1-8.68.93-5.61,6.67,2.72,5.08,7.3,1.69,9.87-.89A9.73,9.73,0,0,0,312.22,143.39Z"/><path class="cls-15" d="M316.51,149.13l.12-.12Z"/><path class="cls-4" d="M360.85,108.26c-2.92,2-5.36,3.68-5.84,4-1.3,1-3.79,6.64-5.4,9.54-1.28,2.33-5.43,2.93-7,3.08l.2-1.73c3.57-1.6,6.29-6.67,6.29-6.67l7-12.35,2.43,2.21Z"/><path class="cls-18" d="M360.85,108c-2.92,2-5.36,3.67-5.84,4-1.3,1-3.79,6.64-5.4,9.54-1.28,2.34-5.43,2.94-7,3.08l.2-1.73c3.57-1.59,6.29-6.67,6.29-6.67l7-12.34,2.43,2.19S359.48,106.88,360.85,108Z"/><path class="cls-15" d="M355.24,98.37a11.25,11.25,0,1,1-4.88-9.27A11.27,11.27,0,0,1,355.24,98.37Z"/><path class="cls-4" d="M374.87,136.21a10,10,0,0,1-3.63-3.9c-.63-1.25-1.05-2.69-2.13-3.58a9.55,9.55,0,0,0-3.49-1.35c-4-1.18-7.34-4.82-7.46-9-.07-2,.55-3.91.27-5.85a6.51,6.51,0,0,0-1.27-3,8.79,8.79,0,0,0-1.1-1.18c-.53-.51-1.08-1-1.57-1.52a6,6,0,0,1-.8-1.08,5.29,5.29,0,0,1-.43-1c-.76-2.32-.07-5.07-.91-7.42l0-.13a2.44,2.44,0,0,0-1.85-1.74c-.89-.06-1.65.68-2.5,1-1.78.69-3.7-.49-5.18-1.68s-3.16-2.57-5-2.31c-1.24.18-2.23,1-3.38,1.47a4.55,4.55,0,0,1-.8.23,11.25,11.25,0,0,1,21.69,4.19,10.91,10.91,0,0,1-.25,2.35l.06.16c.44,1.14.94,2.3,1.38,3.31l2.14,2,2.28,1.89c3,2.51,8.1,6.92,10.75,9.61C373.93,120,374.65,129.26,374.87,136.21Z"/><path class="cls-19" d="M334.22,87c.54-1.1.81-2.34,1.46-3.39A8.05,8.05,0,0,1,340,80.55c4.46-1.53,13.88-3.76,16.69,0a8,8,0,0,0,1.78,2.13,12.92,12.92,0,0,0,1.93.87A7.36,7.36,0,0,1,364,88.1c.61,1.87.8,3.89,1.24,5.82a44,44,0,0,0,2.58,7.16c1.18,2.75,2.43,5.61,4.71,7.55,3.11,2.66,3.79,6.42,6.68,9.33,3.41,3.46,3.3,9.17,1.54,13.7a3.82,3.82,0,0,0-.4,1.86,3.62,3.62,0,0,0,1,1.71l1.87,2.11a10.51,10.51,0,0,1-11.47-5.29c-.63-1.25-1.05-2.7-2.14-3.59a9.6,9.6,0,0,0-3.48-1.34c-4-1.18-7.34-4.83-7.47-9-.06-1.95.55-3.91.28-5.84a6.51,6.51,0,0,0-1.27-3c-1.05-1.36-2.62-2.27-3.47-3.79-1.44-2.54-.35-5.83-1.38-8.56a2.42,2.42,0,0,0-1.85-1.73c-.89-.07-1.65.67-2.51,1-1.77.69-3.69-.48-5.18-1.68s-3.15-2.57-5-2.3c-1.25.17-2.23,1-3.38,1.47-.85.32-2.57.62-3.32-.1C329.92,92.11,333.56,88.37,334.22,87Z"/><path class="cls-4" d="M372.76,130.8c-.64-1.26-1.06-2.7-2.14-3.59a9.47,9.47,0,0,0-3.49-1.34c-4-1.18-7.34-4.83-7.46-9-.07-1.95.55-3.91.27-5.84a6.44,6.44,0,0,0-1.27-3c-1.05-1.36-2.62-2.27-3.47-3.79-1.43-2.54-.34-5.83-1.38-8.56A2.43,2.43,0,0,0,352,93.94c-.89-.07-1.66.67-2.51,1-1.78.7-3.7-.48-5.18-1.68s-3.16-2.57-5.05-2.3c-1.24.18-2.23,1-3.38,1.47-.85.32-2.57.62-3.32-.1-1.56-1.52,2.08-5.25,2.73-6.6a33.83,33.83,0,0,1,1.47-3.38,1.74,1.74,0,0,1,.11-.18,6.25,6.25,0,0,0-1.25,1.42A36.42,36.42,0,0,0,334.14,87c-.66,1.34-4.3,5.09-2.73,6.6.76.72,2.47.42,3.32.1,1.13-.45,2.13-1.3,3.38-1.47,1.89-.27,3.56,1.1,5,2.3s3.42,2.37,5.18,1.68c.85-.33,1.6-1.07,2.51-1a2.41,2.41,0,0,1,1.84,1.73c1,2.73-.05,6,1.39,8.56.85,1.49,2.42,2.42,3.46,3.79a6.41,6.41,0,0,1,1.27,3c.28,1.93-.33,3.89-.27,5.84.13,4.17,3.47,7.8,7.46,9a9.3,9.3,0,0,1,3.49,1.34c1.09.89,1.52,2.33,2.14,3.59a10.5,10.5,0,0,0,11.47,5.28l-.88-1A10.61,10.61,0,0,1,372.76,130.8Z"/><path class="cls-4" d="M346.6,113.48a76.45,76.45,0,0,0-3.1,8c-1.12-.44-2.12-3.19-2.12-3.19l5.92-8.43C347.91,110.73,347.51,112.12,346.6,113.48Z"/><path class="cls-18" d="M346.83,113.25a76.72,76.72,0,0,0-3.11,8c-1.11-.43-2.12-3.19-2.12-3.19l5.93-8.43C348.14,110.5,347.74,111.89,346.83,113.25Z"/><path class="cls-20" d="M312.38,152l-3.29-10.36a1,1,0,0,1,.63-1.22h0a1,1,0,0,1,1.21.63l3.29,10.35-.33,2.17Z"/><path class="cls-21" d="M309.4,140.74h0a1,1,0,0,1,1.22.63l3.29,10.35-.25,1.62.24.25.32-2.16-3.3-10.35a1,1,0,0,0-1.21-.63h0a.93.93,0,0,0-.51.38A.88.88,0,0,1,309.4,140.74Z"/><polygon class="cls-22" points="312.38 152.01 314.22 151.43 313.95 153.2 313.89 153.59 313.36 153.03 312.38 152.01"/><path class="cls-23" d="M313.36,153a.52.52,0,0,1,.11-.1.19.19,0,0,1,.18,0,.61.61,0,0,1,.07.1.3.3,0,0,0,.23.16l-.06.38Z"/><path class="cls-15" d="M309.07,145.33s6.59,0,5,2.76a5.93,5.93,0,0,1-4,3.15Z"/><path class="cls-6" d="M268.09,19.51h-.29a32.45,32.45,0,0,0-27.09,14.83,32.45,32.45,0,0,0-27.09-14.83h-.28A32.24,32.24,0,0,0,181.4,51.74c0,10.55,4.62,25.52,13.63,37.84,17.16,23.47,45.68,44,45.68,44s28.52-20.53,45.68-44c9-12.32,13.63-27.29,13.63-37.84A32.24,32.24,0,0,0,268.09,19.51ZM264,91.38a6.41,6.41,0,0,1-5.95-4.1H251.3a2.14,2.14,0,0,1-2-1.46l-2.08-6.26-6.58,23a2.12,2.12,0,0,1-2,1.54h-.13a2.1,2.1,0,0,1-2-1.76l-6.78-40.78-5,24.13a2.11,2.11,0,0,1-2.05,1.61h-9.53A2.12,2.12,0,1,1,213,83h8l7-32.44a2.13,2.13,0,0,1,4.17.17l6.93,41.6L245,71.8a2.08,2.08,0,0,1,2-1.51h0a2.12,2.12,0,0,1,2,1.45l3.76,11.31H258a6.36,6.36,0,1,1,6,8.35Z"/></g></g></svg>