<svg xmlns="http://www.w3.org/2000/svg" xmlns:xlink="http://www.w3.org/1999/xlink" viewBox="0 0 270.54 199.26"><defs><style>.cls-1,.cls-23{fill:#3b925a;}.cls-1,.cls-6{opacity:0.1;}.cls-1,.cls-11,.cls-24,.cls-4,.cls-6{isolation:isolate;}.cls-2{fill:#3a3768;}.cls-3{fill:#d48a9b;}.cls-4{opacity:0.05;}.cls-5{fill:#efc6cd;}.cls-7{fill:#fff;}.cls-8{fill:#d3dae1;}.cls-9{fill:url(#linear-gradient);}.cls-10{fill:#585b8a;}.cls-11{opacity:0.2;}.cls-12{fill:#636992;}.cls-13{fill:#ffd6d6;}.cls-14{fill:#dce6f2;}.cls-15{fill:#565988;}.cls-16{fill:#505484;}.cls-17{fill:#575988;}.cls-18{fill:#d28690;}.cls-19{fill:#575989;}.cls-20{fill:#353045;}.cls-21{fill:#f0f3f7;}.cls-22{fill:#663d5c;}.cls-24{opacity:0.3;}.cls-25{opacity:0.15;}.cls-26{fill:#ffd037;}.cls-27{fill:#65617d;}.cls-28{fill:#9d9cb5;}.cls-29{fill:#4b4770;}.cls-30{fill:#d4dfec;}</style><linearGradient id="linear-gradient" x1="184.73" y1="-517.72" x2="184.73" y2="-376.92" gradientTransform="matrix(1, 0, 0, -1, -54.11, -331.14)" gradientUnits="userSpaceOnUse"><stop offset="0" stop-color="gray" stop-opacity="0.25"/><stop offset="0.54" stop-color="gray" stop-opacity="0.12"/><stop offset="1" stop-color="gray" stop-opacity="0.1"/></linearGradient></defs><g id="Layer_2" data-name="Layer 2"><g id="_44ab1b28-df60-43dd-96f3-344df6392e15" data-name="44ab1b28-df60-43dd-96f3-344df6392e15"><path class="cls-1" d="M267.1,57.48c-.05.21-.09.42-.14.64a67.77,67.77,0,0,1-8.24,20.72l-.39.64a60.18,60.18,0,0,1-9.28,11.37,28.29,28.29,0,0,1-6.67,5c-3.57,1.81-7.75,2.55-11.86,3.15-4.27.62-8.6,1.15-12.91,1.71-1.53.2-3.06.41-4.57.63-4.17.6-8.31,1.29-12.35,2.21a73.55,73.55,0,0,0-14.4,4.71c-.37.16-.73.33-1.09.51l-1.06.52-1,.54-.53.29-.52.28-1.53.85h0l-1,.58c-1.87,1.1-3.69,2.25-5.52,3.41l-1.15.72-1.78,1.12-1.06.65-.76.49c-1.3.79-2.62,1.57-4,2.31l-1,.53a54.82,54.82,0,0,1-8.53,3.73l0,0A41.54,41.54,0,0,1,151.2,126c-.89.19-1.77.34-2.67.46a29.73,29.73,0,0,1-7.24.1c-4.72-.54-9.15-2.3-13.87-2.89-9.73-1.2-19.17,2.67-28.31,5.71q-3.37,1.11-6.8,2.09c-1.51.44-3,.85-4.57,1.24a176,176,0,0,1-28.67,4.88,82.56,82.56,0,0,1-12.18.27c-1.54-.1-3.07-.24-4.57-.48a29.64,29.64,0,0,1-13.77-5.34,26.27,26.27,0,0,1-7.15-8.9,38,38,0,0,1-3.69-10.71c-.1-.51-.18-1-.25-1.53-.12-.87-.22-1.75-.28-2.63a36.67,36.67,0,0,1,1.71-13.91c1.63-5,4.36-9.86,5.56-14.93.05-.22.09-.43.14-.64A23,23,0,0,0,25,76.49c.62-6.23-1.73-12.3-3.57-18.4-.07-.21-.13-.42-.19-.63-.2-.68-.39-1.36-.57-2A41,41,0,0,1,20,35.67c0-.22.1-.43.16-.64a28.58,28.58,0,0,1,5.6-11.15A44.18,44.18,0,0,1,36.29,15q2.91-1.86,6-3.46,2.24-1.16,4.57-2.19A92.48,92.48,0,0,1,87.76,1.72c.74,0,1.48.07,2.23.13L92.32,2A172.52,172.52,0,0,1,119,7.21l8.81,2.3,3.92,1c6.39,1.6,12.88,3.06,19.45,4.14,1.53.25,3.05.49,4.57.7a135.71,135.71,0,0,0,16,1.31c2.08,0,4.16,0,6.25-.05,1.05,0,2.1-.09,3.15-.17C192,15.7,202.52,13.21,213,10.89c1.52-.34,3-.67,4.57-1,2-.43,4-.85,6-1.23A58.55,58.55,0,0,1,259,12.58c2.65,1.12,5.29,2.47,6.91,4.57s2,4.68,2.33,7.17c.43,3.54.71,7.13.81,10.74,0,.22,0,.43,0,.64A93.55,93.55,0,0,1,267.1,57.48Z"/><path class="cls-1" d="M184,78.84h-.82v.64h.93Zm-9.27,0v0c0,.17-.05.35-.07.52v.1h7.08v0l.5-.6Zm-19,0V58.12h8.16l-.27-.17-.12-.07-.15-.1a2.44,2.44,0,0,0-.28-.14l-.23-.13,0,0h-7.06V56.34l-.19.07-.2.1h0l-.05,0-.12.06-.13.07a3.47,3.47,0,0,0-.37.21l-.12.08-.25.15c-.32.21-.63.42-1,.62a1.58,1.58,0,0,1-.24.15c-.18.1-.36.2-.55.29l-.24.1-.14.05-.12,0h0a6.84,6.84,0,0,1-.89.23V78.83H139a.15.15,0,0,0,0,.07c.06.19.13.38.2.58h12v22.21h.41l.38,0,.63.07.28,0,.31,0h0l.55.07h.11l.27,0,.38,0h0l.91,0h0l.12,0a.8.8,0,0,1,.15,0V79.48h18.92v-.1c0-.17.05-.35.07-.52v0Zm28.27,0h-.82v.64h.93Zm-9.78,0-.09.64h7.9l.54-.64Zm-18.49,0V58.12h8.16l-.27-.17-.12-.07-.15-.1a2.44,2.44,0,0,0-.28-.14l-.23-.13,0,0h-7.06V56.34l-.19.07-.2.1h0l-.05,0-.12.06-.13.07a3.47,3.47,0,0,0-.37.21l-.12.08-.25.15c-.32.21-.63.42-1,.62a1.58,1.58,0,0,1-.24.15c-.18.1-.36.2-.55.29l-.24.1-.14.05-.12,0h0a6.84,6.84,0,0,1-.89.23V78.83H139a.15.15,0,0,0,0,.07c.06.19.13.38.2.58h12v22.2h.19l.22,0,.38,0,.63.07.28,0,.31,0h0l.55.07h.11l.27,0,.38,0h0l.91,0h0l.12,0a.8.8,0,0,1,.15,0V79.48h18.42l.09-.64Zm61.84-43.15H269c0-.22,0-.43,0-.64H217.61V9.89c-1.53.32-3.05.65-4.57,1V35.05H157.12l-.14-.13.22-.18h0L178,16.61q-3.12.11-6.24.05l-16,13.93V15.35c-1.53-.21-3.05-.45-4.57-.7V29.89L127.84,9.51,119,7.21,150.8,34.92l-.14.13H92.33v-33q-1.17-.1-2.34-.18c-.74-.05-1.48-.09-2.23-.12v33.3H46.89V9.38c-1.54.69-3.07,1.42-4.57,2.19V35.05H20.12c-.06.21-.12.42-.16.64H42.32V57.48H21.19c.06.21.12.42.19.64H42.32V78.84H24.59c-.05.21-.09.43-.14.64H42.32v57.94c1.49.22,3,.38,4.57.48V79.48H87.76v53.27c1.53-.39,3-.8,4.57-1.24v-52H151.2V126a38.89,38.89,0,0,0,4.53-1.25h0V79.48H213v21.83l4.57-.62V79.48h40.72l.39-.64H217.61V58.12H267c.05-.22.09-.43.14-.64H217.61Zm-170.72,0H87.76V57.48H46.89Zm0,43.15V58.12H87.76V78.84ZM92.33,35.69H151.2V57.48H92.33Zm0,43.15V58.12H151.2V78.84Zm120.71,0H155.77V58.12H213Zm0-21.36H155.77V36.27l.81-.58H213ZM174.77,78.84v0c0,.17-.05.35-.07.52v.1h7.08v0l.5-.6Zm9.27,0h-.82v.64h.93Zm-28.27,0V58.12h8.16l-.27-.17-.12-.07-.15-.1a2.44,2.44,0,0,0-.28-.14l-.23-.13,0,0h-7.06V56.34l-.19.07-.2.1h0l-.05,0-.12.06-.13.07a3.47,3.47,0,0,0-.37.21l-.12.08-.25.15c-.32.21-.63.42-1,.62a1.58,1.58,0,0,1-.24.15c-.18.1-.36.2-.55.29l-.24.1-.14.05-.12,0h0a6.84,6.84,0,0,1-.89.23V78.83H139a.15.15,0,0,0,0,.07c.06.19.13.38.2.58h12v22.21h.41l.38,0,.63.07.28,0,.31,0h0l.55.07h.11l.27,0,.38,0h0l.91,0h0l.12,0a.8.8,0,0,1,.15,0V79.48h18.92v-.1c0-.17.05-.35.07-.52v0Z"/><path class="cls-1" d="M66.54,20.69h.35a.73.73,0,0,1-.43-.56h0c0-.45.68-.81,1.51-.81h10.6c.83,0,1.51.36,1.51.81h0c0,.44-.68.8-1.51.8h-.35a.7.7,0,0,1,.43.56c0,.37-.5.69-1.16.78h3.05c.83,0,1.51.36,1.51.8s-.68.8-1.51.8H69.94c-.83,0-1.51-.36-1.51-.8s.5-.69,1.16-.78h-3c-.83,0-1.51-.36-1.51-.8S65.71,20.69,66.54,20.69Z"/><path class="cls-1" d="M181.38,28.33h.35a.73.73,0,0,1-.43-.56h0c0-.45.68-.81,1.51-.81h10.6c.83,0,1.51.36,1.51.81h0c0,.44-.68.8-1.51.8h-.35a.7.7,0,0,1,.43.56c0,.37-.5.69-1.16.78h3c.83,0,1.51.36,1.51.8s-.68.8-1.51.8H184.79c-.84,0-1.52-.36-1.52-.8s.5-.7,1.16-.78h-3.05c-.83,0-1.51-.36-1.51-.8S180.55,28.33,181.38,28.33Z"/><path class="cls-1" d="M50.28,61h.35a.69.69,0,0,1-.43-.56h0c0-.44.68-.8,1.51-.8h10.6c.83,0,1.51.36,1.51.8h0c0,.44-.68.8-1.51.8H62a.69.69,0,0,1,.43.56c0,.38-.49.7-1.15.78h3.05c.83,0,1.51.36,1.51.8s-.68.81-1.51.81H53.69c-.83,0-1.51-.36-1.51-.81s.49-.69,1.16-.77H50.28c-.84,0-1.52-.37-1.52-.81S49.45,61,50.28,61Z"/><ellipse class="cls-1" cx="197.89" cy="136.42" rx="15.64" ry="52.91" transform="translate(25.77 304.19) rotate(-78.85)"/><path class="cls-2" d="M191.91,92.56s2.81-13.43,13.57-12.18c0,0,7.44.49,9,5.22V96Z"/><polygon class="cls-3" points="250.82 97.53 155.03 89.82 142.73 92.31 143.5 108.96 144.34 109.06 145.29 134.07 239.29 150.47 249.28 142.27 249.28 115.16 250.56 114.43 250.82 97.53"/><polygon class="cls-4" points="250.94 97.53 250.69 114.43 240.31 119.15 240.19 101.5 250.94 97.53"/><polygon class="cls-4" points="249.28 115.17 249.41 141.77 239.42 149.97 240.06 119.15 249.28 115.17"/><polygon class="cls-4" points="144.47 110.06 240.14 121.38 240.19 119.23 144.4 109.21 144.47 110.06"/><polygon class="cls-4" points="249.28 116.15 249.28 115.17 239.8 119.23 239.8 121.39 249.28 116.15"/><polygon class="cls-5" points="142.6 92.31 154.9 89.82 250.69 97.53 239.93 101.5 142.6 92.31"/><polygon class="cls-6" points="240.48 98.01 245.18 98.31 237.39 100.57 233.43 100.29 240.48 98.01"/><polygon class="cls-7" points="240.48 97.81 245.18 98.11 237.39 100.37 233.43 100.09 240.48 97.81"/><path class="cls-8" d="M239.92,98.32c.19-.08.38.07.58.11s.23,0,.35,0,.45.18.67.1"/><path class="cls-8" d="M239.68,98.46c.18-.08.38.06.58.1s.23,0,.34,0,.46.18.68.11"/><path class="cls-8" d="M239.12,98.73c.18-.08.38.07.58.1s.23,0,.34,0,.46.18.68.1"/><polygon class="cls-6" points="220.16 95.76 224.87 96.06 217.07 98.33 213.11 98.05 220.16 95.76"/><polygon class="cls-7" points="220.16 95.56 224.87 95.86 217.07 98.13 213.11 97.85 220.16 95.56"/><path class="cls-8" d="M219.6,96.08c.19-.08.38.06.58.1s.23,0,.35,0,.45.18.67.11"/><path class="cls-8" d="M219.36,96.21c.18-.07.38.07.58.11s.23,0,.34,0,.46.18.68.1"/><path class="cls-8" d="M218.8,96.49c.18-.08.38.06.58.1s.23,0,.34,0,.46.18.68.11"/><polygon class="cls-6" points="229.91 96.88 234.61 97.18 226.82 99.45 222.85 99.17 229.91 96.88"/><polygon class="cls-7" points="229.91 96.69 234.61 96.98 226.82 99.25 222.85 98.97 229.91 96.69"/><path class="cls-8" d="M229.35,97.2c.18-.08.38.07.58.1s.23,0,.34,0,.46.18.68.11"/><path class="cls-8" d="M229.1,97.33c.19-.07.39.07.59.11s.22,0,.34,0,.46.18.68.1"/><path class="cls-8" d="M228.55,97.61c.18-.08.38.07.58.1s.23,0,.34,0,.46.18.68.11"/><ellipse class="cls-1" cx="123.48" cy="180.29" rx="50.17" ry="10.02"/><path class="cls-9" d="M178.43,98.21a31.93,31.93,0,0,0-2.66-8.92l.16-1.54s0-.77,0-1.93a8.1,8.1,0,0,1,.29-2.13,4.36,4.36,0,0,0-.65-3.13c-.11-.15.05-3.08-.93-4.51s-7.48-4.11-7.48-4.11-.34-.71-.84-1.53l.05-.09a9.36,9.36,0,0,0-1.49-1.94c-.4-.42-.78-.65-1.09-.54a8.65,8.65,0,0,1-.29-1.22l.2,0a2,2,0,0,0,.81,0,2.4,2.4,0,0,0,1.35-1.16,18.11,18.11,0,0,0,3.42-8.12,5,5,0,0,0-.09-1.8,6.09,6.09,0,0,0-.58-1.31A10.45,10.45,0,0,0,167,52a9.48,9.48,0,0,0-4.4-2.33,15.68,15.68,0,0,0-5.67-.41c-.5.05-1,.13-1.49.16a14.72,14.72,0,0,1-1.88,0l-3.25-.18v-.05l-.54,0a1.28,1.28,0,0,0,.26,1.28,2.17,2.17,0,0,1,.55,1.24,2.49,2.49,0,0,1-.63,1.21,1.14,1.14,0,0,0-.2,1.25.58.58,0,0,0,.13.14,1.67,1.67,0,0,0,1.2.31h.07a7.68,7.68,0,0,0-1.64,4.74A7.94,7.94,0,0,0,154,66.33c.05.16.09.32.14.48a14.28,14.28,0,0,1,.52,5.2l-.06.12,0-.13s-3.82,2.52-5,3.18a7,7,0,0,0-2.33,3.54c0,.62-1.84,9.9-1.84,9.9a21.18,21.18,0,0,0-.9,2.87l-2.28,2a36,36,0,0,1-6.07.1l0,.25a22.5,22.5,0,0,0-3.66-.48,4,4,0,0,0-2,.26l0,0,0,0a8,8,0,0,0-2.08.57l-.22.09,0-.31-5.1-.26-2.6-.51s-.92-.72-1.46-.62-1.68-.61-1.68-.61a4.83,4.83,0,0,0-.84-.51c-.09-.58-.14-.93-.14-.93s-2-7.8-3.54-12.38a10.55,10.55,0,0,0-3.35-5.23l-.63-1.07A4.85,4.85,0,0,0,107.52,70c0-.06-.07-.08-.08-.08a.26.26,0,0,0-.15,0,15,15,0,0,1,0-6.89,7.52,7.52,0,0,0,2.86-5.86V57a7.4,7.4,0,0,0-1.84-4.88l-.09-.1a.18.18,0,0,0,.07-.05,1.27,1.27,0,0,0,.47-1.24,9.62,9.62,0,0,0-.68-1.26,9.17,9.17,0,0,1-.27-1,3.29,3.29,0,0,0-.78-1.32l0,.1a4.78,4.78,0,0,0-4.14-1.35c-1.12.17-2.16.67-3.28.83-.81.11-1.63,0-2.44.12a6.5,6.5,0,0,0-2.16.6,1.39,1.39,0,0,0-.46.33,1.93,1.93,0,0,0-.23.62,8.09,8.09,0,0,1-1.77,2.48A5.66,5.66,0,0,0,91.36,54a2.4,2.4,0,0,0,.08.88,5,5,0,0,1,.18.5,3.4,3.4,0,0,1-.3,1.58,3,3,0,0,0,.18,2c1,2.12,4.19,2.83,4.86,5.06a6.37,6.37,0,0,0,1.61.48c0,.23.08.45.11.68l0,0A4.66,4.66,0,0,0,97,67.64l-.11.09c-.35.28-1.56,1.23-2.66,2-1.3.87-3.47,3.79-5,4.67s-2.77,6.25-2.44,8.2S88.45,90,87.91,92s.81,11.13.81,11.13a14.46,14.46,0,0,1,2.66.77l0,.4-.08,1.2s-2.46,8.62-1.52,15.25-.43,7.32-.43,7.32.28,2.94-.44,4a8.3,8.3,0,0,0-.86,3.28s-.08,5.06.07,6.5.21,4-.29,4.65a17.29,17.29,0,0,0-1.38,5.88c.08,1.23-1.8,4-.79,7.66s-3,3.69-3,3.69.5,5.53,1.59,7.12l.16.22-.09.29c-.41,1.45-1,3.72-.58,4.27.58.83.87.69.87.69l.21,3.69s4.34,3.56,7.67,3.42S95.16,180,95.16,180l-2.83-7.13-.1-.24,3.15-5.77s.86-2.53,1.08-3.42,1.39-4,1.39-4,3-6.84,3-7.66.29-5.27.87-6.16a57,57,0,0,0,2.16-6l0,0a2,2,0,0,1,.54,2,15.79,15.79,0,0,0-.14,4,26.74,26.74,0,0,1-.44,3.42c-.29,1.16-.36,10.67.15,12.92a35.91,35.91,0,0,1,.37,6.47c-.34,1.36-.63,3.05-.08,3.25.94.34,5.71.27,5.71.27s2-.68,4.77,1.71,11.2-.68,11.2-.68,2.6-.69-2.53-2.67a43.59,43.59,0,0,1-7.4-3.29c0-.06.07-.13.1-.2s-2.1-1.92-.36-5.33a14.56,14.56,0,0,0,1.66-6.3l.29-11.49-.87-15.25-.67-16,.12,0c.11,2.94.71,10,3.81,8.59,3.9-1.71.57-6.16.57-6.16L119,111.48l.53-.17-2-6.15a13.31,13.31,0,0,1-.08-3.62,15,15,0,0,0,0-2.12,38.5,38.5,0,0,1,5.46-.79c.52.12,3.43.14,4.58.15-.37.28-.67.56-.67.56l4.66,3s1.58-.84,1.91-1.73a2.19,2.19,0,0,0,.87-.45c0,1.05.34,2.19,1.34,2.21a1.67,1.67,0,0,0,.73-.14l7.62-1.46-.66,4,.46.79c-.23,3.35-.5,6.9-.73,10l-.1.68,0,0c-.36,4.81-.65,8.45-.65,8.45a4.49,4.49,0,0,1,1.9-1.86l.05,7.14s.38,11.29.38,12.83.05,5,.05,5,.82,4.21,1.3,5.59.87,7.7.87,7.7,1.14,1.74.65,2.4,1.9,2.11,1.9,2.11A8.94,8.94,0,0,0,147.8,169c0,.15.15.32.43.48l-.28.21a5.08,5.08,0,0,1-3.29.64c-4.23-.36-7.21,3.44-4.61,4.21s10.41.92,10.41.92,2.36-1.43,4.21-.78c0,1.5.05,2.88.06,3.06l0,0a17.09,17.09,0,0,1-5.29,3.29c-3,1-3.63,4.93.22,5.44s9.48-.61,9.48-.61a17.62,17.62,0,0,1,5.15-2.57c2.23-.46,4.12-1.49,3.74-2.72l-1.31-4.23c0-.08,0-.16-.08-.24s.14-.29.2-.45c0,0-1.14-5.74-.22-7.18s.44-15.8.44-15.8-1.58-3.64-.76-5.85-1.3-5.33-1.3-5.33a94.37,94.37,0,0,1,.85-9.77c0-.15,0-.3.08-.44a19.91,19.91,0,0,0,3-1.13s.55-7.9.87-9.7c0-.16.08-.44.13-.79l.25-1.27h0l.29-1.44h0l1-4.92,1.79-2.24,4.61-4.57S179,102.77,178.43,98.21ZM107.35,70l0,0s0,0,0-.06Zm45.54,5.6-.18.38.65-.63-.88,1,.29-.6Zm-4.4,8.83c-.18.44-.36.91-.55,1.41l.35-1Z"/><path class="cls-10" d="M134.26,98.81s-.6,3.92,1.22,4,3-3,3-3l-.75-2.46Z"/><path class="cls-11" d="M134.26,98.81s-.6,3.92,1.22,4,3-3,3-3l-.75-2.46Z"/><path class="cls-12" d="M93.47,183.7c-3.24.14-7.47-3.41-7.47-3.41l-.21-3.69s-.28.13-.84-.69c-.38-.55.16-2.83.56-4.27.19-.7.35-1.2.35-1.2L93,172.29l.34.87,2.76,7.12S96.71,183.57,93.47,183.7Z"/><path class="cls-12" d="M126.15,173.25s-8.24,3.07-10.91.68-4.65-1.71-4.65-1.71-4.64.07-5.56-.27c-.54-.2-.25-1.91.09-3.27.23-.94.47-1.72.47-1.72s8.1-2.67,9.37-1a5.94,5.94,0,0,0,1.35,1.25c1.47,1,3.76,2,7.39,3.4C128.68,172.56,126.15,173.25,126.15,173.25Z"/><path class="cls-13" d="M118.75,110.77l2.25,4.38s3.25,4.44-.56,6.15-3.73-9.84-3.73-9.84Z"/><path class="cls-14" d="M109.31,72.84s2.47,1.1,4,5.67,3.45,12.38,3.45,12.38,1.34,8.81,1.13,11a13.3,13.3,0,0,0,.07,3.62l1.9,6.15L116,113l-5.84-21.73Z"/><path class="cls-4" d="M109.31,72.84s2.47,1.1,4,5.67,3.45,12.38,3.45,12.38,1.34,8.81,1.13,11a13.3,13.3,0,0,0,.07,3.62l1.9,6.15L116,113l-5.84-21.73Z"/><path class="cls-6" d="M93,172.29l.34.87-.41.78c-1.62.68-5.64.13-5.64.13s-.74-.91-1.76-2.42c.2-.7.35-1.2.35-1.2Z"/><path class="cls-6" d="M116.57,167.51c-2,4.51-9,2.84-11,2.27a4.93,4.93,0,0,1-.49-.16s0-.36,0-.94c.23-.94.48-1.72.48-1.72s8.1-2.67,9.37-1a5.74,5.74,0,0,0,1.35,1.25A1.64,1.64,0,0,0,116.57,167.51Z"/><path class="cls-15" d="M116.21,161.77c-1.69,3.41.36,5.33.36,5.33-2,4.51-9,2.84-11,2.27l-.49-.15a40.05,40.05,0,0,0-.36-7c-.49-2.25-.42-11.75-.14-12.91a25.43,25.43,0,0,0,.42-3.42,16,16,0,0,1,.15-4,2,2,0,0,0-.53-2l0,0a56.32,56.32,0,0,1-2.11,6c-.57.89-.77,5.33-.85,6.16s-3,7.65-3,7.65-1.13,3.14-1.34,4-1.06,3.42-1.06,3.42l-3.39,6.36c-1.62.68-5.64.14-5.64.14s-.77-1-1.83-2.53S83.88,164,83.88,164s3.88-.07,2.89-3.69.84-6.43.77-7.66a18,18,0,0,1,1.34-5.87c.5-.62.42-3.22.28-4.65s-.07-6.5-.07-6.5a8.41,8.41,0,0,1,.85-3.28c.7-1,.42-4,.42-4s1.34-.68.42-7.31,1.49-15.25,1.49-15.25l.08-1.2.13-2s20.14-1.23,21.76.28a4.83,4.83,0,0,1,1,1.43,13.75,13.75,0,0,1,1.17,3.63l.84,20.71.85,15.25-.28,11.48A14.87,14.87,0,0,1,116.21,161.77Z"/><path class="cls-6" d="M110.24,120.89l-2.11,44.43-2.54,4.05a4.93,4.93,0,0,1-.49-.16,39.92,39.92,0,0,0-.36-7c-.49-2.26-.42-11.76-.14-12.92a25.25,25.25,0,0,0,.42-3.42,15.88,15.88,0,0,1,.15-4,2,2,0,0,0-.53-2l0-.25Z"/><path class="cls-6" d="M87.48,168.6s5.49-2.12,6.34-1.44-6.48,1.7-6.48,1.7Z"/><path class="cls-6" d="M114.6,163c-.21.07-5.57,1.93-5.07,3.9S114.6,163,114.6,163Z"/><path class="cls-13" d="M97.87,61.87s1.79,4.21.85,6.36S109,74.07,109,74.07s-3.27-8.2-.1-12.81S97.87,61.87,97.87,61.87Z"/><path class="cls-16" d="M163.42,183.57a17,17,0,0,0-5,2.56s-5.5,1.13-9.25.62-3.12-4.46-.21-5.44a16.81,16.81,0,0,0,5.16-3.29c.47-.42.75-.72.75-.72l10.52-2.05.41,1.36,1.28,4.23C167.44,182.08,165.59,183.11,163.42,183.57Z"/><path class="cls-16" d="M160.73,175.67s-4.44.46-6.29-.56-4.49.62-4.49.62-7.6-.16-10.14-.93.37-4.57,4.49-4.2a4.82,4.82,0,0,0,3.2-.65,3.25,3.25,0,0,0,1.4-2l8.92.52,1.24,3.06Z"/><path class="cls-6" d="M159.2,172.9s-10.37-1.64-11.7-3a3.25,3.25,0,0,0,1.4-2l8.92.52,1.24,3.06Z"/><path class="cls-17" d="M143.82,115.34l.11,15s.37,11.28.37,12.81,0,5,0,5,.8,4.21,1.27,5.59.85,7.7.85,7.7,1.11,1.74.63,2.4,1.85,2.11,1.85,2.11a8.78,8.78,0,0,0-1.58,3.33c-.1,1.33,11.83,3.22,11.83,3.22l-4.65-46.23-3.7-11.59Z"/><path class="cls-6" d="M143.82,115.34l.11,15s.37,11.28.37,12.81,0,5,0,5,.8,4.21,1.27,5.59.85,7.7.85,7.7,1.11,1.74.63,2.4,1.85,2.11,1.85,2.11a8.78,8.78,0,0,0-1.58,3.33c-.1,1.33,11.83,3.22,11.83,3.22l-4.65-46.23-3.7-11.59Z"/><path class="cls-6" d="M165.79,176.62c-3.45,8-11.66,1.82-11.66,1.82s0-.15,0-.42c.47-.42.75-.72.75-.72l10.52-2.05S165.55,175.83,165.79,176.62Z"/><path class="cls-17" d="M165.91,175.93c-3.39,8.42-11.78,2.1-11.78,2.1a28.45,28.45,0,0,1,.26-6.35c.53-2-.58-8-.58-8s-.64-5.33-1.22-6.56a11.31,11.31,0,0,1-.52-3.9,7.16,7.16,0,0,0-.27-3,19.9,19.9,0,0,1-.74-3.9,39.58,39.58,0,0,0-.48-6.2l-1.64-7.94L146,116l.92-.15L163.47,113s3.12,15.39,2.06,17a6.41,6.41,0,0,0-.6,2.08c-.6,3.49-.83,9.76-.83,9.76s2.06,3.12,1.27,5.33.75,5.84.75,5.84.47,14.36-.43,15.79S165.91,175.93,165.91,175.93Z"/><path class="cls-18" d="M164.32,71s-15,10.25-11.62,5.12c1.82-2.76,1.49-6.28.77-8.93A20.67,20.67,0,0,0,152,63.27S164.73,58,163,62.73a8.66,8.66,0,0,0-.49,3.42A8.94,8.94,0,0,0,164.32,71Z"/><path class="cls-18" d="M137.31,94.47s-6.34-1.77-7.39,0,.31,5.57,2.23,6.19,6.3-2.09,6.3-2.09Z"/><path class="cls-10" d="M144.57,91.45l-2.65,2.36a34.14,34.14,0,0,1-5.91.1s1.21,7.9-.53,8.87l10.67-2.1Z"/><path class="cls-6" d="M144.57,91.45l-2.65,2.36a34.14,34.14,0,0,1-5.91.1s1.21,7.9-.53,8.87l10.67-2.1Z"/><path class="cls-6" d="M110.65,57.57a7.81,7.81,0,0,1-7.93,7.69c-4.07-1.9-7.93-3.44-7.93-7.69A7.93,7.93,0,0,1,110.64,57c0,.2,0,.4,0,.61Z"/><path class="cls-13" d="M110.65,57.36a7.92,7.92,0,1,1-7.92-7.68,8,8,0,0,1,6.13,2.81A7.56,7.56,0,0,1,110.65,57.36Z"/><path class="cls-6" d="M115.27,104.41a17.06,17.06,0,0,1-2.45,1.24s-4-.57-4.6.1-5.7.92-5.7.92-7.81-.35-9-1.33a5,5,0,0,0-1.18-.68l.13-2s20.14-1.23,21.76.27A5.12,5.12,0,0,1,115.27,104.41Z"/><path class="cls-14" d="M116.25,103c-.16.87-3.43,2.2-3.43,2.2s-4-.56-4.6.1-5.7.93-5.7.93-7.81-.37-9-1.34a10.31,10.31,0,0,0-3.75-1.44S88.47,94.36,89,92.37s-.79-7.49-1.11-9.44.9-7.33,2.38-8.2,3.59-3.79,4.86-4.66c1.07-.74,2.24-1.69,2.59-2l.1-.09a4.74,4.74,0,0,1,1.06-2.4c.84-.82,8.61,5.18,8.61,5.18s.05.46.58-.41c.12-.2,1.14,1.24,1.32,1.84,0,0,4.23,7.18,4.49,8.66s1.37,6.31,1.58,7.48c.06.31.15,1.37.25,2.79,0,.28,0,.58.06.89.16,2.36.33,5.37.43,7.65,0,.26,0,.51,0,.75A25.06,25.06,0,0,1,116.25,103Z"/><path class="cls-6" d="M89.43,84.53S92.33,88,93.28,88,89.43,84.53,89.43,84.53Z"/><path class="cls-6" d="M95.55,91.91s-4.76,5-4.12,6S95.55,91.91,95.55,91.91Z"/><path class="cls-6" d="M92.06,101.91s5.45-5.8,5.7-7.79Z"/><path class="cls-6" d="M98.93,102.32s6.28-3.23,6.81-5.8S98.93,102.32,98.93,102.32Z"/><path class="cls-6" d="M106.9,71.15l-.87,2,1.45.67,1.43,3.87s3.93,7.63,3.78,11.61a68.31,68.31,0,0,0,.71,9.94l2.27-.41L114.6,87.2A16.58,16.58,0,0,0,113.22,82c-1.82-4-5.19-11.47-5.41-11.47s-.08.11-.08.11Z"/><path class="cls-19" d="M107.11,70.94,106.24,73l1.46.66,1.42,3.87s3.94,7.64,3.78,11.61a68.36,68.36,0,0,0,.71,10l2.27-.41L114.81,87a16.19,16.19,0,0,0-1.38-5.24c-1.81-4-5.19-11.47-5.4-11.47s-.09.1-.09.1Z"/><path class="cls-13" d="M132.84,101.07A20,20,0,0,1,128,99.15l-.45-.24.06-4a8.52,8.52,0,0,1,.8-.4c1.41-.6,4.3-1.41,5.75,1.2C136.14,99.24,134.24,101.16,132.84,101.07Z"/><path class="cls-6" d="M108.86,52.49a1.31,1.31,0,0,1-.37.15c-.92.2-2-.57-2.75-.08a1.87,1.87,0,0,0-.66,1.49c-.11,1-.23,1.91-.34,2.86a3.38,3.38,0,0,1-.22,1,2.59,2.59,0,0,1-2.43,1.26,1.53,1.53,0,0,1-1-.34c-.17-.17-.26-.41-.45-.56-1.24-1-1.61,1.46-1.28,2.17.52,1.14,2.39,2.25,1.6,3.71a1.46,1.46,0,0,1-.57.56,7.66,7.66,0,0,1-5.2-9.65,8,8,0,0,1,13.72-2.56Z"/><path class="cls-20" d="M100.38,58.25c.19.15.28.39.45.56a1.47,1.47,0,0,0,1,.33,2.56,2.56,0,0,0,2.43-1.25,3.38,3.38,0,0,0,.22-1l.34-2.87a1.89,1.89,0,0,1,.65-1.48c.79-.48,1.84.27,2.76.08a1.31,1.31,0,0,0,1-1.51,8.43,8.43,0,0,0-.66-1.26,9,9,0,0,1-.27-1c-.51-1.87-2.77-2.92-4.73-2.61-1.09.18-2.1.69-3.19.84-.79.11-1.59,0-2.38.12a6.11,6.11,0,0,0-2.1.6,1.25,1.25,0,0,0-.45.33,1.7,1.7,0,0,0-.22.62,8.28,8.28,0,0,1-1.74,2.48,5.82,5.82,0,0,0-1.17,3.2,2.4,2.4,0,0,0,.08.88c0,.16.13.33.17.5a3.29,3.29,0,0,1-.29,1.58,3,3,0,0,0,.18,2c1,2.13,4.08,2.84,4.73,5.07a5.38,5.38,0,0,0,1.85.48,1.79,1.79,0,0,0,1.62-.81c.78-1.44-1.08-2.56-1.61-3.71C98.76,59.71,99.13,57.24,100.38,58.25Z"/><path class="cls-6" d="M163.05,62.73a8.66,8.66,0,0,0-.49,3.42c-.38.32-.8-.63-1.24-.38-1.21.67-2.61,2.29-4.1,2.29a8.48,8.48,0,0,1-3.74-.87A20.67,20.67,0,0,0,152,63.27S164.74,58,163.05,62.73Z"/><path class="cls-18" d="M165.45,59.65a8.25,8.25,0,1,1-8.24-8,8.12,8.12,0,0,1,8.24,8Z"/><path class="cls-21" d="M165.1,72.77s-1.56,1.64-1.77,1.78-4.7,18.52-4.78,18.73-5.36,16.81-5.36,16.81l-8.45,4,.71-20.3,6.19-16.74s2-2.25,2.68-3.07,8.52-5.75,8.52-5.75l1.35,2.7Z"/><path class="cls-6" d="M164,71.37l-9.72,6.75-.16-3.71c.64-.82,8.53-5.74,8.53-5.74Z"/><path class="cls-21" d="M164.19,71l-9.72,6.75-.15-3.7c.63-.83,8.52-5.75,8.52-5.75Z"/><path class="cls-10" d="M154,72.36l.33,1.65-2.17,2.14,1.73-3.77s-3.72,2.51-4.83,3.18a6.73,6.73,0,0,0-2.27,3.54c-.05.61-1.8,9.89-1.8,9.89s-1.32,3.43-.95,4.41-2,31.68-2,31.68a4.71,4.71,0,0,1,3.18-2.37l-.85-18.14s1-12.07,1.09-12.23l2.4-7.15Z"/><path class="cls-6" d="M154.53,74.21l-.17,3.37S152,84.78,151.22,86s-3.2,8.2-3.2,8.2l-1.35,12.2-2.33,1-1.14-2,1.9-11.78s3.59-10,4.12-11l2.65-5.42Z"/><path class="cls-22" d="M154.32,74l-.17,3.36s-2.35,7.2-3.14,8.38-3.2,8.21-3.2,8.21l-1.34,12.19-2.33,1L143,105.13l1.9-11.78s3.59-9.95,4.12-11L151.67,77Z"/><path class="cls-18" d="M126.92,99.7l4.54,3s3.21-1.74,1.34-2.87a8.53,8.53,0,0,0-4.12-1.3C128.08,98.58,126.92,99.7,126.92,99.7Z"/><path class="cls-18" d="M130.31,94.06a.66.66,0,0,0-.32.58c0,.94.1,3.41.91,2.29,1-1.36.81-2.59,2.33-1.71a8.82,8.82,0,0,1,2.42,2.17l-.42-2.94S132.12,93,130.31,94.06Z"/><path class="cls-6" d="M165.53,130a6.74,6.74,0,0,0-.59,2.08,18.31,18.31,0,0,1-16-3,76.6,76.6,0,0,1-2-8.2,26,26,0,0,1,0-5L163.48,113S166.59,128.36,165.53,130Z"/><path class="cls-10" d="M175,84.07a15.48,15.48,0,0,0-.26,4.05L171,105.55s-1.85,13.43-2.17,15.22-.84,9.69-.84,9.69a18.32,18.32,0,0,1-19.09-1.84,75,75,0,0,1-2-8.21c-.53-3,1-15.24,1.77-20.66.22-1.6.37-2.61.37-2.61l2.77-10s3.41-8.43,4.67-10.89,6.37-8,6.37-8c.63-.39,1.64,1,2.39,2.24.57,1,1,1.83,1,1.83s6.34,2.66,7.29,4.09.79,4.35.9,4.51A4.35,4.35,0,0,1,175,84.07Z"/><path class="cls-6" d="M160.1,77.86s.47,2.72-.75,3.54S149.41,98.92,148.87,100c.22-1.61.37-2.62.37-2.62l2.77-10s3.41-8.43,4.68-10.9,6.36-8,6.36-8c.63-.39,1.64,1,2.39,2.24C164.31,73,162,77.3,160.1,77.86Z"/><path class="cls-10" d="M159.88,77.66s.48,2.72-.74,3.54-9.94,17.51-10.49,18.55c.22-1.6.37-2.61.37-2.61l2.77-10s3.41-8.43,4.68-10.89,6.36-8,6.36-8c.64-.39,1.65,1,2.4,2.24C164.1,72.78,161.74,77.1,159.88,77.66Z"/><polygon class="cls-23" points="172.46 102.22 169.47 117.27 169.47 117.27 169.19 118.71 169.19 118.71 168.55 121.95 165.81 121.39 164.53 121.13 146.87 117.5 145.57 117.23 142.61 116.62 143.19 112.88 143.43 111.33 145.57 97.55 172.46 102.22"/><path class="cls-18" d="M156,114.52s-7,2.46-5.49,5.38,11.36-2.26,11.36-2.26Z"/><path class="cls-6" d="M161,135.48c0,.21.27,2.82,1.32,3.75S161,135.48,161,135.48Z"/><path class="cls-6" d="M153.91,144.76s1.27,3.38,6.29,4.77S153.91,144.76,153.91,144.76Z"/><path class="cls-6" d="M165.45,59.65a8,8,0,0,1-4.13,6.93,4,4,0,0,1-1.24-1,1.53,1.53,0,0,1-.43-1.5c.18-.41.64-.67.75-1.09a1.54,1.54,0,0,0,0-.77L160.09,61c-.08-.34-.21-.73-.56-.82s-.63.2-.9.41a2.91,2.91,0,0,1-2.73.43c-.79-.41-.57-1.81-.7-2.56a.44.44,0,0,0-.17-.34.88.88,0,0,0-.36,0,1,1,0,0,1-.9-.77,7.48,7.48,0,0,1-.14-1.24,1.36,1.36,0,0,0-.57-1.07,1.78,1.78,0,0,0-.94-.15l-1.55,0a8.39,8.39,0,0,1,11.52-1.68,8,8,0,0,1,3.35,6.42Z"/><path class="cls-22" d="M158.85,60.62c.27-.21.57-.48.9-.4s.48.48.56.81l.27,1.18a1.72,1.72,0,0,1,0,.78c-.13.42-.58.68-.76,1.09a1.52,1.52,0,0,0,.42,1.5,4.51,4.51,0,0,0,2.55,1.48,2,2,0,0,0,.8,0,2.31,2.31,0,0,0,1.31-1.15,18.42,18.42,0,0,0,3.33-8.12,5.13,5.13,0,0,0-.08-1.79,6.11,6.11,0,0,0-.57-1.31A10.28,10.28,0,0,0,166,52.36,9.13,9.13,0,0,0,161.75,50a15,15,0,0,0-5.53-.42c-.5,0-1,.13-1.46.16a16.14,16.14,0,0,1-1.84,0l-3.65-.22a1.37,1.37,0,0,0,.25,1.29,2.23,2.23,0,0,1,.54,1.24,2.48,2.48,0,0,1-.62,1.2,1.17,1.17,0,0,0-.19,1.26,1.41,1.41,0,0,0,1.24.39l1.84,0a1.85,1.85,0,0,1,.93.16,1.37,1.37,0,0,1,.57,1.07,7.36,7.36,0,0,0,.14,1.24,1,1,0,0,0,.9.77.73.73,0,0,1,.36,0,.4.4,0,0,1,.17.33c.13.76-.1,2.15.71,2.57A2.93,2.93,0,0,0,158.85,60.62Z"/><path class="cls-6" d="M169.33,76.41a4,4,0,0,0-4.25,2.64c-1,2.74-2.65,7.68-2.23,9.63.58,2.77,1.26,7.38,1.26,7.38s3,1.69,1.49,3.39a9.4,9.4,0,0,0-1.95,4.1,4.33,4.33,0,0,0-2.38,2.56c-.42,1.74-3.28,4.15-3.28,4.15l-4.27,4.16s7.07,7,8.5,7.33l4.38-5,5.18-6.66,4.49-4.57s1.06-2.41.53-7a32.72,32.72,0,0,0-2.59-8.92l.16-1.54S174.85,77.08,169.33,76.41Z"/><path class="cls-10" d="M169.75,76.41a4.06,4.06,0,0,0-4.25,2.64c-1,2.74-2.64,7.68-2.23,9.63.58,2.77,1.27,7.38,1.27,7.38s3,1.69,1.48,3.39a9.4,9.4,0,0,0-2,4.1,4.36,4.36,0,0,0-2.38,2.56c-.42,1.74-3.27,4.15-3.27,4.15l-4.28,4.16s7.08,7,8.5,7.33l4.39-5,5.16-6.66,4.49-4.57s1.06-2.41.53-7a32.72,32.72,0,0,0-2.59-8.92l.16-1.54S175.28,77.08,169.75,76.41Z"/><path class="cls-6" d="M165.32,92s4.49,5.33,6.4,4.16S165.32,92,165.32,92Z"/><path class="cls-6" d="M167,87.91c.48.16,4.39,5.44,6.4,4.81S167,87.91,167,87.91Z"/><path class="cls-6" d="M168.12,97a2.92,2.92,0,0,0,3.49,2.62C174.83,99.19,168.12,97,168.12,97Z"/><polygon class="cls-6" points="153.89 72.58 152.15 76.35 154.32 74.21 153.89 72.58"/><polygon class="cls-21" points="153.89 72.38 152.15 76.15 154.32 74 153.89 72.38"/><polygon class="cls-24" points="146.87 117.5 145.57 117.23 143.19 112.88 143.43 111.33 146.87 117.5"/><polygon class="cls-24" points="169.47 117.27 169.19 118.71 169.19 118.71 165.81 121.39 164.53 121.13 169.47 117.27"/><path class="cls-6" d="M116.22,100.45c-.65.11-1.29.2-1.87.28-3.22.41-10.88-3.28-10.88-3.28s-9.35-7.59-12-14.77,3.22-8.25,3.22-8.25c2.23-1.23,7.08,2.2,7.76,2.77a4.22,4.22,0,0,1,1.22,2.92c-.06.92,1.58,2.1,1.58,2.1s2.8,4.72,3.49,5.23a2.62,2.62,0,0,1,1,1.85c.22.87,2.06,1.59,2.86,1.53s1.73.26,1.73.67.78.49,1.41.55C115.94,94.67,116.13,98.12,116.22,100.45Z"/><path class="cls-6" d="M116.19,99.7l-1.42.21c-3.22.41-10.88-3.28-10.88-3.28s-9.35-7.59-12-14.77,3.22-8.25,3.22-8.25c2.23-1.23,7.08,2.2,7.76,2.77a4.22,4.22,0,0,1,1.22,2.92c0,.92,1.58,2.1,1.58,2.1s2.8,4.72,3.49,5.23a2.63,2.63,0,0,1,1.06,1.85c.21.87,2.06,1.58,2.85,1.53s1.74.26,1.74.67c0,.24.44.4.93.48,0,.28,0,.58.06.88C115.92,94.41,116.09,97.42,116.19,99.7Z"/><path class="cls-6" d="M128.44,94.54l-.2,4.61H128l-.45-.24.06-4A8.52,8.52,0,0,1,128.44,94.54Z"/><path class="cls-14" d="M94.65,74s-5.92,1.08-3.22,8.25,12,14.77,12,14.77,7.66,3.69,10.88,3.28,8.13-1.49,8.77-1.33,4.91.15,4.91.15l.21-4.81-5-.26-2.54-.51s-.9-.72-1.43-.61-1.63-.62-1.63-.62a3.2,3.2,0,0,0-1.49-.67c-.64,0-1.85-.15-1.85-.56s-.95-.72-1.73-.67-2.65-.66-2.87-1.54A2.65,2.65,0,0,0,108.69,87c-.68-.51-3.48-5.23-3.48-5.23s-1.64-1.18-1.59-2.1a4.25,4.25,0,0,0-1.21-2.92C101.72,76.22,96.86,72.79,94.65,74Z"/><path class="cls-6" d="M109.86,90.53s-2.27,2.2-1.69,2.61Z"/><path class="cls-6" d="M112.29,92.27s-3,2.2-2.17,2.36S112.29,92.27,112.29,92.27Z"/><path class="cls-6" d="M107.27,95.54c.42.21,6.71,3.85,9.09,3.79Z"/><path class="cls-6" d="M107.7,71.2s-1.11,3.54-1.54,3.54-5.91-4.38-8.23-6.23l.1-.08a4.75,4.75,0,0,1,1-2.4C99.93,65.21,107.7,71.2,107.7,71.2Z"/><path class="cls-14" d="M107.48,70.79s-1.11,3.54-1.53,3.54S100,70,97.71,68.1l.11-.08a4.75,4.75,0,0,1,1.05-2.4C99.72,64.8,107.48,70.79,107.48,70.79Z"/><g class="cls-25"><path d="M92.52,59.36h0c.75,1.64,2.79,2.44,4,3.76C95.79,61.5,93.73,60.71,92.52,59.36Z"/><path d="M100.1,63.15a1.81,1.81,0,0,1-1.63.81,4.89,4.89,0,0,1-1.63-.41,2.92,2.92,0,0,1,.42.87,5.4,5.4,0,0,0,1.85.49,1.79,1.79,0,0,0,1.62-.81c.48-.88,0-1.63-.59-2.34A1.52,1.52,0,0,1,100.1,63.15Z"/><path d="M109.29,51.1a7.17,7.17,0,0,0-.65-1.26,9.17,9.17,0,0,1-.27-1,3.13,3.13,0,0,0-.76-1.32c0,.12.09.24.13.36a7.57,7.57,0,0,0,.27,1,8,8,0,0,1,.66,1.26,1.31,1.31,0,0,1-1,1.5c-.92.2-2-.57-2.75-.08a1.86,1.86,0,0,0-.66,1.48c-.11,1-.23,1.92-.34,2.87a3.38,3.38,0,0,1-.22,1,2.58,2.58,0,0,1-2.43,1.26,1.53,1.53,0,0,1-1-.34c-.14-.19-.29-.38-.45-.56-1.24-1-1.61,1.46-1.29,2.17a4.77,4.77,0,0,0,.61.88c-.28-.79.11-3.08,1.32-2.1a6.12,6.12,0,0,1,.45.56,1.45,1.45,0,0,0,1,.33,2.58,2.58,0,0,0,2.44-1.25,3.37,3.37,0,0,0,.21-1c.12-1,.23-1.92.34-2.87a1.89,1.89,0,0,1,.66-1.48c.79-.49,1.83.27,2.75.08A1.3,1.3,0,0,0,109.29,51.1Z"/></g><path class="cls-6" d="M164.16,66.46a2,2,0,0,1-.8,0A4.44,4.44,0,0,1,160.81,65a1.52,1.52,0,0,1-.42-1.51c.17-.41.63-.66.74-1.08a1.58,1.58,0,0,0,0-.78l-.27-1.19c-.07-.33-.21-.73-.55-.81s-.63.2-.9.4a2.9,2.9,0,0,1-2.73.44c-.79-.42-.57-1.81-.7-2.56a.44.44,0,0,0-.17-.34.77.77,0,0,0-.37,0,1,1,0,0,1-.89-.77,5.75,5.75,0,0,1-.14-1.24,1.4,1.4,0,0,0-.58-1.07,1.85,1.85,0,0,0-.93-.15l-1.84,0c-.45,0-1,0-1.24-.4a1.17,1.17,0,0,1,.2-1.26,2.42,2.42,0,0,0,.61-1.2,2.23,2.23,0,0,0-.54-1.24,2.39,2.39,0,0,1-.31-.69l-.53,0a1.37,1.37,0,0,0,.25,1.29A2.23,2.23,0,0,1,150,52a2.63,2.63,0,0,1-.61,1.21,1.12,1.12,0,0,0-.2,1.25,1.39,1.39,0,0,0,1.24.4l1.84,0a1.75,1.75,0,0,1,.93.16,1.37,1.37,0,0,1,.58,1.07,5.82,5.82,0,0,0,.14,1.24,1,1,0,0,0,.9.77.73.73,0,0,1,.36,0,.47.47,0,0,1,.17.34c.13.75-.11,2.14.7,2.56a2.9,2.9,0,0,0,2.73-.43c.27-.21.57-.48.9-.41s.48.48.55.82l.27,1.18a1.48,1.48,0,0,1,0,.78c-.12.42-.58.68-.75,1.08a1.51,1.51,0,0,0,.42,1.51A4.5,4.5,0,0,0,162.78,67a1.76,1.76,0,0,0,.79,0,1.8,1.8,0,0,0,1-.76A1.17,1.17,0,0,1,164.16,66.46Z"/><ellipse class="cls-1" cx="50.47" cy="171.77" rx="5.99" ry="0.89"/><ellipse class="cls-1" cx="259.6" cy="148.58" rx="5.99" ry="0.89"/><ellipse class="cls-1" cx="198.54" cy="184.53" rx="17.35" ry="2.58"/><ellipse class="cls-1" cx="247.85" cy="173.59" rx="13.53" ry="2.02"/><ellipse class="cls-1" cx="245.62" cy="193.67" rx="22.94" ry="3.42"/><ellipse class="cls-1" cx="24.84" cy="196.67" rx="17.35" ry="2.58"/><path class="cls-23" d="M50.75,143.36s.68.86-.32,2.16-1.8,2.41-1.48,3.21c0,0,1.48-2.4,2.72-2.45S52.09,144.81,50.75,143.36Z"/><path class="cls-6" d="M50.75,143.36a1.15,1.15,0,0,1,.14.27c1.18,1.35,1.82,2.62.67,2.64s-2.33,1.88-2.64,2.35a.42.42,0,0,0,0,.1s1.48-2.4,2.72-2.45S52.09,144.81,50.75,143.36Z"/><path class="cls-26" d="M52,144.46c0,.3,0,.54-.08.54s-.08-.24-.08-.54,0-.16.09-.16S52,144.15,52,144.46Z"/><path class="cls-26" d="M52.44,144.82c-.27.14-.51.24-.53.19s.18-.18.46-.33.16,0,.18,0S52.72,144.67,52.44,144.82Z"/><path class="cls-23" d="M47.16,143.36s-.68.86.32,2.16,1.81,2.41,1.48,3.21c0,0-1.48-2.4-2.71-2.45S45.82,144.81,47.16,143.36Z"/><path class="cls-6" d="M47.16,143.36a1.15,1.15,0,0,0-.14.27c-1.18,1.35-1.82,2.62-.67,2.64s2.33,1.88,2.64,2.35l0,.1s-1.49-2.4-2.72-2.45S45.82,144.81,47.16,143.36Z"/><path class="cls-26" d="M45.9,144.46c0,.3,0,.54.08.54s.08-.24.08-.54-.05-.16-.09-.16S45.9,144.15,45.9,144.46Z"/><path class="cls-26" d="M45.47,144.82c.27.14.51.24.53.19s-.18-.18-.46-.33-.16,0-.18,0S45.19,144.67,45.47,144.82Z"/><ellipse class="cls-1" cx="48.96" cy="154.26" rx="7.09" ry="1.06"/><path class="cls-27" d="M52.61,147.57l0,.27,0,.38,0,.16,0,.38,0,.15,0,.38-.54,4.33c-.05.39-.7.69-1.49.69H47.55c-.78,0-1.43-.3-1.49-.69l-.54-4.33-.05-.38,0-.15-.05-.38,0-.16,0-.38,0-.27c0-.22.33-.4.77-.4h5.77C52.28,147.17,52.63,147.35,52.61,147.57Z"/><polygon class="cls-28" points="52.57 147.84 52.53 148.22 45.38 148.22 45.34 147.84 52.57 147.84"/><polygon class="cls-28" points="52.51 148.38 52.46 148.76 45.45 148.76 45.4 148.38 52.51 148.38"/><polygon class="cls-28" points="52.44 148.91 52.39 149.29 45.52 149.29 45.47 148.91 52.44 148.91"/><path class="cls-23" d="M254.88,140s-.85,3.83,2.92,4.28l.23-.43S255.11,141.22,254.88,140Z"/><path class="cls-23" d="M259.23,143.85l-.88.18-.08,0a7.58,7.58,0,0,1-2.31-6,10,10,0,0,0,1.11,1.71A10.18,10.18,0,0,1,259.23,143.85Z"/><path class="cls-23" d="M259.52,144.25a.59.59,0,0,1-.47.06c-2.25-.51-1.48-7.63-1.48-7.63s.24,1,.77,2.13C259.25,140.86,260.25,143.73,259.52,144.25Z"/><path class="cls-23" d="M264.51,140s.15,3.83-3.62,4.28l-.23-.43S264.28,141.22,264.51,140Z"/><path class="cls-23" d="M263.43,138.1a7,7,0,0,1-3,6l-.09,0-.88-.18a10.31,10.31,0,0,1,2.16-4A9.53,9.53,0,0,1,263.43,138.1Z"/><path class="cls-23" d="M260.32,143.88a1.38,1.38,0,0,1-.49.37h0a.6.6,0,0,1-.19.06c-.55.12-.74-.26-.71-.92a16.53,16.53,0,0,1,1.49-4.73,5.85,5.85,0,0,1,1.41-2S261.79,142.22,260.32,143.88Z"/><path class="cls-23" d="M259.7,134.18s-2.52,8.66-.35,10S260.25,135,259.7,134.18Z"/><path class="cls-6" d="M254.88,140s-.85,3.83,2.92,4.28l.23-.43S255.11,141.22,254.88,140Z"/><path class="cls-6" d="M259.23,143.85l-.88.18-.08,0a7.58,7.58,0,0,1-2.31-6,10,10,0,0,0,1.11,1.71A10.18,10.18,0,0,1,259.23,143.85Z"/><path class="cls-6" d="M259.52,144.25a.59.59,0,0,1-.47.06c-2.25-.51-1.48-7.63-1.48-7.63s.24,1,.77,2.13C259.25,140.86,260.25,143.73,259.52,144.25Z"/><path class="cls-6" d="M264.51,140s.15,3.83-3.62,4.28l-.23-.43S264.28,141.22,264.51,140Z"/><path class="cls-6" d="M263.43,138.1a7,7,0,0,1-3,6l-.09,0-.88-.18a10.31,10.31,0,0,1,2.16-4A9.53,9.53,0,0,1,263.43,138.1Z"/><path class="cls-6" d="M260.32,143.88a1.38,1.38,0,0,1-.49.37h0a.6.6,0,0,1-.19.06c-.55.12-.74-.26-.71-.92a16.53,16.53,0,0,1,1.49-4.73,5.85,5.85,0,0,1,1.41-2S261.79,142.22,260.32,143.88Z"/><path class="cls-6" d="M259.7,134.18s-2.52,8.66-.35,10S260.25,135,259.7,134.18Z"/><path class="cls-23" d="M254.88,140s-.5,3.83,3.27,4.28l.23-.43S255.11,141.22,254.88,140Z"/><path class="cls-23" d="M259.58,143.85l-.88.18-.09,0a7.26,7.26,0,0,1-2.66-6s.69.73,1.47,1.72A10.08,10.08,0,0,1,259.58,143.85Z"/><path class="cls-6" d="M259.58,143.85l-.88.18c-.83-.7-1.16-2.55-1.28-4.22A10.18,10.18,0,0,1,259.58,143.85Z"/><path class="cls-23" d="M259.88,144.25a.62.62,0,0,1-.48.06c-2.25-.51-1.84-7.63-1.84-7.63a9.63,9.63,0,0,1,1.13,2.13C259.6,140.86,260.6,143.73,259.88,144.25Z"/><path class="cls-23" d="M264.51,140s.5,3.83-3.27,4.28l-.23-.43S264.28,141.22,264.51,140Z"/><path class="cls-23" d="M263.43,138.1a7.24,7.24,0,0,1-2.65,6l-.09,0-.88-.18a10.31,10.31,0,0,1,2.16-4C262.75,138.83,263.43,138.1,263.43,138.1Z"/><path class="cls-6" d="M262,139.81c-.12,1.56-.41,3.27-1.12,4.06l-.16.16-.88-.18A10.18,10.18,0,0,1,262,139.81Z"/><path class="cls-23" d="M260.67,143.88a1.38,1.38,0,0,1-.49.37h0l-.19.06c-.55.12-.74-.26-.71-.92a16.53,16.53,0,0,1,1.49-4.73,9.18,9.18,0,0,1,1.06-2S262.14,142.22,260.67,143.88Z"/><path class="cls-6" d="M259.88,144.25a.64.64,0,0,1-.36-.11c-1.06-.64-1.08-3-.83-5.33C259.6,140.86,260.6,143.73,259.88,144.25Z"/><path class="cls-6" d="M260.67,143.88c-.12.25-.28.39-.49.37h0a.64.64,0,0,1-.3-.11,1.52,1.52,0,0,1-.6-.75,16.53,16.53,0,0,1,1.49-4.73C261,140.77,261.09,143,260.67,143.88Z"/><path class="cls-23" d="M259.7,134.18s-2.17,8.66,0,10S260.25,135,259.7,134.18Z"/><polygon class="cls-29" points="263.84 143.71 254.85 143.71 254.85 145.16 256.22 145.16 256.25 145.33 256.8 148.13 262.03 148.13 262.58 145.33 262.62 145.16 263.84 145.16 263.84 143.71"/><polygon class="cls-6" points="263.84 143.71 254.85 143.71 254.85 145.16 256.22 145.16 256.25 145.33 256.8 148.13 262.03 148.13 262.58 145.33 262.62 145.16 263.84 145.16 263.84 143.71"/><polygon class="cls-29" points="263.08 144.56 262.93 145.33 262.38 148.13 257.15 148.13 256.6 145.33 256.45 144.56 263.08 144.56"/><polygon class="cls-6" points="263.08 144.56 262.93 145.33 256.6 145.33 256.45 144.56 263.08 144.56"/><rect class="cls-29" x="255.2" y="143.71" width="9" height="1.45"/><path class="cls-23" d="M34.54,168.44a3.88,3.88,0,0,0-.56,1c0,.09-.07.19-.11.29l-.19-.07a3,3,0,0,0-.89-.07c0-.11,0-.24,0-.35,0-1.27-.12-3-1.36-2.29s-.35,1.93.42,2.69l.2.19c-.7.49-.84,1.62-.95,2.8a6.48,6.48,0,0,1-1.84,3.21l-.19.2a2.59,2.59,0,0,0-2-.49c0-.11-.06-.22-.09-.33-.55-1.94-1.7-5.31-3.17-6L24,169c.62-.79,1.33-2,.29-2.27s-1.13,1-1.08,2l0,.35a1.53,1.53,0,0,0-1.08.52l-.16-.19c-.85-1-2.39-2.49-2.86-1.34s.93,2.48,1.88,3.29l.06,0c-.64,2.53,2.16,4.59,3.67,5.49l.2.12c-2.08,2.38-3.37,6.84-3.37,6.84l5.83,1s3.86-3.24,3.37-6.27h0c3.86-.76,4.74-4.75,4.14-7.13l.07,0a4.41,4.41,0,0,0,1.79-1.31C37.92,168.66,35.66,167,34.54,168.44Z"/><path class="cls-6" d="M34.54,168.44a3.88,3.88,0,0,0-.56,1c0,.09-.07.19-.11.29l-.19-.07a3,3,0,0,0-.89-.07c0-.11,0-.24,0-.35,0-1.27-.12-3-1.36-2.29s-.35,1.93.42,2.69l.2.19c-.7.49-.84,1.62-.95,2.8a6.48,6.48,0,0,1-1.84,3.21l-.19.2a2.59,2.59,0,0,0-2-.49c0-.11-.06-.22-.09-.33-.55-1.94-1.7-5.31-3.17-6L24,169c.62-.79,1.33-2,.29-2.27s-1.13,1-1.08,2l0,.35a1.53,1.53,0,0,0-1.08.52l-.16-.19c-.85-1-2.39-2.49-2.86-1.34s.93,2.48,1.88,3.29l.06,0c-.64,2.53,2.16,4.59,3.67,5.49l.2.12c-2.08,2.38-3.37,6.84-3.37,6.84l5.83,1s3.86-3.24,3.37-6.27h0c3.86-.76,4.74-4.75,4.14-7.13l.07,0a4.41,4.41,0,0,0,1.79-1.31C37.92,168.66,35.66,167,34.54,168.44Z"/><path class="cls-23" d="M22.94,170.09,22.26,172s-.38-.26-.86-.67c-1-.81-2.32-2.21-1.88-3.28s2,.37,2.85,1.33C22.71,169.78,22.94,170.09,22.94,170.09Z"/><path class="cls-23" d="M24.38,169a8.09,8.09,0,0,1-.67.76,8.86,8.86,0,0,1-.12-1c-.06-1,.05-2.31,1.08-2S25,168.18,24.38,169Z"/><path class="cls-23" d="M33.18,169.28c0,.63-.09,1.14-.09,1.14a7.38,7.38,0,0,1-.85-.74c-.77-.77-1.62-2-.43-2.69S33.2,168,33.18,169.28Z"/><path class="cls-23" d="M37.19,170.11a4.34,4.34,0,0,1-1.79,1.31,3,3,0,0,1-.6.21l-.8-1.09a7.66,7.66,0,0,1,.33-1.06,4.22,4.22,0,0,1,.57-1C36,167,38.27,168.66,37.19,170.11Z"/><path class="cls-6" d="M22.37,169.39c.34.39.57.69.57.69L22.26,172s-.38-.26-.86-.67a3.76,3.76,0,0,1,.77-1.7Z"/><path class="cls-6" d="M24.38,169a8.09,8.09,0,0,1-.67.76,8.86,8.86,0,0,1-.12-1A1.49,1.49,0,0,1,24.38,169Z"/><path class="cls-23" d="M27.73,176.66l-1.7.72s-.37-.18-.9-.5c-1.78-1.06-5.36-3.74-3-6.89s4.4,2.5,5.2,5.27C27.6,176.1,27.73,176.66,27.73,176.66Z"/><path class="cls-6" d="M32.23,169.68a1.41,1.41,0,0,1,.94-.4c0,.63-.09,1.14-.09,1.14A7.38,7.38,0,0,1,32.23,169.68Z"/><path class="cls-6" d="M35.41,171.42a3.57,3.57,0,0,1-.6.21l-.8-1.09a6.51,6.51,0,0,1,.33-1.06A2.82,2.82,0,0,1,35.41,171.42Z"/><path class="cls-23" d="M31.2,178.57l-.29.05c-5.68.84-1.87-2.14-1.87-2.14l.6-.6a6.44,6.44,0,0,0,1.84-3.21c.17-1.78.38-3.46,2.55-3S36.58,177.52,31.2,178.57Z"/><rect class="cls-30" x="20.23" y="192.3" width="10.86" height="2.77"/><rect class="cls-30" x="18.51" y="183.3" width="14.18" height="9.67"/><rect class="cls-6" x="20.23" y="192.3" width="10.86" height="2.77"/><rect class="cls-6" x="18.51" y="183.3" width="14.18" height="9.67"/><rect class="cls-30" x="20.95" y="192.3" width="10.86" height="2.77"/><path class="cls-6" d="M27.36,175.26c.25.83.37,1.4.37,1.4l-1.7.72s-.37-.18-.9-.5A4.35,4.35,0,0,1,27.36,175.26Z"/><path class="cls-6" d="M31.2,178.57l-.29.05c-5.68.84-1.87-2.14-1.87-2.14l.6-.6A3.63,3.63,0,0,1,31.2,178.57Z"/><path class="cls-23" d="M22,183.84s3.18-11.06,7.64-7.65-1.81,8.66-1.81,8.66Z"/><ellipse class="cls-6" cx="23.56" cy="171.72" rx="0.36" ry="0.35"/><ellipse class="cls-6" cx="23.53" cy="173.34" rx="0.36" ry="0.35"/><ellipse class="cls-6" cx="33.88" cy="172.04" rx="0.36" ry="0.35"/><ellipse class="cls-6" cx="25.56" cy="180.32" rx="0.36" ry="0.35"/><ellipse class="cls-6" cx="33.14" cy="174.72" rx="0.36" ry="0.35"/><ellipse class="cls-6" cx="29.45" cy="178.3" rx="0.36" ry="0.35"/><ellipse class="cls-6" cx="24.78" cy="172.41" rx="0.36" ry="0.35"/><ellipse class="cls-6" cx="32.9" cy="173.08" rx="0.36" ry="0.35"/><ellipse class="cls-6" cx="31.68" cy="175.76" rx="0.36" ry="0.35"/><ellipse class="cls-6" cx="27.94" cy="180.06" rx="0.36" ry="0.35"/><ellipse class="cls-6" cx="27.16" cy="178.36" rx="0.36" ry="0.35"/><ellipse class="cls-6" cx="25.32" cy="174.52" rx="0.36" ry="0.35"/><rect class="cls-6" x="20.95" y="192.3" width="10.86" height="1.01"/><rect class="cls-30" x="19.22" y="183.3" width="14.18" height="9.67"/><ellipse class="cls-6" cx="28.41" cy="181.62" rx="0.36" ry="0.35"/><ellipse class="cls-6" cx="26.27" cy="182.05" rx="0.36" ry="0.35"/><ellipse class="cls-1" cx="12.39" cy="12.5" rx="2.59" ry="2.52"/><ellipse class="cls-1" cx="261.32" cy="91.64" rx="3.47" ry="3.37"/><ellipse class="cls-1" cx="268.01" cy="84.43" rx="2.53" ry="2.46"/><ellipse class="cls-1" cx="16.85" cy="3.37" rx="3.47" ry="3.37"/><ellipse class="cls-1" cx="3.47" cy="18.76" rx="3.47" ry="3.37"/></g></g></svg>