<svg xmlns="http://www.w3.org/2000/svg" viewBox="0 0 750 500"><defs><style>.cls-1{isolation:isolate;}.cls-2,.cls-22{fill:#fff;}.cls-14,.cls-17,.cls-20,.cls-3,.cls-34,.cls-38,.cls-39,.cls-4,.cls-43,.cls-45,.cls-7,.cls-9{fill:none;}.cls-3,.cls-4{stroke:#a9c6ea;}.cls-14,.cls-17,.cls-20,.cls-21,.cls-22,.cls-3,.cls-38,.cls-39,.cls-4,.cls-43,.cls-45,.cls-7,.cls-9{stroke-miterlimit:10;}.cls-4{stroke-dasharray:5 3.5;}.cls-5{fill:#e4ecf9;}.cls-23,.cls-6{fill:#d7e3f4;}.cls-7{stroke:#fff;}.cls-8{fill:#b2cded;}.cls-21,.cls-22,.cls-9{stroke:#648acc;}.cls-10,.cls-18{fill:#f886bc;}.cls-11{fill:#bf2c4c;}.cls-12{fill:#28364c;}.cls-13{fill:#101d54;}.cls-14{stroke:#273b7a;}.cls-14,.cls-17,.cls-34,.cls-38,.cls-39,.cls-43,.cls-45{stroke-width:0.75px;}.cls-15,.cls-16{fill:#e03b5a;}.cls-16,.cls-18{fill-rule:evenodd;}.cls-17{stroke:#a31d4a;}.cls-19{fill:#0b0b3a;}.cls-20{stroke:#0b0b3a;stroke-width:0.5px;}.cls-20,.cls-29,.cls-34{stroke-linecap:round;}.cls-21{fill:#d9e4f4;}.cls-23{opacity:0.45;}.cls-24{fill:#fdd305;}.cls-25{fill:#fe9;}.cls-26{opacity:0.55;mix-blend-mode:multiply;}.cls-27{fill:#ffc043;}.cls-28{fill:#475577;}.cls-29{fill:#ffcd5c;stroke:#ffc043;stroke-width:3px;}.cls-29,.cls-34{stroke-linejoin:round;}.cls-30{fill:#648acc;}.cls-31{fill:#f46072;}.cls-32{fill:#0c3656;}.cls-33{fill:#00276f;}.cls-34{stroke:#00276f;}.cls-35{fill:#212237;}.cls-36{fill:#4868ef;}.cls-37{fill:#22252d;}.cls-38{stroke:#474b51;}.cls-39{stroke:#28364c;}.cls-40{fill:#103bb2;}.cls-41{fill:#f2b18f;}.cls-42{fill:#0070e4;}.cls-43{stroke:#0b2e6b;}.cls-44{fill:#d8cac0;}.cls-45{stroke:#846a6a;}</style></defs><g class="cls-1"><g id="BACKGROUND"><rect class="cls-2" width="750" height="500"/></g><g id="OBJECTS"><path class="cls-3" d="M112.8,399.43c-.81-.2-1.61-.4-2.42-.62"/><path class="cls-4" d="M107,397.82c-15-4.7-29.62-13.34-39.69-25.31-35.49-42.16,6.1-96.2,47.47-113.21,20.18-8.3,38.37-18.22,44.3-41.22,5.67-22-9.86-45-13.87-66-8.08-42.28,30-75,70.06-75,37,0,53.62,14.09,90.31,38.67,27.73,18.58,79.81,29.47,119.81,25.54C473.06,136.61,491,115.74,529,98.75c26.14-11.7,62.57-14.2,87,3.13,26.12,18.52,16.19,54.77,19.17,81.83a50.18,50.18,0,0,0,5.91,19.45c21.4,37.76,65.23,39.7,65.23,95.61,0,40.34-64.37,56.33-99.13,61.58"/><path class="cls-3" d="M605.47,360.6c-.84.13-1.66.24-2.47.35"/><line class="cls-3" x1="102.8" y1="188.69" x2="117.07" y2="188.69"/><line class="cls-3" x1="117.07" y1="196.62" x2="131.33" y2="196.62"/><line class="cls-3" x1="538.06" y1="126.38" x2="552.32" y2="126.38"/><line class="cls-3" x1="529" y1="134.32" x2="543.27" y2="134.32"/><line class="cls-3" x1="550.74" y1="130.53" x2="570.12" y2="130.53"/><line class="cls-3" x1="675.13" y1="295.45" x2="685.39" y2="295.45"/><line class="cls-3" x1="665.82" y1="287.61" x2="680.08" y2="287.61"/><line class="cls-3" x1="203.54" y1="87.88" x2="217.8" y2="87.88"/><line class="cls-3" x1="180.3" y1="259.76" x2="203.76" y2="259.76"/><line class="cls-3" x1="208.71" y1="259.76" x2="220.88" y2="259.76"/><path class="cls-3" d="M482.7,229.85a4.6,4.6,0,1,1-4.6-4.61A4.6,4.6,0,0,1,482.7,229.85Z"/><path class="cls-3" d="M663.63,198a4.61,4.61,0,1,1-4.6-4.6A4.6,4.6,0,0,1,663.63,198Z"/><path class="cls-3" d="M492.73,98.75a4.61,4.61,0,1,1-4.61-4.61A4.6,4.6,0,0,1,492.73,98.75Z"/><path class="cls-3" d="M582.68,105.64a2.3,2.3,0,1,1-2.3-2.29A2.3,2.3,0,0,1,582.68,105.64Z"/><path class="cls-3" d="M442.66,277.71a2.3,2.3,0,1,1-2.3-2.29A2.29,2.29,0,0,1,442.66,277.71Z"/><path class="cls-3" d="M176.54,113.44a2.29,2.29,0,1,1-2.29-2.29A2.28,2.28,0,0,1,176.54,113.44Z"/><path class="cls-3" d="M73,256.55a2.29,2.29,0,1,1-2.29-2.29A2.28,2.28,0,0,1,73,256.55Z"/><path class="cls-3" d="M185.84,209.64a2.29,2.29,0,1,1-2.29-2.29A2.29,2.29,0,0,1,185.84,209.64Z"/><line class="cls-3" x1="115.17" y1="138.57" x2="115.17" y2="143.99"/><line class="cls-3" x1="117.88" y1="141.28" x2="112.46" y2="141.28"/><line class="cls-3" x1="432.25" y1="66.27" x2="432.25" y2="71.69"/><line class="cls-3" x1="434.96" y1="68.98" x2="429.54" y2="68.98"/><line class="cls-3" x1="602.84" y1="150.09" x2="602.84" y2="155.51"/><line class="cls-3" x1="605.55" y1="152.8" x2="600.13" y2="152.8"/><line class="cls-3" x1="691.45" y1="222.53" x2="691.45" y2="227.95"/><line class="cls-3" x1="694.16" y1="225.24" x2="688.74" y2="225.24"/><line class="cls-3" x1="665.82" y1="317.67" x2="665.82" y2="323.09"/><line class="cls-3" x1="668.53" y1="320.38" x2="663.11" y2="320.38"/><path class="cls-5" d="M510.68,257.61a45.59,45.59,0,0,0,5.93-20.4L507,235.87a36.48,36.48,0,0,0-1.06-9.53l9.12-3.4a46,46,0,0,0-10.24-18.62L497,210.2a35.52,35.52,0,0,0-7.48-6l4-8.85a45.59,45.59,0,0,0-20.4-5.93l-1.33,9.63a35.65,35.65,0,0,0-9.53,1.06L458.93,191a46.11,46.11,0,0,0-18.62,10.23l5.88,7.77a35.52,35.52,0,0,0-6,7.48l-8.85-4a45.59,45.59,0,0,0-5.93,20.4l9.64,1.33a36.06,36.06,0,0,0,1.05,9.53L427,247.1a45.91,45.91,0,0,0,10.24,18.61l7.76-5.87a35.52,35.52,0,0,0,7.48,6l-4,8.85a45.59,45.59,0,0,0,20.4,5.93l1.33-9.64a35.65,35.65,0,0,0,9.53-1.06l3.41,9.12a45.87,45.87,0,0,0,18.62-10.23l-5.88-7.76a35.52,35.52,0,0,0,6-7.48Zm-46.1-.47a23,23,0,1,1,28.55-15.69A23,23,0,0,1,464.58,257.14Zm1.69-5.81a17,17,0,1,1,21.05-11.57A17,17,0,0,1,466.27,251.33Z"/><path class="cls-5" d="M520.43,163.74a22.6,22.6,0,0,0-3.31-10L512.83,156a18.06,18.06,0,0,0-3.1-3.58l2.75-3.94a22.6,22.6,0,0,0-9.38-4.7l-1.51,4.57a17.69,17.69,0,0,0-4.72-.34l-.84-4.73a22.6,22.6,0,0,0-9.95,3.31l2.16,4.29a17.79,17.79,0,0,0-3.58,3.1l-3.94-2.75a22.6,22.6,0,0,0-4.7,9.38l4.57,1.51a17.28,17.28,0,0,0-.34,4.72l-4.73.84a22.6,22.6,0,0,0,3.31,10l4.29-2.16a17.48,17.48,0,0,0,3.1,3.58l-2.75,3.94a22.6,22.6,0,0,0,9.38,4.7l1.51-4.57a17.28,17.28,0,0,0,4.72.34l.84,4.73a22.6,22.6,0,0,0,9.95-3.31l-2.16-4.29a17.74,17.74,0,0,0,3.58-3.1l3.94,2.75a22.6,22.6,0,0,0,4.7-9.38l-4.57-1.51a17.69,17.69,0,0,0,.34-4.72Zm-19.43,11a9.58,9.58,0,1,1,6.06-12.11A9.58,9.58,0,0,1,501,174.77Z"/><path class="cls-5" d="M284.24,131.34a34.2,34.2,0,0,0-5.07-15.23l-6.56,3.3a27.12,27.12,0,0,0-4.75-5.47l4.21-6a34.64,34.64,0,0,0-14.35-7.19l-2.31,7a27.25,27.25,0,0,0-7.23-.52L246.89,100A34.47,34.47,0,0,0,231.66,105l3.31,6.57a26.87,26.87,0,0,0-5.48,4.75l-6-4.21a34.7,34.7,0,0,0-7.19,14.35l7,2.31a26.81,26.81,0,0,0-.52,7.23l-7.24,1.28a34.54,34.54,0,0,0,5.07,15.23l6.56-3.3a27.12,27.12,0,0,0,4.75,5.47l-4.21,6A34.72,34.72,0,0,0,242,167.91l2.3-7a27.25,27.25,0,0,0,7.23.52l1.29,7.23a34.47,34.47,0,0,0,15.23-5.06l-3.31-6.57a26.87,26.87,0,0,0,5.48-4.75l6,4.21a34.7,34.7,0,0,0,7.19-14.35l-7-2.31a27.18,27.18,0,0,0,.53-7.22ZM254.5,148.22a14.65,14.65,0,1,1,9.27-18.53A14.66,14.66,0,0,1,254.5,148.22Z"/><path class="cls-5" d="M218.48,186a25.43,25.43,0,0,0,2.36-5.58,26,26,0,0,0,1-6l-5.46-.76a19.89,19.89,0,0,0-.6-5.4l5.17-1.93a26,26,0,0,0-5.8-10.54l-4.39,3.33a20,20,0,0,0-4.24-3.4l2.29-5a25.66,25.66,0,0,0-5.58-2.37,26.59,26.59,0,0,0-6-1l-.75,5.45a20.67,20.67,0,0,0-5.4.6l-1.93-5.16a26.09,26.09,0,0,0-10.55,5.79l3.33,4.4a20.36,20.36,0,0,0-3.4,4.24l-5-2.29A25.91,25.91,0,0,0,170.18,172l5.46.75a19.85,19.85,0,0,0,.6,5.4l-5.17,1.93a26,26,0,0,0,5.8,10.55l4.4-3.33a20.3,20.3,0,0,0,4.23,3.4l-2.28,5A25.82,25.82,0,0,0,194.77,199l.76-5.46a19.78,19.78,0,0,0,5.39-.6l1.93,5.17a26,26,0,0,0,10.55-5.8l-3.33-4.4a20.3,20.3,0,0,0,3.4-4.23Zm-26.11-.26a13,13,0,1,1,16.17-8.89A13,13,0,0,1,192.37,185.74Zm1-3.29a9.62,9.62,0,1,1,11.92-6.56A9.62,9.62,0,0,1,193.33,182.45Z"/><path class="cls-6" d="M344.31,460.2c3.05-6.28,18.92-33.78,35.66-42.87a18.22,18.22,0,0,1,6.78-2.45,7.28,7.28,0,0,1,6.5,2.47,8.19,8.19,0,0,1,1.1,6.34c-3,17.21-22.64,23.79-32.21,36.51"/><path class="cls-6" d="M344.31,460.1s15.75-31.09,31.13-49.61c7.28-8.77,12.28-25,4.63-29.88-11.08-7-22,8.64-26.95,16.43-7.54,11.78-13.09,24.81-17.37,38.09-.62,1.92-6.27,25-6.38,25h14.94Z"/><path class="cls-7" d="M374.43,389.51c-14.52,18.37-26.57,45.55-34.58,70.59"/><path class="cls-8" d="M311.28,460.1s-1.82-47.84-23-70c-5.72-6-15.1-12.18-22.79-13.89-10-2.2-9.7,9.53-7.9,17.13,2.34,9.84,10.39,16,16.19,23.32,10.68,13.49,17,22.4,24.85,43.4"/><path class="cls-6" d="M317.65,460.1c5.71-10.46,3.7-55.16.84-69.17a71.56,71.56,0,0,0-11.67-27c-5.07-7-20.2-22.57-29.11-16.26-5.15,3.65,2.65,16.79,4.71,20.74A223.66,223.66,0,0,1,298.52,409a245.82,245.82,0,0,1,9.7,50.5c0,.22,0,.43,0,.65"/><path class="cls-8" d="M318.69,460.1c-1.88-25-.68-63.45,10.61-85.15,12.8-24.61,29.48-36,31.9-26.38,7,27.81-21.16,102.63-29.09,111.53"/><path class="cls-7" d="M262.7,384.24c22.78,15.88,38.5,46,41.43,75.86"/><path class="cls-7" d="M286,355.65c11.19,10,16.88,25.63,20.32,40.77a339.74,339.74,0,0,1,7.76,63.68"/><path class="cls-7" d="M354,359.09c-13.78,31.66-25.39,65.85-27.34,101"/><path class="cls-7" d="M386.52,420.89s-20.14,13.37-34.19,39.21"/><path class="cls-8" d="M592.55,460c3-39.54-.34-78.32,14.72-115.79,4.28-10.63,14-27.41,27.49-28,20.81-.88,8.07,40.92,4.3,56.56a232.86,232.86,0,0,1-9.8,29.69C622.6,419.55,612.59,443.4,605,460"/><path class="cls-6" d="M581.75,460c-6.55-16.76-13-33.58-19.44-50.37-5.75-14.89-12.44-29.45-17.08-44.75-3.54-11.64-12.67-38.32.7-46.52,23.81-14.61,42.85,41.91,45.36,62,3.31,26.45,2.6,53.07,3,79.66"/><path class="cls-8" d="M562.82,460s-13.91-17.78-20.19-26.11c-14-18.63-31.31-38.85-28.73-59.79.6-4.82,2.36-10.18,7.2-13a16.85,16.85,0,0,1,10-1.9c11.39,1.08,21.6,17.63,26.73,26.11,10,16.61,25.58,74.72,25.58,74.72"/><path class="cls-7" d="M552.18,330.09c17,34.36,33.56,98,34,129.93"/><path class="cls-7" d="M525.77,369.55c15,28.71,45.34,90.47,45.34,90.47"/><path class="cls-7" d="M633.89,325.34C621.7,352.54,605,411.5,598.25,460.1"/><path class="cls-6" d="M605.61,460s7-31,11.77-48.58c5.24-19.12,22.36-48.4,40.37-56.72,4.14-1.91,9.13-3.23,13.14-1a11.42,11.42,0,0,1,5,6.45c3.06,8.95-11.93,37.21-17.09,45.14-10.09,15.53-24.55,40.2-36,54.75"/><path class="cls-7" d="M667.55,361c-21.28,18.48-49.75,77.4-57.71,99.07"/><path class="cls-8" d="M143.76,440.74c-2.72-14.45-7.19-43.1-10.59-60.69-1.64-8.51-6.39-18.9-9.4-27-5.5-14.73-18.79-40.33-35.27-39-20.45,1.7-3.92,38.46,1.28,52.34a201.48,201.48,0,0,0,12.47,26c8.17,14.82,20.28,35.46,29.3,49.78"/><path class="cls-8" d="M155.57,425.15c-5-13-3.65-29.65-3.63-43.47,0-24.86,8.66-59.81,24.85-76.12,6.68-6.73,17.72-14.21,24.89-3.93,6.79,9.74-1.06,36.2-3.53,47.57-4.85,22.26-28.06,63.5-34.76,85.06"/><path class="cls-7" d="M189.79,313c-11.5,29.84-27,84.28-30.91,116"/><path class="cls-7" d="M90.23,322.35c14.58,23.44,35.94,73.67,47.25,117.38"/><path class="cls-6" d="M144.34,409.15c6.14-10,13.41-42.62,15.07-54.27,2.33-16.37,2.59-33.67-1.47-49.8-2.73-10.88-15.25-43.44-31-28.76-7.37,6.9-6.2,44.47-5.32,54.53,1.72,19.7,11.93,55,15.43,74.43"/><path class="cls-7" d="M135.68,284.72c10.79,28.09,8,97.89,4.68,122.31"/><line class="cls-9" x1="48.5" y1="460.1" x2="676.32" y2="460.1"/><path class="cls-10" d="M301.89,177.42c3.07-3,10.51-13.25,11.36-13s-1.73,3.88-1,4,5.07-5.24,5.84-4.77c1.06.65-3.67,5.86-3.67,5.86s5.46-5.45,6.22-4.62c.53.58-3.45,4.93-4.77,6.79,1.68-1.83,4.75-4.47,5.29-3.85s-2.11,3.63-4,6.06c1.33-1.41,3.89-3.82,4.41-3.28s-5.88,10.31-11.75,17.43"/><path class="cls-10" d="M262.82,214.79a440.26,440.26,0,0,0,43.63-42.7l9.8,6.55s-16.45,25.51-38,47.47"/><path class="cls-11" d="M255,222.25c5.4-6.77,14.3-13.32,14.3-13.32l15.82,12.79L271.26,238"/><path class="cls-10" d="M282.27,338.24,273.9,448.49l9.9,6.31s-27.22,1.41-28.11.52,1.12-7,1.12-7L252.26,338Z"/><path class="cls-12" d="M260,455.24l-4-4,.57-2.1,6.23,6.09h3l10.56-5.21,11.48,7.18a1.55,1.55,0,0,1-.83,2.87L271.57,460l-4.92-3.42h-1.4V460l-10,0v-4.75Z"/><path class="cls-10" d="M260.28,337.65,235.59,448.49l9.9,6.31s-27.22,1.41-28.11.52,1.12-7,1.12-7l7.22-110.67Z"/><path class="cls-12" d="M221.72,455.24l-4.05-4,.57-2.1,6.23,6.09h3L238,450.05l11.47,7.18a1.55,1.55,0,0,1-.83,2.87L233.26,460l-4.92-3.42h-1.4V460l-10,0v-4.75Z"/><path class="cls-13" d="M234.32,280.48c-13.58,23.91-13.56,68.38-13.56,68.38h63s-.87-39.06-7.9-61.07Z"/><line class="cls-14" x1="255.36" y1="282.63" x2="256.93" y2="348.86"/><path class="cls-14" d="M269.3,285.41s-3.19,8.07-13.94,10.86"/><path class="cls-10" d="M325,257.23c4.14,1.21,16.71,2.73,16.9,3.59s-4.24.39-3.95,1.06,7.05,1.88,7,2.79c-.06,1.24-6.91-.36-6.91-.36s7.42,2.12,7.07,3.18c-.26.75-6-.61-8.26-.85,2.42.57,6.22,2,5.94,2.75s-4.2-.08-7.24-.56c1.87.48,5.23,1.53,5,2.26s-9.91-.66-19-2.32"/><path class="cls-15" d="M250.89,215.86s1,2.66,6.69,2.66c3.95,0,5.44-2.07,5.44-2.07s1.46,1.31,17,21.73c3.3,4.32,2.59,13.65-2.92,21.71a135.88,135.88,0,0,0-1.28,27.9h-45s-.79-32.35,2.33-50A29.92,29.92,0,0,1,250.89,215.86Z"/><path class="cls-10" d="M280.64,229.85c30,23.54,50.8,28.64,50.8,28.64L329,270s-36-4.57-59.69-24.47"/><path class="cls-16" d="M263.21,217.23c7.7,1.3,19.51,12.63,19.51,12.63l-12.53,18.4s-5.33-3.69-12.54-9.89"/><path class="cls-17" d="M270.19,247.57c-9.39-5.72-13.62-9.91-13.62-9.91"/><path class="cls-18" d="M266.57,195.92c3.13,5.18,4.43,10.35,0,13s-11.43,4-15.92-3.39c-3.14-5.16-2.11-11.52,2.28-14.17S263.44,190.75,266.57,195.92Z"/><path class="cls-19" d="M262.93,197.25c.14.52.56,1.14,1.08,1.12a.32.32,0,0,0,.3-.23C264.61,197.25,262.63,196.15,262.93,197.25Z"/><path class="cls-20" d="M260.85,196.8a4.13,4.13,0,0,1,3-1.74"/><path class="cls-2" d="M267.77,201.82l-2.91,1.45s1,2.5,2.6,2C268.77,204.91,267.77,201.82,267.77,201.82Z"/><path class="cls-18" d="M263.21,217.23a12.29,12.29,0,0,1-5.63,1.29c-4.53-.11-6.69-1.92-6.69-1.92l3-12.76,11,.8Z"/><path class="cls-18" d="M265.52,196.16s3.75,2.51,3.88,3.17S268,201,268,201"/><path class="cls-19" d="M255,187.8c-.4.2-1.8-.18-2.31-.18a12.67,12.67,0,0,0-2.13.18c-4.18.77-7.3,4.23-9.27,7.79-1.3,2.34-2.38,4.93-4.73,6.42-5.18,3.26-12,2.09-17.76,4s-10.41,8-8.83,14.36c.51,2.09,1.61,4,2.26,6,1.38,4.39.73,9.49,3.36,13.25a11.71,11.71,0,0,0,2.6,2.61,18,18,0,0,0,27.66-7.65c2.34-5.83,1.61-12.78,5-18.06,1.6-2.47,4-4.35,5.56-6.82,1.45-2.26,2.21-6.51,2.39-9.23,0-.63-1.09-5.85-.75-5.85a12.82,12.82,0,0,0,7.78-3.29A7.94,7.94,0,0,0,255,187.8Z"/><path class="cls-10" d="M258,201.23a1.83,1.83,0,0,0-2.61.46c-1.34,2,1.88,4.52,3.43,4.63s1.51-1.56,1.51-1.56"/><rect class="cls-21" x="497.18" y="169.54" width="97.91" height="130.75"/><rect class="cls-22" x="511.8" y="169.54" width="97.91" height="130.75"/><path class="cls-23" d="M528.8,179.71h64.7a3.59,3.59,0,0,1,3.59,3.59v9.9a3.59,3.59,0,0,1-3.59,3.59H528.8a3.6,3.6,0,0,1-3.6-3.6v-9.9A3.6,3.6,0,0,1,528.8,179.71Z"/><path class="cls-23" d="M528.8,241.45H563a3.59,3.59,0,0,1,3.59,3.59v40.86a3.6,3.6,0,0,1-3.6,3.6H528.8a3.6,3.6,0,0,1-3.6-3.6V245A3.59,3.59,0,0,1,528.8,241.45Z"/><path class="cls-8" d="M530.57,213.81h-2.18c-1.76,0-3.18-1.87-3.18-4.17s1.42-4.18,3.18-4.18h2.18Z"/><path class="cls-6" d="M533.75,209.64c0,2.3-1.42,4.17-3.18,4.17s-3.18-1.87-3.18-4.17,1.42-4.18,3.18-4.18S533.75,207.33,533.75,209.64Z"/><path class="cls-8" d="M551.69,213.81h-2.18c-1.76,0-3.19-1.87-3.19-4.17s1.43-4.18,3.19-4.18h2.18Z"/><path class="cls-6" d="M554.87,209.64c0,2.3-1.43,4.17-3.18,4.17s-3.18-1.87-3.18-4.17,1.42-4.18,3.18-4.18S554.87,207.33,554.87,209.64Z"/><path class="cls-8" d="M572.8,213.81h-2.18c-1.76,0-3.18-1.87-3.18-4.17s1.42-4.18,3.18-4.18h2.18Z"/><path class="cls-6" d="M576,209.64c0,2.3-1.42,4.17-3.18,4.17s-3.18-1.87-3.18-4.17,1.43-4.18,3.18-4.18S576,207.33,576,209.64Z"/><path class="cls-8" d="M593.92,213.81h-2.18c-1.76,0-3.19-1.87-3.19-4.17s1.43-4.18,3.19-4.18h2.18Z"/><path class="cls-6" d="M597.1,209.64c0,2.3-1.43,4.17-3.18,4.17s-3.18-1.87-3.18-4.17,1.42-4.18,3.18-4.18S597.1,207.33,597.1,209.64Z"/><path class="cls-8" d="M530.57,234h-2.18c-1.76,0-3.18-1.87-3.18-4.17s1.42-4.18,3.18-4.18h2.18Z"/><path class="cls-6" d="M533.75,229.85c0,2.3-1.42,4.17-3.18,4.17s-3.18-1.87-3.18-4.17,1.42-4.18,3.18-4.18S533.75,227.54,533.75,229.85Z"/><path class="cls-8" d="M551.69,234h-2.18c-1.76,0-3.19-1.87-3.19-4.17s1.43-4.18,3.19-4.18h2.18Z"/><path class="cls-6" d="M554.87,229.85c0,2.3-1.43,4.17-3.18,4.17s-3.18-1.87-3.18-4.17,1.42-4.18,3.18-4.18S554.87,227.54,554.87,229.85Z"/><path class="cls-8" d="M572.8,234h-2.18c-1.76,0-3.18-1.87-3.18-4.17s1.42-4.18,3.18-4.18h2.18Z"/><path class="cls-6" d="M576,229.85c0,2.3-1.42,4.17-3.18,4.17s-3.18-1.87-3.18-4.17,1.43-4.18,3.18-4.18S576,227.54,576,229.85Z"/><path class="cls-8" d="M593.92,234h-2.18c-1.76,0-3.19-1.87-3.19-4.17s1.43-4.18,3.19-4.18h2.18Z"/><path class="cls-6" d="M597.1,229.85c0,2.3-1.43,4.17-3.18,4.17s-3.18-1.87-3.18-4.17,1.42-4.18,3.18-4.18S597.1,227.54,597.1,229.85Z"/><polygon class="cls-22" points="125.38 460.1 291.54 460.1 291.54 332.78 167.19 332.78 125.38 381.67 125.38 460.1"/><polygon class="cls-21" points="244.37 460.1 305.6 460.1 305.6 332.78 285.34 332.78 244.37 381.67 244.37 460.1"/><rect class="cls-21" x="125.38" y="381.67" width="118.99" height="78.43" transform="translate(369.75 841.77) rotate(180)"/><path class="cls-8" d="M255,347.05c1.14,1.05,3.47.35,5.2-1.56s2.22-4.3,1.08-5.35L258.94,338l-6.28,6.91Z"/><path class="cls-6" d="M252.81,345c1.14,1,3.47.34,5.2-1.57s2.22-4.3,1.08-5.34-3.47-.34-5.2,1.57S251.67,344,252.81,345Z"/><path class="cls-8" d="M236.5,347.05c1.14,1.05,3.47.35,5.2-1.56s2.22-4.3,1.08-5.35L240.42,338l-6.28,6.91Z"/><path class="cls-6" d="M234.28,345c1.14,1,3.47.34,5.21-1.57s2.22-4.3,1.08-5.34-3.47-.34-5.21,1.57S233.15,344,234.28,345Z"/><path class="cls-8" d="M198.37,347.05c1.14,1.05,3.47.35,5.21-1.56s2.22-4.3,1.08-5.35c-.78-.7-2.36-2.16-2.36-2.16L196,344.89Z"/><path class="cls-6" d="M196.16,345c1.14,1,3.47.34,5.2-1.57s2.22-4.3,1.08-5.34-3.46-.34-5.2,1.57S195,344,196.16,345Z"/><path class="cls-8" d="M178.73,347.05c1.14,1.05,3.47.35,5.21-1.56s2.21-4.3,1.08-5.35c-.78-.7-2.36-2.16-2.36-2.16l-6.29,6.91Z"/><path class="cls-6" d="M176.52,345c1.14,1,3.47.34,5.2-1.57s2.22-4.3,1.08-5.34-3.46-.34-5.2,1.57S175.38,344,176.52,345Z"/><polygon class="cls-23" points="242.96 372.76 249.56 364.2 149.01 364.2 141.46 372.76 242.96 372.76"/><path class="cls-9" d="M354.15,313.28V419.61a9.32,9.32,0,0,1-9.32,9.32H285.68a9.31,9.31,0,0,1-9.31-9.32v-3.05"/><path class="cls-9" d="M368.81,318.16V439.64a9.5,9.5,0,0,1-9.5,9.5H265.26a9.31,9.31,0,0,1-9.31-9.31V416.56"/><path class="cls-9" d="M395.42,316.12V386.6a9.31,9.31,0,0,0,9.31,9.32h73.46a9.31,9.31,0,0,0,9.31-9.32V265.86a9.31,9.31,0,0,1,9.32-9.31h30.29"/><path class="cls-9" d="M383.61,318.16v98.78a9.31,9.31,0,0,0,9.31,9.31H527.79a9.31,9.31,0,0,0,9.32-9.31V279.61"/><path class="cls-24" d="M287.37,163.58a87.63,87.63,0,1,1,158.45,51.6h0c-12.5,18.85-45,40.13-45,52.88v14.56a5.27,5.27,0,0,1-5.27,5.27h-41.1a5.27,5.27,0,0,1-5.27-5.27V268.06c0-12.75-32.5-34-45-52.88h0A87.16,87.16,0,0,1,287.37,163.58Z"/><path class="cls-2" d="M385,286.43c-.1-2.19-1.67-37.37,1.15-68.19a99.67,99.67,0,0,1-22.2,0c2.82,30.82,1.25,66,1.15,68.19l-1.55-.07c0-.54,1.65-36.92-1.22-68.33-26-3.62-37.63-18.34-39.72-32.24-1.22-8.12,1.56-16.2,6.6-19.22a13.31,13.31,0,0,1,10.69-1.07c6.19,1.78,12.07,7.11,15.73,14.27,4.23,8.27,6.73,22,8.18,36.89a96,96,0,0,0,22.48,0c1.45-14.9,3.95-28.62,8.18-36.89,3.66-7.16,9.54-12.49,15.73-14.27a13.31,13.31,0,0,1,10.69,1.07c5,3,7.82,11.1,6.6,19.22-2.09,13.9-13.73,28.62-39.72,32.24-2.87,31.41-1.25,67.79-1.22,68.33Zm29.54-120a14.36,14.36,0,0,0-3.91.58c-5.79,1.66-11.31,6.7-14.79,13.48-4.06,7.95-6.5,21.34-7.92,36,24.9-3.59,36-17.62,38-30.88,1.11-7.4-1.41-15-5.86-17.66A10.72,10.72,0,0,0,414.49,166.41Zm-79,0A10.72,10.72,0,0,0,330,167.9c-4.45,2.67-7,10.26-5.86,17.66,2,13.26,13.14,27.29,38,30.88-1.42-14.63-3.86-28-7.92-36-3.48-6.78-9-11.82-14.79-13.48A14.36,14.36,0,0,0,335.51,166.41Z"/><path class="cls-25" d="M448,168.61a5,5,0,0,1-5-5,67.92,67.92,0,0,0-51.26-65.93,5,5,0,0,1,2.46-9.75,78,78,0,0,1,58.85,75.68A5,5,0,0,1,448,168.61Z"/><path class="cls-25" d="M373.31,90.41a5,5,0,1,0,5-5A5,5,0,0,0,373.31,90.41Z"/><g class="cls-26"><path class="cls-27" d="M462.46,168.77c-4.84,35.93-33.85,73.12-87.46,73.12S293.46,203,287.54,168.77a87.18,87.18,0,0,0,16.64,46.41h0c12.5,18.85,45,40.13,45,52.88v14.56a5.27,5.27,0,0,0,5.27,5.27h41.1a5.27,5.27,0,0,0,5.27-5.27V268.06c0-12.75,32.5-34,45-52.88h0A87.18,87.18,0,0,0,462.46,168.77Z"/></g><path class="cls-12" d="M402.89,274.28H347.11v26.58a23,23,0,0,0,3.56,12.26h0a24,24,0,0,0,20.24,11.12h8.18a24,24,0,0,0,20.24-11.12h0a23,23,0,0,0,3.56-12.26Z"/><path class="cls-28" d="M347.11,292.2a2.57,2.57,0,0,0,.48,0l55.78-5.78a3.34,3.34,0,0,0,3-3.82,3.65,3.65,0,0,0-3.93-3.11l-55.78,5.79a3.33,3.33,0,0,0-3,3.82A3.63,3.63,0,0,0,347.11,292.2Z"/><path class="cls-28" d="M347.11,304.37a3.85,3.85,0,0,0,.48,0l55.78-5.78a3.35,3.35,0,0,0,3-3.82,3.63,3.63,0,0,0-3.93-3.11l-55.78,5.78a3.34,3.34,0,0,0-3,3.82A3.64,3.64,0,0,0,347.11,304.37Z"/><path class="cls-28" d="M349.34,316.41a2.57,2.57,0,0,0,.48,0l52.87-5.48a3.34,3.34,0,0,0,3-3.82,3.64,3.64,0,0,0-3.93-3.11l-52.87,5.49a3.34,3.34,0,0,0-3,3.82A3.64,3.64,0,0,0,349.34,316.41Z"/><line class="cls-29" x1="375" y1="38.76" x2="375" y2="66.29"/><line class="cls-29" x1="424.66" y1="49.73" x2="413.54" y2="74.92"/><line class="cls-29" x1="466.51" y1="80.19" x2="446.16" y2="98.75"/><line class="cls-29" x1="325.34" y1="49.73" x2="336.46" y2="74.92"/><line class="cls-29" x1="283.49" y1="80.19" x2="303.84" y2="98.75"/><circle class="cls-30" cx="255.95" cy="416.71" r="1.9"/><circle class="cls-30" cx="276.37" cy="416.71" r="1.9"/><circle class="cls-30" cx="537.11" cy="279.61" r="1.9"/><circle class="cls-30" cx="547.79" cy="279.61" r="1.9"/><path class="cls-30" d="M560.38,279.61a1.9,1.9,0,1,1-1.9-1.9A1.9,1.9,0,0,1,560.38,279.61Z"/><circle class="cls-30" cx="527.11" cy="256.55" r="1.9"/><circle class="cls-31" cx="468.68" cy="367.6" r="39.13" transform="translate(-105.53 209.24) rotate(-22.69)"/><circle class="cls-2" cx="468.68" cy="367.6" r="28.31" transform="translate(-69.8 112.99) rotate(-12.8)"/><path class="cls-31" d="M449.23,367.6a19.45,19.45,0,1,0,19.45-19.44A19.45,19.45,0,0,0,449.23,367.6Z"/><path class="cls-2" d="M458.49,367.6a10.19,10.19,0,1,0,10.19-10.18A10.19,10.19,0,0,0,458.49,367.6Z"/><polygon class="cls-32" points="467.1 369.18 473.5 369.18 467.1 362.78 467.1 369.18"/><polygon class="cls-32" points="508.58 327.7 515.9 327.7 515.9 325.86 510.43 325.86 510.43 320.38 508.58 320.38 508.58 327.7"/><polygon class="cls-32" points="511.93 324.35 519.25 324.35 519.25 322.5 513.77 322.5 513.77 317.03 511.93 317.03 511.93 324.35"/><rect class="cls-32" x="459.73" y="344.33" width="62.59" height="1.85" transform="translate(-100.31 448.32) rotate(-45)"/><path class="cls-10" d="M167.71,297.78l-4.83,9.16A19.61,19.61,0,0,1,155,304.7c-4.51-2.23-5.82-5.29-5.82-5.29l8.16-10.8"/><path class="cls-10" d="M178,280.46c4.49,2.65-2.93,19.4-7,20.46s-12.09-6.86-14.49-13.56,5.32-10.37,9.85-11.74S178,280.46,178,280.46Z"/><path class="cls-33" d="M174.64,288.58c-.15.27-.3.54-.43.82s.35.65.51.3.27-.61.39-.92-.33-.45-.47-.2Z"/><path class="cls-34" d="M177.13,287s-1-1.48-3.58-1"/><path class="cls-2" d="M170.69,295.1l2.86,2s-1.12,2.16-2.14,1.32S170.69,295.1,170.69,295.1Z"/><path class="cls-35" d="M182,284.13a41.81,41.81,0,0,1-5.82-2.67c-2.07.43-4.21,2.36-4.27,4.55,0,.5-.06,1.17-.55,1.24-.33,0-.61-.29-.71-.61a8.05,8.05,0,0,0-.21-1,1.43,1.43,0,0,0-1.76-.66,2.43,2.43,0,0,0-1.39,1.45c-.69,1.63-1.29,3.6.26,5a2.93,2.93,0,0,1,.68.68c.34.61-.06,1.36-.46,1.93a7.7,7.7,0,0,1-6.74,3.78c-2.57,0-6.83-3.39-7.11-5.08,0-.15-2.48-10.5,2.08-17.09,2.44-3.53,6.74-6.1,11.23-5.73a13,13,0,0,1,6.54,2.92C181.26,274.18,182.86,281.89,182,284.13Z"/><path class="cls-10" d="M177.68,290.25s.66,5-.33,5.57-3.08-.88-3.08-.88"/><path class="cls-10" d="M179.74,426.22l-3.66,23.64-.19,7.12,27.91-.14A1.24,1.24,0,0,0,205,455.6h0a1.23,1.23,0,0,0-.8-1.15l-12-5.53L197,424.36"/><path class="cls-36" d="M206.25,456.54a3.84,3.84,0,0,0-1.33-2.13l-12.77-5.49c-7,2.85-16.14.67-16.14.67l-1.63,9.61a.57.57,0,0,0,.58.57l31.08-.16C206.66,459.61,206.26,456.57,206.25,456.54Z"/><path class="cls-14" d="M194.91,449.47a15.35,15.35,0,0,0-1.8,3"/><path class="cls-14" d="M196.52,450.43A13,13,0,0,0,195,453"/><path class="cls-14" d="M197.88,451.13a19.21,19.21,0,0,0-1.39,2.36"/><line class="cls-14" x1="174.54" y1="457.7" x2="206.38" y2="457.54"/><path class="cls-14" d="M175.43,453s7.48.15,8.12,4.66"/><path class="cls-14" d="M202.3,453.29a24.42,24.42,0,0,0-2.47,4.28"/><path class="cls-10" d="M93.09,432.42,69.8,429.64l-7.12-.19.14,27.92a1.22,1.22,0,0,0,1.24,1.22h0a1.24,1.24,0,0,0,1.15-.79l5.53-12,24.14,2.72"/><path class="cls-36" d="M63.12,459.82a3.85,3.85,0,0,0,2.13-1.34l5.49-12.77c-2.85-7-.67-16.14-.67-16.14l-9.61-1.63a.58.58,0,0,0-.57.58l.16,31.08C60.05,460.23,63.09,459.82,63.12,459.82Z"/><path class="cls-14" d="M70.19,448.48a14.88,14.88,0,0,0-3-1.8"/><path class="cls-14" d="M69.23,450.08a13.55,13.55,0,0,0-2.57-1.48"/><path class="cls-14" d="M68.53,451.44a18.5,18.5,0,0,0-2.36-1.39"/><line class="cls-14" x1="61.96" y1="428.11" x2="62.13" y2="459.95"/><path class="cls-14" d="M66.66,429s-.15,7.48-4.65,8.13"/><path class="cls-14" d="M66.37,455.86a24.42,24.42,0,0,0-4.28-2.47"/><path class="cls-37" d="M106.94,367.52c-5,13.38,3.17,32.81,3.17,32.81l4.3,31.29-40.84-1.8L74,457s43.8,3.12,54.4,3.12,14.69-2.37,17.8-8.58c4.63-9.25-2-60.39-2-61.24l-7.27-32.84"/><line class="cls-38" x1="78.47" y1="430.04" x2="78.78" y2="457.32"/><path class="cls-37" d="M121.11,374.75s-4.64,23.7,18.9,28.79c10.52,2.27,37.26,3,37.26,3l-4.56,36.6h26.7s5.53-27.58,7.2-46c1.11-12.28-4.17-17.76-14.09-19-8.4-1-33.66-2.69-33.66-2.69l-4.25-5.33"/><path class="cls-38" d="M145.29,404.38s-19.81.06-24.55-22.13"/><path class="cls-38" d="M131.19,380.16a54.08,54.08,0,0,0,12.34.56"/><path class="cls-38" d="M105.33,377A39.66,39.66,0,0,0,114,378.5"/><line class="cls-38" x1="174.47" y1="438.4" x2="200.4" y2="438.4"/><rect class="cls-30" x="227.79" y="337.36" width="2.13" height="23.24"/><circle class="cls-30" cx="228.86" cy="335.01" r="3.92"/><path class="cls-10" d="M209.19,341.68l7.88.58s6.06-2,8.48-2.1a3.14,3.14,0,0,1,2.24.75v2.39c0,1.58,2.13,2.28,2.13,1.2v-1.31c0,.09,4.36,2.15,1.82,4.12,1.19.25,1.83,1.92-.44,3.07a1.66,1.66,0,0,1-.11,2.95c.74,1.12-.76,2.35-1.95,2.61-2.26.49-20.29.11-20.29.11"/><path class="cls-36" d="M163.18,306.08c12.95,17.92,6,23.73-3.31,69.43A276,276,0,0,1,105,370.13a350.71,350.71,0,0,1,21.13-50.67c6.54-12.73,17.42-19.07,23.58-20.69"/><path class="cls-36" d="M143.53,326.23s20,31.34,29.53,32.73c15.1,2.21,40.07,1.59,40.07,1.59l1.49-22.05s-32.1-1.63-33.43-2.38c-4.3-2.44-18-30-18-30"/><path class="cls-14" d="M164.84,353.24a88.36,88.36,0,0,1-19.55-24.88"/><line class="cls-14" x1="209.99" y1="338.25" x2="208.1" y2="360.63"/><path class="cls-10" d="M634.69,303.65c-.49,4.28-3.93,16.46-3.21,17s2-3.76,2.5-3.23-1,7.23-.13,7.55c1.16.43,2.33-6.52,2.33-6.52s-.91,7.67.21,7.75c.79.06,1.75-5.76,2.39-7.94-.4,2.45-.57,6.5.25,6.54s1.55-3.91,2.28-6.9c-.28,1.91-.6,5.42.15,5.49s3.22-9.4,5.19-18.42"/><path class="cls-10" d="M648.63,244.89s6.93,12.31,7.93,19.87c2.47,18.62-13,50.15-13,50.15s-11.22-3.06-11.22-4.47,7.82-34.54,7.82-34.54L629,250"/><path class="cls-10" d="M614.92,204.46l1.51,13.88s-8.32,7.06-15.69-.84l.9-9.14Z"/><path class="cls-10" d="M603.31,190.55s-9,12.41-5.33,17.06c2.72,3.44,9.84,3.83,12,2.48.48-2.54,6.32-10.94,5.38-12.81C611.82,190.14,603.31,190.55,603.31,190.55Z"/><path class="cls-35" d="M617.34,192.7c-.29-4.69-4.92-6.06-13.8-5.53-1.19.07-3.3-.74-3.85.32-.72,1.38-.85,4.19.54,5.46a5.11,5.11,0,0,0,2.78,1.31c1.61.38,3.25,1.91,2.39,3.59-.22.45-.75,1.19-.42,1.56a5.22,5.22,0,0,0,1,.5c.64.35.6,1.32.2,1.92s-.22,1.28-.62,1.88c-.95,1.43.17,4.07,1.65,4.94,1.31.78,5.59,2.07,8.73.44,2.72-1.41,4.35-5.25,4.37-12.15C620.29,194.3,618.33,192.52,617.34,192.7Z"/><path class="cls-10" d="M604.29,199.79c1.47-1.86,2.65-1.56,3.3-.54.86,1.35-.87,4.18-1.67,4.66-1.64,1-3,.87-3.08-.45"/><path class="cls-12" d="M600.68,197c-.42.35-.81,1-.58,1.44a.33.33,0,0,0,.34.18C601.38,198.48,601.56,196.22,600.68,197Z"/><path class="cls-39" d="M600.8,195.23a3.4,3.4,0,0,1,1.88,1.48"/><path class="cls-2" d="M600.78,203.56l-2-1.1s-1.35,2.53-.4,3.07S600.78,203.56,600.78,203.56Z"/><rect class="cls-40" x="569.75" y="458.63" width="32.51" height="1.46" transform="translate(1172.35 918.27) rotate(179.96)"/><path class="cls-37" d="M597.63,446.62l2.81.66s1.07,3.68,1.49,6.23a30.12,30.12,0,0,1,.32,5.11l-32.51,0s.85-2.81,8.61-7.36a16.89,16.89,0,0,0,4.61-3.83Z"/><path class="cls-41" d="M601,434.92l-.53,12.36s-1.37,1.65-6.89,1.66A42.48,42.48,0,0,1,583,447.45l-1.09-16.68"/><rect class="cls-40" x="616.05" y="458.63" width="32.51" height="1.46" transform="translate(1264.95 918.23) rotate(179.96)"/><path class="cls-37" d="M643.93,446.62l2.81.66s1.07,3.68,1.49,6.23a30.12,30.12,0,0,1,.32,5.11l-32.51,0s.85-2.81,8.61-7.36a16.89,16.89,0,0,0,4.61-3.83Z"/><path class="cls-41" d="M645.64,434.42l1.1,12.86s-1.37,1.65-6.89,1.66a42.48,42.48,0,0,1-10.59-1.49l-2.5-16.68"/><path class="cls-42" d="M640.4,306.52s5.07,10.56,1,30.76c2.07,45.11,7.46,105.75,7.46,105.75l-31-.11s-6.31-65.18-10.07-97.67c-4.18-36.18-6.79-80.49-6.79-80.49"/><path class="cls-43" d="M622.89,442.92s-6.31-65.18-10.07-97.67"/><path class="cls-42" d="M581.26,308.54S578,356.1,578,378.92,576.5,443,576.5,443h31.31l11.65-107.94c9.54-11.42,8.84-36.22,6.54-45.87l-31-8.48Z"/><path class="cls-43" d="M613.06,394.36l6.4-59.27a33.19,33.19,0,0,0,8-20.18"/><line class="cls-43" x1="587.79" y1="303.77" x2="580.39" y2="443.03"/><line class="cls-43" x1="608.35" y1="316.32" x2="623.56" y2="316.62"/><line class="cls-43" x1="634.4" y1="315.84" x2="640.18" y2="315.72"/><path class="cls-10" d="M554.87,236.11c-4.25-4.8-15.64-23.06-16.92-22.77s2.17,5.94,1.08,6-7-8.29-8.2-7.67c-1.62.86,4.87,9.07,4.87,9.07s-2.54-3.49-3.74-2.34c-.85.81-.4,2.52,1.36,5.4-1.18-1.47-2.3-1.73-3.16-.87s0,2.43,1,4c-.83-1-2.05-1.57-2.36-.48-.41,1.42,3,8.79,11.19,20.81"/><path class="cls-44" d="M616.28,216.93s17.93.75,23.31,21.17c2.43,9.2,4,72.32,4,72.32L578,310s.87-57.06,2.34-69.42c2.68-22.57,20.45-24,20.45-24s.81,2,7.76,2S616.28,216.93,616.28,216.93Z"/><path class="cls-44" d="M616.28,216.93c21.29,0,34.39,29.24,34.39,29.24l-13.38,6.73"/><path class="cls-10" d="M588.15,258.42s-11.36,16.35-20.53,17.24c-12.33,1.19-34.26-39.85-34.26-39.85l13.83-9.35,18.95,23.84,6.47-9.67"/><path class="cls-44" d="M600.83,216.58c-18.33,1-31.74,28.31-31.74,28.31l21.46,15.41,12.18-15.89"/><line class="cls-45" x1="589.79" y1="259.76" x2="600.18" y2="246.25"/><path class="cls-45" d="M641.4,250.84a76.82,76.82,0,0,0-4.11-15.93"/><path class="cls-10" d="M599.91,198s-2.95,1.42-2.81,2a10.83,10.83,0,0,0,1,1.85"/><line class="cls-43" x1="576.5" y1="436.24" x2="608.35" y2="436.24"/><line class="cls-43" x1="617.24" y1="436.51" x2="648.22" y2="436.51"/></g></g></svg>