<svg xmlns="http://www.w3.org/2000/svg" xmlns:xlink="http://www.w3.org/1999/xlink" width="467.386" height="257.604" viewBox="0 0 467.386 257.604"><defs><filter id="a" x="133.208" y="56.31" width="201" height="61" filterUnits="userSpaceOnUse"><feOffset dy="3" input="SourceAlpha"/><feGaussianBlur stdDeviation="3" result="b"/><feFlood flood-opacity="0.439"/><feComposite operator="in" in2="b"/><feComposite in="SourceGraphic"/></filter><linearGradient id="c" x1="0.067" y1="1.051" x2="0.892" y2="0.021" gradientUnits="objectBoundingBox"><stop offset="0" stop-color="#000317"/><stop offset="1" stop-color="#ee83ef"/></linearGradient></defs><g transform="translate(-739.792 -232.69)"><g transform="translate(526 233.94)"><g transform="translate(213.792 -1.251)"><path d="M131.634,388.821a11.254,11.254,0,0,1,11.221,11.221h0a11.253,11.253,0,0,1-11.221,11.219v.056h-11.3a20.022,20.022,0,0,0-19.963,19.963h0a20.022,20.022,0,0,0,19.963,19.963H521.076a20.021,20.021,0,0,0,19.963-19.963h0a20.022,20.022,0,0,0-19.963-19.963H504.861v-.056a11.252,11.252,0,0,1-11.22-11.219h0a11.253,11.253,0,0,1,11.22-11.221h35.562a14.8,14.8,0,0,0,14.755-14.753h0a14.8,14.8,0,0,0-14.755-14.755H102.546a14.8,14.8,0,0,0-14.754,14.755h0a14.8,14.8,0,0,0,14.754,14.753Z" transform="translate(-87.792 -193.638)" fill="#c6cad9" fill-rule="evenodd"/><path d="M467.027,368.673c-1.411-2.021-8.269-3.629-15.28-3.629H217.487c-7.011,0-13.8,1.608-15.219,3.629-5.793,8.229-12.118,17.216-19.029,27.037l-21.815,31h-4.2v6.756c-.067,2.886,5.324,5.047,13.583,5.047H498c8.255,0,13.732-2.165,13.708-5.047v-6.756h-4.152l-21.645-31C479.054,385.889,472.776,376.911,467.027,368.673Z" transform="translate(-100.73 -194.706)" fill="#3d3d3c" fill-rule="evenodd"/><path d="M467.027,360.311c-1.411-2.02-8.269-3.631-15.28-3.631H217.487c-7.011,0-13.8,1.61-15.219,3.631q-8.69,12.343-19.029,27.038c-7.616,10.822-16.042,22.792-25.392,36.084-2.59,3.679,3.172,6.721,12.964,6.721H498c9.791,0,15.675-3.049,13.105-6.721-9.278-13.292-17.64-25.262-25.195-36.084C479.054,377.526,472.776,368.548,467.027,360.311Z" transform="translate(-100.73 -193.148)" fill="#f2f2f2" fill-rule="evenodd"/><path d="M205.174,394.252q4.92-7.8,9.4-14.92,4.283-6.8,8.22-13.043c.756-1.2,4.592-2.166,8.593-2.166H455.613c4,0,7.833.969,8.582,2.173q3.9,6.238,8.143,13.036,4.444,7.114,9.317,14.92c.994,1.6-1.974,2.91-6.671,2.91H211.827C207.13,397.162,204.169,395.848,205.174,394.252Z" transform="translate(-109.627 -194.534)" fill="#3d3d3c" fill-rule="evenodd"/><g transform="translate(104.41 171.489)"><g transform="translate(15.208)"><path d="M249.562,366.458H237.438a2.224,2.224,0,0,0-1.456.369q-.575.972-1.159,1.963c-.124.212.354.374,1.037.374h12.3c.682,0,1.314-.162,1.421-.374.341-.661.675-1.315,1.011-1.963C250.689,366.629,250.236,366.458,249.562,366.458Z" transform="translate(-234.803 -366.458)" fill="#999a9a" fill-rule="evenodd"/><path d="M273.228,366.458H261.049c-.647,0-1.268.171-1.369.376-.318.646-.633,1.294-.956,1.955-.1.206.362.374,1.015.374H272.09c.684,0,1.273-.168,1.36-.374.273-.661.54-1.309.808-1.955C274.345,366.629,273.9,366.458,273.228,366.458Z" transform="translate(-239.258 -366.458)" fill="#999a9a" fill-rule="evenodd"/><path d="M296.859,366.458H284.681c-.647,0-1.251.171-1.334.376l-.762,1.955c-.081.206.4.374,1.054.374h12.351c.683,0,1.284-.168,1.349-.374.207-.661.411-1.309.614-1.948C298.019,366.629,297.533,366.458,296.859,366.458Z" transform="translate(-243.705 -366.458)" fill="#999a9a" fill-rule="evenodd"/><path d="M320.518,366.458H308.34c-.674,0-1.26.171-1.322.383-.188.639-.376,1.286-.565,1.948-.063.206.435.374,1.12.374H319.92c.657,0,1.239-.168,1.285-.374.141-.661.279-1.309.418-1.948C321.668,366.629,321.164,366.458,320.518,366.458Z" transform="translate(-248.152 -366.458)" fill="#999a9a" fill-rule="evenodd"/><path d="M344.155,366.458H331.977c-.648,0-1.218.171-1.258.383-.123.639-.247,1.286-.371,1.948-.041.206.474.374,1.129.374h12.349c.684,0,1.222-.168,1.247-.374.076-.661.15-1.3.224-1.948C345.323,366.629,344.829,366.458,344.155,366.458Z" transform="translate(-252.605 -366.458)" fill="#999a9a" fill-rule="evenodd"/><path d="M367.785,366.458H355.608c-.647,0-1.2.171-1.22.383-.058.646-.119,1.286-.178,1.948-.018.206.513.374,1.168.374h12.348c.686,0,1.233-.168,1.237-.374.011-.656.02-1.3.029-1.948C369,366.629,368.46,366.458,367.785,366.458Z" transform="translate(-257.052 -366.458)" fill="#999a9a" fill-rule="evenodd"/><path d="M391.439,366.458H379.261c-.673,0-1.212.171-1.209.383,0,.646.013,1.292.018,1.948,0,.206.55.374,1.232.374h12.351c.655,0,1.189-.168,1.171-.374-.056-.656-.111-1.3-.165-1.948C392.639,366.629,392.085,366.465,391.439,366.458Z" transform="translate(-261.494 -366.458)" fill="#999a9a" fill-rule="evenodd"/><path d="M415.03,366.467H402.854c-.675,0-1.168.164-1.144.376.07.646.141,1.292.211,1.948.023.206.56.374,1.243.374h12.35c.655,0,1.17-.168,1.132-.374-.12-.656-.24-1.3-.36-1.948C416.248,366.631,415.679,366.467,415.03,366.467Z" transform="translate(-265.902 -366.46)" fill="#999a9a" fill-rule="evenodd"/><path d="M438.616,366.467h-12.18c-.644,0-1.148.164-1.1.376.133.646.269,1.292.405,1.948.044.206.626.374,1.281.374H439.37c.682,0,1.181-.162,1.121-.374-.186-.656-.37-1.3-.552-1.948C439.877,366.631,439.29,366.467,438.616,366.467Z" transform="translate(-270.303 -366.46)" fill="#999a9a" fill-rule="evenodd"/><path d="M462.23,366.467H450.051c-.675,0-1.162.164-1.1.376l.6,1.948c.065.212.663.374,1.346.374,4.1,0,8.225.007,12.35.007.656,0,1.138-.169,1.058-.382-.251-.656-.5-1.3-.749-1.948C463.479,366.631,462.876,366.467,462.23,366.467Z" transform="translate(-274.704 -366.46)" fill="#999a9a" fill-rule="evenodd"/><path d="M485.821,366.467H473.642c-.646,0-1.117.164-1.031.376.263.646.527,1.292.8,1.948.085.212.7.382,1.356.382h12.351c.682,0,1.121-.169,1.018-.382-.317-.656-.63-1.3-.943-1.948C487.085,366.631,486.494,366.467,485.821,366.467Z" transform="translate(-279.111 -366.46)" fill="#999a9a" fill-rule="evenodd"/><path d="M509.378,366.467H497.253c-.674,0-1.128.164-1.028.369.331.646.662,1.3,1,1.963.1.2.736.374,1.42.374h12.295c.683,0,1.161-.162,1.039-.374q-.579-.995-1.147-1.963C510.714,366.631,510.051,366.467,509.378,366.467Z" transform="translate(-283.511 -366.46)" fill="#999a9a" fill-rule="evenodd"/></g><g transform="translate(11.873 4.22)"><path d="M246.6,371.644H234.211a2.226,2.226,0,0,0-1.494.383q-.986,1.673-1.993,3.378c-.13.221.359.4,1.062.4h12.652c.7,0,1.354-.175,1.469-.4q.876-1.706,1.736-3.378C247.753,371.812,247.291,371.644,246.6,371.644Z" transform="translate(-230.703 -371.644)" fill="#999a9a" fill-rule="evenodd"/><path d="M270.82,371.644H258.372c-.659,0-1.3.175-1.4.389-.544,1.109-1.1,2.234-1.65,3.364-.107.221.366.4,1.042.4h12.709c.7,0,1.311-.184,1.4-.4.469-1.129.934-2.255,1.395-3.364C271.956,371.819,271.507,371.644,270.82,371.644Z" transform="translate(-235.287 -371.644)" fill="#999a9a" fill-rule="evenodd"/><path d="M295,371.644H282.554c-.661,0-1.28.175-1.365.389-.432,1.109-.871,2.234-1.312,3.364-.089.221.405.4,1.081.4h12.709c.7,0,1.323-.184,1.391-.4.356-1.129.709-2.255,1.058-3.364C296.183,371.819,295.689,371.644,295,371.644Z" transform="translate(-239.864 -371.644)" fill="#999a9a" fill-rule="evenodd"/><path d="M319.21,371.644H306.763c-.688,0-1.291.175-1.352.389-.323,1.109-.649,2.234-.977,3.364-.066.221.446.4,1.149.4h12.709c.675,0,1.277-.184,1.325-.4.241-1.129.483-2.255.72-3.364C320.383,371.819,319.87,371.644,319.21,371.644Z" transform="translate(-244.44 -371.644)" fill="#999a9a" fill-rule="evenodd"/><path d="M343.4,371.644H330.951c-.661,0-1.245.175-1.286.389l-.642,3.364c-.041.221.487.4,1.162.4h12.708c.7,0,1.258-.184,1.284-.4.13-1.129.26-2.255.387-3.364C344.588,371.819,344.086,371.644,343.4,371.644Z" transform="translate(-249.023 -371.644)" fill="#999a9a" fill-rule="evenodd"/><path d="M367.579,371.644H355.133c-.662,0-1.228.175-1.247.389-.1,1.109-.2,2.234-.307,3.364-.02.221.526.4,1.2.4H367.49c.7,0,1.268-.184,1.272-.4.016-1.129.033-2.255.05-3.364C368.814,371.819,368.266,371.644,367.579,371.644Z" transform="translate(-253.598 -371.644)" fill="#999a9a" fill-rule="evenodd"/><path d="M391.779,371.644H379.332c-.687,0-1.236.175-1.235.389.011,1.109.021,2.234.033,3.364,0,.221.565.4,1.268.4h12.709c.677,0,1.222-.184,1.2-.4-.094-1.129-.189-2.255-.285-3.357C393.006,371.819,392.44,371.644,391.779,371.644Z" transform="translate(-258.167 -371.644)" fill="#999a9a" fill-rule="evenodd"/><path d="M415.89,371.644H403.444c-.69,0-1.193.175-1.169.4.122,1.1.243,2.228.368,3.357.023.221.577.4,1.278.4h12.71c.675,0,1.2-.184,1.164-.4q-.314-1.694-.623-3.357C417.134,371.826,416.551,371.644,415.89,371.644Z" transform="translate(-262.672 -371.644)" fill="#999a9a" fill-rule="evenodd"/><path d="M439.993,371.644H427.547c-.66,0-1.175.182-1.13.4q.347,1.665.7,3.357c.049.221.648.4,1.321.4h12.71c.7,0,1.216-.184,1.152-.4q-.483-1.694-.956-3.357C441.282,371.826,440.68,371.644,439.993,371.644Z" transform="translate(-267.17 -371.644)" fill="#999a9a" fill-rule="evenodd"/><path d="M464.123,371.644H451.678c-.69,0-1.185.182-1.118.4q.513,1.665,1.038,3.357c.067.221.686.4,1.388.4H465.7c.674,0,1.168-.184,1.081-.4q-.653-1.694-1.292-3.357C465.4,371.826,464.784,371.644,464.123,371.644Z" transform="translate(-271.667 -371.644)" fill="#999a9a" fill-rule="evenodd"/><path d="M488.232,371.651H475.784c-.658,0-1.137.177-1.05.39q.68,1.665,1.376,3.357c.089.22.727.4,1.4.4H490.22c.7,0,1.151-.184,1.043-.4q-.824-1.694-1.631-3.357C489.53,371.828,488.92,371.651,488.232,371.651Z" transform="translate(-276.171 -371.645)" fill="#999a9a" fill-rule="evenodd"/><path d="M512.306,371.651h-12.39c-.691,0-1.152.169-1.045.383.568,1.116,1.139,2.234,1.717,3.372.114.221.765.4,1.465.4h12.654c.7,0,1.191-.175,1.064-.4-.666-1.137-1.322-2.255-1.973-3.372A2.226,2.226,0,0,0,512.306,371.651Z" transform="translate(-280.668 -371.645)" fill="#999a9a" fill-rule="evenodd"/></g><g transform="translate(8.319 10.023)"><path d="M262.98,378.776h-33a2.195,2.195,0,0,0-1.52.411c-.694,1.183-1.392,2.366-2.1,3.565-.138.235.326.433,1.049.433h33.718c.724,0,1.356-.2,1.452-.433.5-1.2.989-2.382,1.476-3.565C264.152,378.959,263.688,378.776,262.98,378.776Z" transform="translate(-226.336 -378.776)" fill="#999a9a" fill-rule="evenodd"/><path d="M292.6,378.776H279.787c-.68,0-1.319.183-1.408.411-.46,1.183-.923,2.366-1.391,3.565-.092.235.413.433,1.107.433h13.093c.725,0,1.364-.2,1.439-.433.377-1.2.749-2.382,1.119-3.565C293.82,378.959,293.309,378.776,292.6,378.776Z" transform="translate(-235.772 -378.776)" fill="#999a9a" fill-rule="evenodd"/><path d="M317.528,378.776H304.713c-.709,0-1.327.183-1.4.411-.341,1.183-.685,2.366-1.033,3.565-.069.235.452.433,1.177.433h13.093c.7,0,1.316-.2,1.368-.433.258-1.2.511-2.382.764-3.565C318.735,378.959,318.208,378.776,317.528,378.776Z" transform="translate(-240.486 -378.776)" fill="#999a9a" fill-rule="evenodd"/><path d="M342.432,378.776H329.619c-.681,0-1.282.183-1.326.411-.224,1.183-.449,2.366-.677,3.565-.046.235.5.433,1.192.433H341.9c.724,0,1.3-.2,1.325-.433.137-1.2.272-2.382.408-3.565C343.66,378.959,343.141,378.776,342.432,378.776Z" transform="translate(-245.207 -378.776)" fill="#999a9a" fill-rule="evenodd"/><path d="M367.33,378.776H354.517c-.68,0-1.263.183-1.284.411-.106,1.183-.214,2.366-.323,3.565-.021.235.539.433,1.236.433h13.093c.724,0,1.306-.2,1.31-.433.017-1.2.035-2.382.053-3.565C368.6,378.959,368.038,378.776,367.33,378.776Z" transform="translate(-249.92 -378.776)" fill="#999a9a" fill-rule="evenodd"/><path d="M392.251,378.776H379.437c-.711,0-1.276.183-1.273.411.011,1.183.021,2.366.032,3.565,0,.235.583.433,1.309.433H392.6c.695,0,1.256-.2,1.238-.433-.1-1.2-.2-2.382-.3-3.565C393.512,378.959,392.93,378.776,392.251,378.776Z" transform="translate(-254.626 -378.776)" fill="#999a9a" fill-rule="evenodd"/><path d="M417.072,378.776H404.257c-.709,0-1.227.183-1.2.411.128,1.183.256,2.366.387,3.565.026.235.6.433,1.322.433H417.86c.695,0,1.238-.2,1.2-.433-.224-1.2-.441-2.382-.659-3.565C418.353,378.959,417.752,378.776,417.072,378.776Z" transform="translate(-259.264 -378.776)" fill="#999a9a" fill-rule="evenodd"/><path d="M441.887,378.776H429.075c-.68,0-1.211.183-1.162.411.246,1.183.493,2.366.745,3.565.047.235.668.433,1.363.433h13.1c.723,0,1.246-.2,1.179-.433-.343-1.2-.679-2.382-1.015-3.565C443.214,378.959,442.6,378.776,441.887,378.776Z" transform="translate(-263.895 -378.776)" fill="#999a9a" fill-rule="evenodd"/><path d="M466.732,378.776H453.918c-.708,0-1.22.183-1.148.411.364,1.183.73,2.366,1.1,3.565.072.235.713.433,1.438.433H468.4c.695,0,1.2-.2,1.109-.433-.463-1.2-.917-2.382-1.37-3.565C468.049,378.959,467.412,378.776,466.732,378.776Z" transform="translate(-268.526 -378.776)" fill="#999a9a" fill-rule="evenodd"/><path d="M511.737,378.776h-33c-.681,0-1.172.183-1.078.411.483,1.183.966,2.366,1.457,3.565.1.235.754.433,1.449.433h33.718c.723,0,1.19-.2,1.053-.433-.7-1.2-1.392-2.382-2.082-3.565A2.189,2.189,0,0,0,511.737,378.776Z" transform="translate(-273.163 -378.776)" fill="#999a9a" fill-rule="evenodd"/></g><path d="M302.76,386.272h-13.2c-.7,0-1.351.189-1.433.433-.427,1.249-.855,2.505-1.291,3.784-.086.258.44.463,1.158.463h13.5c.745,0,1.4-.205,1.465-.463.339-1.278.672-2.535,1-3.784C304.024,386.461,303.49,386.272,302.76,386.272Z" transform="translate(-229.288 -370.15)" fill="#999a9a" fill-rule="evenodd"/><path d="M328.414,386.272H315.241c-.729,0-1.359.189-1.419.433-.3,1.256-.6,2.505-.912,3.784-.062.258.487.463,1.233.463H327.61c.748,0,1.376-.205,1.42-.463.211-1.278.42-2.527.625-3.784C329.7,386.461,329.144,386.272,328.414,386.272Z" transform="translate(-234.147 -370.15)" fill="#999a9a" fill-rule="evenodd"/><path d="M354.094,386.272h-13.2c-.729,0-1.342.189-1.378.44-.176,1.249-.352,2.5-.534,3.776-.035.258.533.463,1.28.463h13.5c.715,0,1.325-.205,1.343-.463.083-1.278.167-2.527.247-3.776C355.366,386.461,354.794,386.272,354.094,386.272Z" transform="translate(-239.006 -370.15)" fill="#999a9a" fill-rule="evenodd"/><path d="M379.752,386.272h-13.2c-.7,0-1.292.189-1.3.44-.051,1.249-.1,2.5-.155,3.776-.011.258.578.463,1.294.463h13.5c.745,0,1.336-.205,1.327-.463-.043-1.278-.085-2.527-.131-3.776C381.073,386.461,380.481,386.272,379.752,386.272Z" transform="translate(-243.871 -370.15)" fill="#999a9a" fill-rule="evenodd"/><path d="M405.354,386.272h-13.2c-.7,0-1.273.189-1.26.44.073,1.249.148,2.5.222,3.776.016.258.624.463,1.339.463h13.5c.748,0,1.317-.205,1.284-.463-.17-1.278-.339-2.527-.508-3.776C406.694,386.461,406.083,386.272,405.354,386.272Z" transform="translate(-248.678 -370.15)" fill="#999a9a" fill-rule="evenodd"/><path d="M430.945,386.272h-13.2c-.729,0-1.284.189-1.243.44.2,1.249.395,2.5.6,3.776.041.258.668.463,1.416.463h13.5c.716,0,1.266-.205,1.206-.463-.3-1.278-.592-2.527-.885-3.776C432.277,386.461,431.647,386.272,430.945,386.272Z" transform="translate(-253.45 -370.15)" fill="#999a9a" fill-rule="evenodd"/><path d="M456.583,386.272h-13.2c-.73,0-1.265.189-1.2.44.324,1.249.648,2.5.978,3.776.065.258.714.463,1.461.463h13.5c.715,0,1.246-.205,1.159-.463-.424-1.278-.846-2.527-1.263-3.776C457.931,386.461,457.284,386.272,456.583,386.272Z" transform="translate(-258.234 -370.15)" fill="#999a9a" fill-rule="evenodd"/><path d="M513.678,386.272H470.1c-.613,0-1.022.16-.95.359.473,1.292.949,2.6,1.434,3.939.077.2.617.382,1.243.382h44.552c.747,0,1.226-.205,1.076-.463-.745-1.278-1.479-2.527-2.211-3.776A2.217,2.217,0,0,0,513.678,386.272Z" transform="translate(-263.259 -370.15)" fill="#999a9a" fill-rule="evenodd"/><path d="M268.924,386.27q-21.814,0-43.6-.007a1.863,1.863,0,0,0-1.294.36c-.763,1.3-1.538,2.608-2.324,3.945-.121.2.284.382.88.382h44.582c.716,0,1.388-.205,1.483-.463.47-1.278.935-2.535,1.4-3.784C270.138,386.459,269.626,386.27,268.924,386.27Z" transform="translate(-217.15 -370.148)" fill="#999a9a" fill-rule="evenodd"/><g transform="translate(0 22.624)"><path d="M234.333,394.263H220.721a2.249,2.249,0,0,0-1.631.471l-2.948,4.987c-.157.264.329.492,1.1.492h13.99c.742,0,1.478-.228,1.615-.492q1.3-2.535,2.569-4.987C235.553,394.466,235.057,394.263,234.333,394.263Z" transform="translate(-216.112 -394.263)" fill="#999a9a" fill-rule="evenodd"/><path d="M260.821,394.263H247.208c-.723,0-1.426.2-1.553.471q-1.208,2.454-2.449,4.987c-.13.264.378.492,1.12.492h13.99c.775,0,1.455-.228,1.566-.492q1.05-2.535,2.07-4.987C262.061,394.466,261.574,394.263,260.821,394.263Z" transform="translate(-221.156 -394.263)" fill="#999a9a" fill-rule="evenodd"/><path d="M287.3,394.263h-13.61c-.723,0-1.405.2-1.508.471q-.962,2.454-1.95,4.987c-.1.264.427.492,1.168.492h13.989c.773,0,1.465-.228,1.548-.492q.8-2.535,1.572-4.987C288.59,394.466,288.052,394.263,287.3,394.263Z" transform="translate(-226.193 -394.263)" fill="#999a9a" fill-rule="evenodd"/><path d="M313.808,394.263H300.195c-.752,0-1.413.2-1.489.471q-.716,2.454-1.452,4.987c-.079.264.474.492,1.249.492h13.989c.742,0,1.411-.228,1.467-.492q.544-2.535,1.073-4.987C315.091,394.466,314.531,394.263,313.808,394.263Z" transform="translate(-231.229 -394.263)" fill="#999a9a" fill-rule="evenodd"/><path d="M404.651,394.263H326.681c-.723,0-1.365.2-1.414.471q-.471,2.454-.952,4.987c-.051.264.526.492,1.268.492h80.13c.745,0,1.321-.228,1.272-.492q-.469-2.535-.924-4.987C406.014,394.466,405.374,394.263,404.651,394.263Z" transform="translate(-236.273 -394.263)" fill="#999a9a" fill-rule="evenodd"/><path d="M446,394.263H432.389c-.723,0-1.282.2-1.227.471q.514,2.454,1.042,4.987c.055.264.721.492,1.465.492h13.989c.775,0,1.329-.22,1.251-.492q-.719-2.535-1.419-4.987C447.414,394.466,446.755,394.263,446,394.263Z" transform="translate(-256.181 -394.263)" fill="#999a9a" fill-rule="evenodd"/><path d="M472.393,394.263h-13.61c-.753,0-1.292.2-1.212.471l1.542,4.987c.081.272.77.492,1.544.492h13.991c.742,0,1.274-.22,1.171-.492q-.974-2.535-1.919-4.987C473.8,394.466,473.117,394.263,472.393,394.263Z" transform="translate(-261.101 -394.263)" fill="#999a9a" fill-rule="evenodd"/><path d="M498.764,394.263H485.152c-.723,0-1.241.2-1.136.471q1.007,2.454,2.041,4.987c.109.272.82.492,1.563.492h13.989c.774,0,1.253-.22,1.123-.492q-1.228-2.535-2.417-4.987C500.188,394.466,499.515,394.263,498.764,394.263Z" transform="translate(-266.027 -394.263)" fill="#999a9a" fill-rule="evenodd"/><path d="M525.125,394.263H511.512c-.723,0-1.22.2-1.088.471q1.251,2.454,2.539,4.987c.136.272.869.492,1.611.492h13.991c.774,0,1.26-.22,1.105-.492q-1.483-2.535-2.918-4.987C526.6,394.466,525.878,394.263,525.125,394.263Z" transform="translate(-270.946 -394.263)" fill="#999a9a" fill-rule="evenodd"/></g></g><path d="M405.952,408.891H318.771c-3.364,0-6.346.958-6.644,2.161q-1.217,4.881-2.516,10.08l-2.771,11.116c-.373,1.491,2.42,2.7,6.217,2.7h98.458c3.8,0,6.6-1.219,6.232-2.7q-1.4-5.738-2.705-11.116-1.267-5.2-2.459-10.08C412.291,409.849,409.317,408.891,405.952,408.891Z" transform="translate(-128.601 -202.876)" fill="#3d3d3c" fill-rule="evenodd"/><path d="M15.681,0h229.2a15.681,15.681,0,0,1,15.681,15.681V149.992a15.682,15.682,0,0,1-15.682,15.682H15.681A15.681,15.681,0,0,1,0,149.993V15.681A15.681,15.681,0,0,1,15.681,0Z" transform="translate(103.462)" fill="#fff"/><path d="M0,0H239.9V145.018H0Z" transform="translate(113.788 10.329)" fill="#a1a6cc"/><path d="M0,0H239.9V2.531H0Z" transform="translate(113.788 152.815)" fill="#5571cc"/><path d="M2.915,0H158.8a2.917,2.917,0,0,1,2.917,2.917v0A2.916,2.916,0,0,1,158.8,5.832H2.916A2.916,2.916,0,0,1,0,2.917v0A2.915,2.915,0,0,1,2.915,0Z" transform="translate(152.882 162.711)" fill="#3d3d3c"/></g></g><g transform="matrix(1, 0, 0, 1, 739.79, 232.69)" filter="url(#a)"><g transform="translate(142.21 62.31)" fill="#fff" stroke="#707070" stroke-width="1"><rect width="183" height="43" rx="21.5" stroke="none"/><rect x="0.5" y="0.5" width="182" height="42" rx="21" fill="none"/></g></g><g transform="translate(884 235.041)"><path d="M40.6,66.8a1.165,1.165,0,0,0-1.163-1.1H36.749V65.27a1.27,1.27,0,0,0-2.541,0v.423H31.668V65.27a1.27,1.27,0,1,0-2.541,0v.423H26.586V65.27a1.27,1.27,0,0,0-2.541,0v.423H21.5V65.27a1.27,1.27,0,0,0-2.541,0v.423h-1.8A1.166,1.166,0,0,0,16,66.858v16.3a1.166,1.166,0,0,0,1.164,1.164H38.549a1.166,1.166,0,0,0,1.164-1.164v-.106h.51a1.164,1.164,0,0,0,1.164-1.194.1.1,0,0,0,0-.011ZM35.055,65.27a.423.423,0,1,1,.847,0v1.694a.423.423,0,1,1-.847,0Zm-5.081,0a.423.423,0,1,1,.847,0v1.694a.423.423,0,1,1-.847,0Zm-5.081,0a.423.423,0,1,1,.847,0v1.694a.423.423,0,1,1-.847,0Zm-5.081,0a.423.423,0,1,1,.847,0v1.694a.423.423,0,1,1-.847,0Zm-2.964,1.588a.318.318,0,0,1,.318-.318h1.8v.423a1.27,1.27,0,0,0,2.541,0v-.423h2.541v.423a1.27,1.27,0,0,0,2.541,0v-.423h2.541v.423a1.27,1.27,0,1,0,2.541,0v-.423h2.541v.423a1.27,1.27,0,0,0,2.541,0v-.423h1.8a.318.318,0,0,1,.318.318v2.223H16.847Zm.318,16.62a.318.318,0,0,1-.318-.318V69.928h8.469v13.55Zm21.7-.318a.318.318,0,0,1-.318.318H26.163V69.928h12.7Zm1.584-1.049a.315.315,0,0,1-.228.1h-.51s0-15.466-.013-15.522c.029.045.84,15.2.84,15.2a.315.315,0,0,1-.09.225ZM23.2,79.668a1.272,1.272,0,0,0-1.2.847h-.708a.212.212,0,0,1-.212-.212V79.214a2.968,2.968,0,0,0,2.541-2.933V73.739a.423.423,0,0,0-.423-.423h-1.27v-1.27a.423.423,0,0,0-.423-.423H19.811a.423.423,0,0,0-.423.423v1.27h-1.27a.423.423,0,0,0-.423.423V76.28a2.968,2.968,0,0,0,2.541,2.933V80.3a1.06,1.06,0,0,0,1.059,1.059H22a1.27,1.27,0,1,0,1.2-1.694Zm-4.658-5.5h1.27a.423.423,0,0,0,.423-.423v-1.27h.847v1.27a.423.423,0,0,0,.423.423h1.27v.847H21.5a.423.423,0,0,0-.423.423V76.7h-.847v-1.27a.423.423,0,0,0-.423-.423h-1.27Zm0,2.117v-.423h.847v1.27a.423.423,0,0,0,.423.423H21.5a.423.423,0,0,0,.423-.423v-1.27h.847v.423a2.117,2.117,0,0,1-4.235,0ZM23.2,81.362a.423.423,0,1,1,.423-.423A.423.423,0,0,1,23.2,81.362Zm5.928-9.739a1.27,1.27,0,1,0,1.27,1.27A1.27,1.27,0,0,0,29.127,71.622Zm0,1.694a.423.423,0,1,1,.423-.423A.423.423,0,0,1,29.127,73.316Zm3.388-1.694a1.27,1.27,0,1,0,1.27,1.27A1.27,1.27,0,0,0,32.515,71.622Zm0,1.694a.423.423,0,1,1,.423-.423.423.423,0,0,1-.423.423ZM35.9,71.622a1.27,1.27,0,1,0,1.27,1.27,1.27,1.27,0,0,0-1.27-1.27Zm0,1.694a.423.423,0,1,1,.423-.423A.423.423,0,0,1,35.9,73.316ZM29.127,75.01a1.27,1.27,0,1,0,1.27,1.27A1.27,1.27,0,0,0,29.127,75.01Zm0,1.694a.423.423,0,1,1,.423-.423A.423.423,0,0,1,29.127,76.7Zm3.388-1.694a1.27,1.27,0,1,0,1.27,1.27A1.27,1.27,0,0,0,32.515,75.01Zm0,1.694a.423.423,0,1,1,.423-.423.423.423,0,0,1-.423.423ZM35.9,75.01a1.27,1.27,0,1,0,1.27,1.27,1.27,1.27,0,0,0-1.27-1.27Zm0,1.694a.423.423,0,1,1,.423-.423A.423.423,0,0,1,35.9,76.7ZM29.127,78.4a1.27,1.27,0,1,0,1.27,1.27A1.27,1.27,0,0,0,29.127,78.4Zm0,1.694a.423.423,0,1,1,.423-.423A.423.423,0,0,1,29.127,80.091ZM32.515,78.4a1.27,1.27,0,1,0,1.27,1.27A1.27,1.27,0,0,0,32.515,78.4Zm0,1.694a.423.423,0,1,1,.423-.423.423.423,0,0,1-.423.423Z" transform="translate(0 7.634)" fill="url(#c)"/></g><text transform="translate(936 323)" fill="#294f74" font-size="18" font-family="Nunito-Bold, Nunito" font-weight="700"><tspan x="0" y="0">Appoint Now</tspan></text><g transform="translate(728 147.398)"><g transform="translate(177.352 140.399)"><g transform="matrix(0.985, 0.174, -0.174, 0.985, 154.385, 64.671)"><path d="M371.163,185.69a2.646,2.646,0,0,1,0,3.743l-3.458,3.444a2.658,2.658,0,0,1-3.757,0l-3.361-3.354-6.928-6.9-3.367-3.354a2.634,2.634,0,0,1,0-3.742l3.451-3.444a2.675,2.675,0,0,1,3.757,0l3.373,3.36,6.929,6.9Z" transform="translate(-347.148 -170.234)" fill="#f56060"/><path d="M378.107,173.942a2.864,2.864,0,0,1,0,4.039l-3.291,3.291a.2.2,0,0,1-.147.063.217.217,0,0,1-.154-.063.22.22,0,0,1,0-.307l3.284-3.284a2.434,2.434,0,0,0,0-3.431l-3.717-3.717a2.425,2.425,0,0,0-3.424,0l-3.291,3.291a.212.212,0,0,1-.3,0,.219.219,0,0,1,0-.307l3.284-3.292a2.865,2.865,0,0,1,4.039,0Z" transform="translate(-354.831 -169.391)"/><path d="M368.572,184.915a2.864,2.864,0,0,1,0,4.039l-3.717,3.717a2.85,2.85,0,0,1-4.039,0l-3.612-3.62-7.449-7.449-3.62-3.62a2.85,2.85,0,0,1,0-4.039l3.711-3.718a2.869,2.869,0,0,1,4.039,0l3.626,3.627,7.449,7.449Zm-.307,3.731a2.425,2.425,0,0,0,0-3.424l-6.037-6.037-2.606-2.606-6.044-6.044a2.429,2.429,0,0,0-3.424,0l-3.717,3.717a2.433,2.433,0,0,0,0,3.431l6.037,6.038,2.613,2.606,6.038,6.037a2.412,2.412,0,0,0,3.424,0Z" transform="translate(-345.296 -169.393)"/><path d="M369.793,187.24a2.85,2.85,0,0,1,0,4.039l-2.613,2.614a2.851,2.851,0,0,1-4.039,0,.217.217,0,0,1,.307-.308,2.413,2.413,0,0,0,3.424,0l2.613-2.613a2.413,2.413,0,0,0,0-3.424.217.217,0,1,1,.307-.307Z" transform="translate(-353.107 -177.203)"/><path d="M374.031,189.327a.524.524,0,0,1-.37.894.528.528,0,0,1-.37-.894A.533.533,0,0,1,374.031,189.327Zm-.3.433a.106.106,0,0,0,0-.126.091.091,0,0,0-.07-.028.078.078,0,0,0-.063.028.089.089,0,0,0,0,.126A.086.086,0,0,0,373.731,189.76Z" transform="translate(-357.526 -178.082)"/><path d="M373.544,192.692a.518.518,0,0,1,0,.733.523.523,0,0,1-.74,0,.518.518,0,0,1,0-.733A.533.533,0,0,1,373.544,192.692Zm-.307.433a.1.1,0,0,0,0-.132.1.1,0,0,0-.126,0,.1.1,0,0,0,0,.132A.078.078,0,0,0,373.237,193.125Z" transform="translate(-357.312 -179.56)"/><path d="M370.94,186.227a.523.523,0,0,1,0,.74.535.535,0,0,1-.37.154.524.524,0,0,1-.371-.894A.541.541,0,0,1,370.94,186.227Zm-.307.433a.1.1,0,0,0,0-.126.1.1,0,0,0-.063-.028.1.1,0,0,0-.063.028.088.088,0,0,0,0,.126C370.542,186.7,370.576,186.716,370.633,186.66Z" transform="translate(-356.168 -176.722)"/><path d="M370.44,189.591a.524.524,0,1,1-.741,0A.541.541,0,0,1,370.44,189.591Zm-.28.371a.072.072,0,0,0-.028-.063.085.085,0,0,0-.126,0,.085.085,0,0,0,0,.126c.049.049.084.049.126,0A.072.072,0,0,0,370.161,189.962Z" transform="translate(-355.948 -178.199)"/><path d="M370.005,193.005a.524.524,0,0,1-.371.894.524.524,0,0,1-.37-.894A.541.541,0,0,1,370.005,193.005Zm-.308.434a.088.088,0,0,0,0-.126.084.084,0,0,0-.126,0,.089.089,0,0,0,0,.126C369.621,193.487,369.656,193.487,369.7,193.439Z" transform="translate(-355.757 -179.699)"/><path d="M364.531,181.984a.211.211,0,0,1,0,.3.22.22,0,0,1-.307,0,2.429,2.429,0,0,0-3.424,0l-2.614,2.613a2.43,2.43,0,0,0,0,3.424.219.219,0,0,1,0,.307.215.215,0,0,1-.154.063.211.211,0,0,1-.146-.063,2.85,2.85,0,0,1,0-4.039l2.606-2.606a2.85,2.85,0,0,1,4.039,0Z" transform="translate(-350.458 -174.554)"/><path d="M369.63,196.482a.524.524,0,1,1-.741,0A.541.541,0,0,1,369.63,196.482Zm-.28.37a.089.089,0,0,0-.154-.063.085.085,0,0,0,0,.126c.049.049.077.049.126,0A.1.1,0,0,0,369.351,196.852Z" transform="translate(-355.592 -181.226)"/><path d="M367.837,183.124a.534.534,0,0,1,.154.37.524.524,0,1,1-.894-.37A.541.541,0,0,1,367.837,183.124Zm-.307.433a.1.1,0,0,0,0-.126.084.084,0,0,0-.126,0,.088.088,0,0,0,0,.126C367.445,183.606,367.481,183.606,367.53,183.557Z" transform="translate(-354.805 -175.359)"/><path d="M367.344,186.488a.524.524,0,0,1-.363.894.524.524,0,0,1-.371-.894A.532.532,0,0,1,367.344,186.488Zm-.3.433a.089.089,0,0,0,0-.126.1.1,0,0,0-.063-.028.127.127,0,0,0-.07.028.089.089,0,0,0,0,.126C366.96,186.97,366.995,186.97,367.044,186.921Z" transform="translate(-354.592 -176.836)"/><path d="M366.907,189.9a.524.524,0,0,1-.371.894.535.535,0,0,1-.37-.154.539.539,0,0,1,0-.74A.541.541,0,0,1,366.907,189.9Zm-.28.37a.085.085,0,0,0-.021-.063.132.132,0,0,0-.07-.028.115.115,0,0,0-.063.028.106.106,0,0,0,0,.126c.049.049.084.049.126,0A.071.071,0,0,0,366.627,190.273Z" transform="translate(-354.398 -178.336)"/><path d="M366.527,193.379a.537.537,0,0,1,.154.371.524.524,0,0,1-1.048,0,.524.524,0,0,1,.894-.371Zm-.307.434a.089.089,0,0,0,0-.126.091.091,0,0,0-.154.063.1.1,0,0,0,.028.063C366.143,193.861,366.178,193.861,366.22,193.813Z" transform="translate(-354.229 -179.863)"/><path d="M366.329,197.03a.524.524,0,0,1-.371.894.521.521,0,0,1-.37-.154.527.527,0,0,1,0-.741A.541.541,0,0,1,366.329,197.03Zm-.308.433a.088.088,0,0,0,0-.126.084.084,0,0,0-.126,0,.089.089,0,0,0,0,.126C365.938,197.512,365.973,197.512,366.022,197.463Z" transform="translate(-354.143 -181.467)"/><path d="M357.175,198.613a.219.219,0,0,1,0,.308l-3.291,3.284a2.85,2.85,0,0,1-4.039,0l-3.711-3.717a2.85,2.85,0,0,1,0-4.039l3.284-3.284a.218.218,0,0,1,.308.307l-3.291,3.284a2.424,2.424,0,0,0,0,3.424l3.717,3.717a2.425,2.425,0,0,0,3.424,0l3.291-3.284A.22.22,0,0,1,357.175,198.613Z" transform="translate(-345.296 -178.927)"/><path d="M364.249,183.393a.519.519,0,0,1,0,.734.522.522,0,0,1-.741,0,.518.518,0,0,1,0-.734.523.523,0,0,1,.741,0Zm-.308.434a.1.1,0,0,0,0-.133.1.1,0,0,0-.126,0,.1.1,0,0,0,0,.133C363.857,183.868,363.892,183.868,363.941,183.826Z" transform="translate(-353.229 -175.474)"/><path d="M363.812,186.808a.518.518,0,0,1,0,.734.506.506,0,0,1-.37.154.515.515,0,0,1-.37-.147.524.524,0,0,1,.74-.741Zm-.307.433a.1.1,0,0,0,0-.133.093.093,0,0,0-.063-.021.087.087,0,0,0-.063.154C363.421,187.284,363.456,187.284,363.5,187.242Z" transform="translate(-353.037 -176.975)"/><path d="M363.426,190.285a.519.519,0,0,1,0,.733.5.5,0,0,1-.37.154.507.507,0,0,1-.371-.154.519.519,0,0,1,0-.733A.528.528,0,0,1,363.426,190.285Zm-.307.433a.085.085,0,0,0,0-.132.084.084,0,0,0-.063-.021.091.091,0,0,0-.063.021.1.1,0,0,0,0,.132C363.042,190.76,363.077,190.76,363.118,190.718Z" transform="translate(-352.868 -178.502)"/><path d="M363.227,193.938a.528.528,0,0,1,0,.741.54.54,0,0,1-.741,0,.527.527,0,0,1,0-.741A.534.534,0,0,1,363.227,193.938Zm-.308.433a.1.1,0,0,0,0-.133.085.085,0,0,0-.063-.021.072.072,0,0,0-.063.027.089.089,0,0,0,0,.126A.079.079,0,0,0,362.919,194.372Z" transform="translate(-352.78 -180.107)"/><path d="M360.334,187.184a.525.525,0,0,1,.154.371.531.531,0,0,1-.161.37.5.5,0,0,1-.363.154.524.524,0,0,1-.37-.894A.534.534,0,0,1,360.334,187.184Zm-.28.371a.1.1,0,0,0-.028-.063.078.078,0,0,0-.063-.027.1.1,0,0,0-.091.091.084.084,0,0,0,.021.063c.049.049.083.049.132,0A.1.1,0,0,0,360.055,187.555Z" transform="translate(-351.509 -177.141)"/><path d="M360.128,190.837a.524.524,0,0,1-.371.894.5.5,0,0,1-.363-.154.522.522,0,0,1,0-.741A.532.532,0,0,1,360.128,190.837Zm-.28.371a.084.084,0,0,0-.021-.063.09.09,0,0,0-.07-.028.079.079,0,0,0-.063.028.106.106,0,0,0,0,.126c.049.049.084.049.133,0A.085.085,0,0,0,359.848,191.208Z" transform="translate(-351.421 -178.747)"/></g><g transform="translate(153.096 -35.075)"><circle cx="1.815" cy="1.815" r="1.815" transform="translate(5.317 22.092)" fill="#56b3f7"/><path d="M395.888,269.767a1.238,1.238,0,1,0,1.238-1.239A1.24,1.24,0,0,0,395.888,269.767Zm1.238-.879a.879.879,0,1,1-.879.879A.88.88,0,0,1,397.126,268.887Z" transform="translate(-390.511 -246.221)"/><path d="M404.283,245.018a.18.18,0,0,0-.2.178v1.774a.18.18,0,0,0,.18.179h.083a2.5,2.5,0,0,1,2.5,2.456h-.4a2.1,2.1,0,0,0-1.283-1.891,2.091,2.091,0,0,0-.816-.165h-.864a2.095,2.095,0,0,0-1.173.359,2.141,2.141,0,0,0-.311.257,2.1,2.1,0,0,0-.615,1.441h-.4a2.5,2.5,0,0,1,2.5-2.456h.083a.18.18,0,0,0,.18-.179v-1.833a.18.18,0,0,0-.174-.179l-.085,0c-.048,0-.1-.006-.145-.006h-1.773v-1.591a3.119,3.119,0,0,0,.814-.846,5.333,5.333,0,0,0,.49-2.091c.726-.234,1.259-1.093,1.438-2.334a2.44,2.44,0,0,0-.417-1.944,1.327,1.327,0,0,0-.672-.423,9.847,9.847,0,0,0,.15-1.738v-1.235a.168.168,0,0,0,0-.023,4.028,4.028,0,0,0-4.018-3.973H396.6a4.024,4.024,0,0,0-4.019,4.02v1.211a9.84,9.84,0,0,0,.15,1.738,1.326,1.326,0,0,0-.672.424,2.436,2.436,0,0,0-.416,1.942c.177,1.243.71,2.1,1.438,2.336a5.34,5.34,0,0,0,.49,2.09,3.121,3.121,0,0,0,.814.847v1.591H393a.179.179,0,0,0-.173.131,12.424,12.424,0,0,0-.224,5.659.184.184,0,0,0,.193.143l.061-.007a.539.539,0,0,1,.075-.007,1.482,1.482,0,1,1-.7.186.179.179,0,0,0,.089-.2,12.42,12.42,0,0,1,.169-5.668.181.181,0,0,0-.033-.159.185.185,0,0,0-.149-.067,6.064,6.064,0,0,0-6.008,6.011v4.374a.18.18,0,0,0,.18.179h23a.18.18,0,0,0,.18-.179v-4.374A5.974,5.974,0,0,0,404.283,245.018Zm5.013,10.148H386.659v-4.194a5.691,5.691,0,0,1,5.42-5.637,12.857,12.857,0,0,0-.138,5.471,1.809,1.809,0,1,0,.987-.3h-.007a12.1,12.1,0,0,1,.213-5.2h1.435a.179.179,0,0,0,.179-.179v-1.862a.18.18,0,0,0-.074-.146,2.85,2.85,0,0,1-.79-.794,5.109,5.109,0,0,1-.456-2.068.181.181,0,0,0-.141-.156c-.639-.137-1.119-.911-1.285-2.07a2.089,2.089,0,0,1,.332-1.656.954.954,0,0,1,.63-.337.18.18,0,0,0,.156-.213,9.4,9.4,0,0,1-.177-1.847v-1.211a3.664,3.664,0,0,1,3.66-3.66h2.746a3.668,3.668,0,0,1,3.658,3.637.125.125,0,0,0,0,.021v1.214a9.425,9.425,0,0,1-.177,1.847.18.18,0,0,0,.156.214.951.951,0,0,1,.63.336,2.094,2.094,0,0,1,.333,1.658c-.167,1.157-.648,1.931-1.286,2.069a.18.18,0,0,0-.141.156,5.163,5.163,0,0,1-.455,2.069,2.881,2.881,0,0,1-.79.792.18.18,0,0,0-.074.146l0,1.862a.18.18,0,0,0,.18.179h2v1.484a2.863,2.863,0,0,0-2.762,2.857v.137a.179.179,0,0,0,.179.179h.759a.179.179,0,0,0,.179-.179v-.137a1.785,1.785,0,0,1,.035-.351,1.8,1.8,0,0,1,.1-.326,1.748,1.748,0,0,1,.373-.554,1.8,1.8,0,0,1,.258-.213,1.7,1.7,0,0,1,.295-.16,1.722,1.722,0,0,1,.677-.137h.864a1.723,1.723,0,0,1,.677.137,1.685,1.685,0,0,1,.3.161,1.749,1.749,0,0,1,.631.765,1.763,1.763,0,0,1,.1.326,1.79,1.79,0,0,1,.035.351v.137a.179.179,0,0,0,.18.179h.759a.179.179,0,0,0,.179-.179v-.137a2.863,2.863,0,0,0-2.762-2.857V245.4a5.605,5.605,0,0,1,4.857,5.567Z" transform="translate(-386.3 -228.748)"/><path d="M406.484,245.357a6.966,6.966,0,0,0,.44-2.227l.016-.16.263.022c.514,0,.963-.73,1.119-1.8a1.774,1.774,0,0,0-.253-1.388.676.676,0,0,0-.513-.221.171.171,0,0,0-.181.128,6.561,6.561,0,0,1-.23.662c-.113-.6-.29-1.54-.37-1.954-.04-.21-.091-.469-.143-.756a.181.181,0,0,0-.176-.147,24.614,24.614,0,0,1-3.8-.3,9.163,9.163,0,0,1-3.42-1.146.18.18,0,0,0-.277.129c-.094.8-.252,1.617-.356,2.157l-.014.068c-.079.408-.256,1.346-.368,1.945a6.8,6.8,0,0,1-.23-.661.169.169,0,0,0-.181-.129.683.683,0,0,0-.513.221,1.772,1.772,0,0,0-.253,1.387c.154,1.078.619,1.8,1.159,1.8a.18.18,0,0,0,.06-.011l.162-.011.016.163a6.948,6.948,0,0,0,.441,2.227,5.145,5.145,0,0,0,7.6,0Zm-7.3-.183a6.152,6.152,0,0,1-.393-2.078l-.033-.337a.18.18,0,0,0-.179-.162h-.012l-.338.023a.367.367,0,0,0-.059.008c-.283-.029-.644-.55-.778-1.492a1.482,1.482,0,0,1,.169-1.1.251.251,0,0,1,.122-.076,5.17,5.17,0,0,0,.453,1.076.176.176,0,0,0,.186.082.178.178,0,0,0,.144-.143s.348-1.858.469-2.481l.013-.068c.094-.484.229-1.188.325-1.908a10.487,10.487,0,0,0,3.314,1.053,24.767,24.767,0,0,0,3.712.3c.043.23.084.441.119.623.119.622.469,2.481.469,2.481a.178.178,0,0,0,.143.143.18.18,0,0,0,.186-.082,5.2,5.2,0,0,0,.452-1.077.25.25,0,0,1,.122.077,1.486,1.486,0,0,1,.17,1.1c-.134.921-.5,1.494-.749,1.5l-.424-.036a.18.18,0,0,0-.195.162l-.032.337a6.21,6.21,0,0,1-.391,2.078,4.811,4.811,0,0,1-6.986,0Z" transform="translate(-391.004 -231.951)"/><path d="M420.8,266.64h-.536a.18.18,0,0,0-.18.179v1.669a1.854,1.854,0,0,1-1.034,1.66.888.888,0,0,0-.448-.038.846.846,0,0,0-.553.331.587.587,0,0,0,.141.841.819.819,0,0,0,.476.145.967.967,0,0,0,.155-.013.812.812,0,0,0,.624-.464,2.758,2.758,0,0,0,1.534-2.461v-1.669A.18.18,0,0,0,420.8,266.64Zm-.179,1.848a2.4,2.4,0,0,1-1.4,2.169.178.178,0,0,0-.1.121.433.433,0,0,1-.363.281.5.5,0,0,1-.363-.07.228.228,0,0,1-.057-.34.5.5,0,0,1,.32-.185.59.59,0,0,1,.093-.008.5.5,0,0,1,.218.049.181.181,0,0,0,.153,0,2.216,2.216,0,0,0,1.317-2.021V267h.177Z" transform="translate(-400.195 -245.392)"/><path d="M407.75,255.256a.179.179,0,0,0-.261-.16,5.727,5.727,0,0,1-5.26,0,.176.176,0,0,0-.175.007.179.179,0,0,0-.086.153v1.435a2.892,2.892,0,1,0,5.78,0Zm-.36,1.436a2.533,2.533,0,1,1-5.062,0v-1.151a6.06,6.06,0,0,0,5.063,0Z" transform="translate(-393.182 -240.312)"/><path d="M414.414,270.11a.894.894,0,0,0-.448.038,1.854,1.854,0,0,1-1.035-1.66v-1.669a.179.179,0,0,0-.179-.179h-.535a.18.18,0,0,0-.18.179v1.669a2.755,2.755,0,0,0,1.534,2.461.811.811,0,0,0,.624.464.963.963,0,0,0,.155.013.817.817,0,0,0,.476-.145.587.587,0,0,0,.141-.841A.847.847,0,0,0,414.414,270.11Zm.2.879a.5.5,0,0,1-.362.07h0a.432.432,0,0,1-.362-.281.18.18,0,0,0-.1-.121,2.4,2.4,0,0,1-1.4-2.169V267h.175v1.489a2.216,2.216,0,0,0,1.318,2.021.181.181,0,0,0,.153,0,.516.516,0,0,1,.312-.041.5.5,0,0,1,.319.185.229.229,0,0,1-.057.34Z" transform="translate(-397.604 -245.392)"/></g><g transform="translate(-35 63.379)"><circle cx="1.867" cy="1.867" r="1.867" transform="translate(4.803 24.567)" fill="#56b3f7"/><path d="M189.867,230.792h-1.042a.167.167,0,0,1-.167-.167v-.954h-1.022a.167.167,0,0,1-.167-.167V228.46a.167.167,0,0,1,.167-.167h1.022v-.954a.167.167,0,0,1,.167-.167h1.042a.167.167,0,0,1,.167.167v.954h.884a.167.167,0,0,1,.167.167V229.5a.167.167,0,0,1-.167.167h-.884v.954A.167.167,0,0,1,189.867,230.792Z" transform="translate(-177.871 -225.51)" fill="#56b3f7"/><path d="M180.54,270.889a1.08,1.08,0,1,1,1.08-1.08A1.081,1.081,0,0,1,180.54,270.889Zm0-1.826a.746.746,0,1,0,.746.746A.747.747,0,0,0,180.54,269.064Z" transform="translate(-174.353 -243.763)"/><path d="M191.987,253.241H170.519a.167.167,0,0,1-.167-.167v-4.083a5.66,5.66,0,0,1,5.608-5.612.169.169,0,0,1,.137.063.167.167,0,0,1,.031.148,11.581,11.581,0,0,0-.158,5.292.166.166,0,0,1-.082.182,1.352,1.352,0,1,0,.652-.174.532.532,0,0,0-.067.006l-.06.007a.17.17,0,0,1-.178-.133,11.6,11.6,0,0,1,.209-5.282.168.168,0,0,1,.161-.122h1.3v-1.1h-3.325a.167.167,0,0,1-.106-.3c.982-.8.94-2.813.781-3.763-.76-4.5.246-6.645.964-7.554l-1.59-3.8a.167.167,0,0,1,.03-.176l.274-.307c.08-.088,1.995-2.166,6.39-2.166s6.309,2.078,6.388,2.166l.274.306a.169.169,0,0,1,.03.176l-1.639,3.916c.673.924,1.613,3.072.877,7.436-.16.95-.2,2.959.779,3.763a.167.167,0,0,1-.105.3H184.6v1.1h1.655c.044,0,.087,0,.131.005l.083,0a.167.167,0,0,1,.162.167v1.71a.167.167,0,0,1-.167.167h-.077a2.336,2.336,0,0,0-2.334,2.295h.375A1.951,1.951,0,0,1,185,246.37a2.044,2.044,0,0,1,.289-.239,1.993,1.993,0,0,1,.333-.181,1.939,1.939,0,0,1,.763-.154h.806a1.939,1.939,0,0,1,.762.154,1.991,1.991,0,0,1,.333.181,2.02,2.02,0,0,1,.29.239,1.954,1.954,0,0,1,.42.623,1.923,1.923,0,0,1,.114.367,2,2,0,0,1,.04.356h.375a2.337,2.337,0,0,0-2.334-2.295h-.077a.167.167,0,0,1-.167-.167V243.6a.167.167,0,0,1,.19-.165,5.576,5.576,0,0,1,5.014,5.558v4.083A.167.167,0,0,1,191.987,253.241Zm-21.3-.334H191.82v-3.916a5.235,5.235,0,0,0-4.537-5.2v1.3a2.671,2.671,0,0,1,2.578,2.666v.128a.167.167,0,0,1-.167.167h-.708a.167.167,0,0,1-.167-.167v-.128a1.621,1.621,0,0,0-.477-1.148,1.645,1.645,0,0,0-.241-.2,1.632,1.632,0,0,0-.908-.278h-.806a1.612,1.612,0,0,0-.632.128,1.644,1.644,0,0,0-.276.15,1.6,1.6,0,0,0-.241.2,1.626,1.626,0,0,0-.349.517,1.608,1.608,0,0,0-.095.3,1.628,1.628,0,0,0-.033.327v.128a.167.167,0,0,1-.167.167h-.708a.167.167,0,0,1-.167-.167v-.128a2.671,2.671,0,0,1,2.578-2.666V243.7h-1.865a.167.167,0,0,1-.118-.049.169.169,0,0,1-.049-.118V242.1a.167.167,0,0,1,.167-.167h3.094c-1.014-1.26-.624-3.67-.605-3.781.737-4.367-.229-6.421-.871-7.256a.167.167,0,0,1-.022-.167l1.635-3.906-.2-.228c-.075-.084-1.886-2.055-6.139-2.055s-6.066,1.971-6.142,2.055l-.2.228,1.588,3.792a.168.168,0,0,1-.026.172c-.683.816-1.716,2.859-.955,7.364.018.111.408,2.521-.606,3.781h3.094a.167.167,0,0,1,.167.167v1.434a.167.167,0,0,1-.167.167h-1.34a11.3,11.3,0,0,0-.2,4.856,1.717,1.717,0,1,1-.913.28,11.993,11.993,0,0,1,.129-5.109,5.314,5.314,0,0,0-5.063,5.264Zm16.913-.36a.763.763,0,0,1-.444-.135.546.546,0,0,1-.131-.784.788.788,0,0,1,.515-.307.819.819,0,0,1,.418.035,1.732,1.732,0,0,0,.967-1.551v-1.557a.167.167,0,0,1,.167-.167h.5a.167.167,0,0,1,.167.167V249.8a2.572,2.572,0,0,1-1.432,2.3.757.757,0,0,1-.582.433A.9.9,0,0,1,187.6,252.547Zm.084-.906a.52.52,0,0,0-.088.008.463.463,0,0,0-.3.172.215.215,0,0,0,.053.319.465.465,0,0,0,.34.065.406.406,0,0,0,.339-.263.167.167,0,0,1,.092-.112,2.238,2.238,0,0,0,1.3-2.026v-1.391h-.167V249.8a2.067,2.067,0,0,1-1.229,1.886.169.169,0,0,1-.142,0A.456.456,0,0,0,187.683,251.642Zm-1.7.906a.9.9,0,0,1-.145-.012.757.757,0,0,1-.582-.433,2.573,2.573,0,0,1-1.433-2.3v-1.557a.167.167,0,0,1,.167-.167h.5a.167.167,0,0,1,.167.167V249.8a1.731,1.731,0,0,0,.967,1.551.829.829,0,0,1,.418-.035.787.787,0,0,1,.515.308.546.546,0,0,1-.132.784A.76.76,0,0,1,185.984,252.547Zm-1.825-4.133V249.8a2.239,2.239,0,0,0,1.3,2.027.165.165,0,0,1,.093.112.405.405,0,0,0,.339.263.465.465,0,0,0,.339-.065.231.231,0,0,0,.1-.147h0a.23.23,0,0,0-.045-.171.463.463,0,0,0-.3-.172.48.48,0,0,0-.292.038.169.169,0,0,1-.142,0,2.066,2.066,0,0,1-1.229-1.886v-1.391Zm-2.906-2.079a2.722,2.722,0,0,1-2.7-2.8v-1.34a.166.166,0,0,1,.242-.149,5.349,5.349,0,0,0,4.911,0,.167.167,0,0,1,.242.149v1.34A2.721,2.721,0,0,1,181.253,246.335Zm-2.364-3.877v1.075a2.366,2.366,0,1,0,4.727,0h0v-1.076a5.658,5.658,0,0,1-4.727,0Zm2.364-.134a4.739,4.739,0,0,1-.729-.061,4.309,4.309,0,0,1-2.82-1.507,6.484,6.484,0,0,1-.412-2.078l-.015-.153-.153.011a.168.168,0,0,1-.056.009c-.5,0-.938-.676-1.081-1.681a1.649,1.649,0,0,1,.236-1.294.633.633,0,0,1,.478-.206.16.16,0,0,1,.168.119,6.213,6.213,0,0,0,.216.62c.105-.559.271-1.437.345-1.819.063-.329.152-.791.232-1.288.042-.259.081-.523.113-.79a.167.167,0,0,1,.257-.12,8.551,8.551,0,0,0,3.192,1.069,22.615,22.615,0,0,0,3.239.27l.136,0,.176,0a.168.168,0,0,1,.163.137c.045.249.09.478.127.667l.009.047c.073.381.239,1.259.344,1.819a6.137,6.137,0,0,0,.216-.621.153.153,0,0,1,.168-.119.63.63,0,0,1,.478.206,1.657,1.657,0,0,1,.237,1.295c-.145,1-.565,1.68-1.044,1.684l-.247-.021-.015.151a6.5,6.5,0,0,1-.41,2.078,4.314,4.314,0,0,1-2.821,1.506A4.8,4.8,0,0,1,181.253,242.325Zm-3.824-4.142a.167.167,0,0,1,.166.151l.03.315a5.751,5.751,0,0,0,.367,1.94h0a4.5,4.5,0,0,0,6.523,0,5.766,5.766,0,0,0,.366-1.941l.03-.315a.166.166,0,0,1,.18-.15l.4.034c.232,0,.576-.538.7-1.4a1.388,1.388,0,0,0-.159-1.03.237.237,0,0,0-.116-.072,4.822,4.822,0,0,1-.423,1.006.167.167,0,0,1-.306-.057s-.326-1.735-.438-2.316l-.009-.047c-.03-.156-.065-.338-.1-.537h-.045l-.132,0a22.974,22.974,0,0,1-3.289-.274,9.761,9.761,0,0,1-3.094-.984c-.025.185-.054.368-.082.548-.081.5-.17.966-.234,1.3-.113.582-.438,2.316-.438,2.316a.167.167,0,0,1-.306.057,4.86,4.86,0,0,1-.422-1.005.236.236,0,0,0-.115.072,1.383,1.383,0,0,0-.158,1.028c.125.881.463,1.367.728,1.394a.3.3,0,0,1,.054-.007l.316-.022Zm-.268.337a.166.166,0,0,1-.033.017A.1.1,0,0,0,177.16,238.519Zm8.367-7.673a.158.158,0,0,1-.057-.01,14.827,14.827,0,0,0-8.295,0,.171.171,0,0,1-.214-.091l-1.574-3.761a.168.168,0,0,1,.03-.176c.071-.08,1.794-1.949,5.905-1.949s5.831,1.87,5.9,1.949a.166.166,0,0,1,.029.176l-1.574,3.761A.166.166,0,0,1,185.527,230.846Zm-9.789-3.888,1.47,3.513a16.856,16.856,0,0,1,4.094-.561.282.282,0,0,1,.038,0,16.83,16.83,0,0,1,4.093.56l1.47-3.513c-.362-.341-2.087-1.766-5.581-1.766S176.1,226.617,175.739,226.958Z" transform="translate(-170.352 -224.207)"/><path d="M189.086,230.2h-1.042a.167.167,0,0,1-.167-.167v-.954h-1.021a.167.167,0,0,1-.167-.167v-1.043a.167.167,0,0,1,.167-.167h1.021v-.954a.167.167,0,0,1,.167-.167h1.042a.167.167,0,0,1,.167.167v.954h.885a.167.167,0,0,1,.167.167v1.043a.167.167,0,0,1-.167.167h-.885v.954A.167.167,0,0,1,189.086,230.2Zm-.875-.334h.708v-.954a.167.167,0,0,1,.167-.167h.884v-.709h-.884a.167.167,0,0,1-.167-.167v-.954h-.708v.954a.167.167,0,0,1-.167.167h-1.022v.709h1.022a.167.167,0,0,1,.167.167Z" transform="translate(-177.528 -225.248)"/></g><g transform="matrix(0.891, -0.454, 0.454, 0.891, 53.814, -22.246)"><path d="M225.831,176.6a7.994,7.994,0,0,1,7.985,7.985c0,6-11.459,13.308-13.007,14.267-1.548-.962-13.007-8.29-13.007-14.267a7.984,7.984,0,0,1,12.822-6.352.3.3,0,0,0,.37,0A7.915,7.915,0,0,1,225.831,176.6Z" transform="translate(-205.499 -174.94)" fill="#f56060"/><path d="M222.335,173.642a8.523,8.523,0,0,0-5.021,1.62,8.6,8.6,0,0,0-13.618,6.975c0,6.715,12.91,14.557,13.46,14.888a.3.3,0,0,0,.156.043.312.312,0,0,0,.165-.046c.55-.334,13.454-8.249,13.454-14.884A8.606,8.606,0,0,0,222.335,173.642Zm0,.611a7.994,7.994,0,0,1,7.986,7.984c0,6-11.459,13.308-13.007,14.268-1.548-.962-13.007-8.29-13.007-14.268a7.984,7.984,0,0,1,12.821-6.352.307.307,0,0,0,.371,0A7.915,7.915,0,0,1,222.335,174.253Z" transform="translate(-203.696 -173.642)"/><path d="M210.384,182.475a.3.3,0,0,0,.142.036.3.3,0,0,0,.27-.164,4.919,4.919,0,0,1,4.362-2.638.306.306,0,0,0,0-.611,5.525,5.525,0,0,0-4.9,2.965.3.3,0,0,0,.128.412Z" transform="translate(-206.562 -176.038)"/><path d="M209.458,187.943a.306.306,0,0,0,.306-.306,4.963,4.963,0,0,1,.177-1.313.3.3,0,0,0-.211-.376.3.3,0,0,0-.232.027.3.3,0,0,0-.145.185,5.529,5.529,0,0,0-.2,1.477A.306.306,0,0,0,209.458,187.943Z" transform="translate(-206.092 -179.042)"/><path d="M218.833,182.32,216,191.606l-2.534-6.282a.306.306,0,0,0-.278-.191.312.312,0,0,0-.281.173l-1.858,3.855h-2.937a.306.306,0,1,0,0,.611h3.13a.308.308,0,0,0,.275-.174l1.641-3.4,2.6,6.443a.306.306,0,0,0,.283.191h.013a.308.308,0,0,0,.28-.216l2.8-9.156,2.8,9.156a.308.308,0,0,0,.278.216h.016a.3.3,0,0,0,.281-.192l2.6-6.441,1.641,3.4a.306.306,0,0,0,.275.174h3.13a.306.306,0,0,0,0-.611H227.2l-1.858-3.855a.31.31,0,0,0-.282-.173h0a.3.3,0,0,0-.273.191l-2.534,6.282-2.836-9.286a.314.314,0,0,0-.584,0Z" transform="translate(-205.499 -177.366)"/></g></g></g><g transform="translate(644 165)"><rect width="13.455" height="7.901" transform="translate(231.404 105.874)" fill="#56b3f7"/><path d="M254.254,118.782a5.265,5.265,0,0,1-2.1-.439h0a5.289,5.289,0,0,1-2.952-6.368l.1-.314,9.689,4.215-.164.283A5.283,5.283,0,0,1,254.254,118.782Zm-4.581-6.321a4.706,4.706,0,0,0,2.71,5.348h0a4.7,4.7,0,0,0,5.757-1.665Z"/><path d="M259.224,115.325l-9.69-4.216.166-.283a5.281,5.281,0,0,1,9.618,4.186Zm-8.846-4.484,8.466,3.684a4.7,4.7,0,0,0-2.71-5.344h0A4.7,4.7,0,0,0,250.378,110.841Z"/><path d="M257.1,106.153l.026-.327a5.282,5.282,0,0,1,10.482-.412l.051.323Zm5.3-4.61c-.063,0-.126,0-.19,0h0a4.7,4.7,0,0,0-4.463,4l9.226-.363A4.7,4.7,0,0,0,262.4,101.543Z"/><path d="M262.394,111.533a5.283,5.283,0,0,1-5.215-4.456l-.051-.324,10.557-.414-.025.327a5.287,5.287,0,0,1-5.059,4.863h0C262.532,111.532,262.463,111.533,262.394,111.533Zm-4.578-4.224a4.688,4.688,0,0,0,4.762,3.638h0a4.7,4.7,0,0,0,4.464-4Z"/><path d="M247.406,116.26H226.684V105.772c0-3.127,3.214-5.547,5.367-6.418V94.381H231.2a1.161,1.161,0,0,1-1.006-1.288V89.1a1.161,1.161,0,0,1,1.006-1.289h11.693A1.161,1.161,0,0,1,243.9,89.1v3.993a1.161,1.161,0,0,1-1.005,1.288h-.853v4.971c2.153.873,5.367,3.3,5.367,6.42Zm-20.14-.582h19.558v-9.906c0-2.922-3.176-5.2-5.178-5.948l-.189-.071V93.8h1.435c.2,0,.423-.289.423-.7V89.1c0-.416-.223-.706-.423-.706H231.2c-.2,0-.424.29-.424.706v3.993c0,.416.224.7.424.7h1.434v5.958l-.189.07c-2,.746-5.178,3.021-5.178,5.946Zm16.94-2.3H229.587v-9.066h14.619Zm-14.037-.582h13.455v-7.9H230.169Z"/></g><g transform="matrix(0.995, 0.105, -0.105, 0.995, 876.47, 127.2)"><path d="M121.864,219.991h-2.192a.063.063,0,0,1-.067-.057v-1.979a.541.541,0,0,0-.564-.514h-2.813a.54.54,0,0,0-.563.514v1.979a.063.063,0,0,1-.067.057h-2.187a.541.541,0,0,0-.563.513v2.546a.541.541,0,0,0,.563.514H115.6a.063.063,0,0,1,.067.057V225.6a.54.54,0,0,0,.563.513h2.813a.541.541,0,0,0,.564-.513v-1.984a.063.063,0,0,1,.067-.057h2.192a.541.541,0,0,0,.563-.514V220.5A.541.541,0,0,0,121.864,219.991Z" fill="#56b3f7"/><path d="M137.322,217.23l-.4-.171a1.145,1.145,0,0,0-.816-.023,1.051,1.051,0,0,0-.616.519l-2.983,6.133a.921.921,0,0,0,.115,1,.577.577,0,0,1,.165.406,12.74,12.74,0,0,1-2.4,4.253,13.879,13.879,0,0,1-3.887,3.284A.849.849,0,0,1,126,232.6a1.158,1.158,0,0,0-1.042.182l-5.428,4.261a1.246,1.246,0,0,0-.494.915,1.231,1.231,0,0,0,.4.848,7.07,7.07,0,0,0,4.589,1.894,3.747,3.747,0,0,0,1.389-.243,17.225,17.225,0,0,0,3.974-2.368,35.5,35.5,0,0,0,3.688-3.333c.722-.756,1.364-1.472,1.963-2.187.648-.786,1.244-1.563,1.771-2.308a33.178,33.178,0,0,0,2.516-4.121,14.322,14.322,0,0,0,1.421-4.125C141.015,220.215,139.16,218,137.322,217.23Z" fill="#56b3f7"/><path d="M122.506,226.181a6.825,6.825,0,0,0,2.275-6.059,7.7,7.7,0,0,0-6.884-6.238,8.511,8.511,0,0,0-6.691,2.06,6.826,6.826,0,0,0-2.278,6.062,7.7,7.7,0,0,0,6.89,6.233,9.07,9.07,0,0,0,1.036.059A8.382,8.382,0,0,0,122.506,226.181Zm-6.626,1.6a7.215,7.215,0,0,1-6.46-5.838,6.4,6.4,0,0,1,2.134-5.679,7.869,7.869,0,0,1,5.307-1.988,8.622,8.622,0,0,1,.974.056,7.212,7.212,0,0,1,6.454,5.843,6.4,6.4,0,0,1-2.132,5.676A7.982,7.982,0,0,1,115.88,227.786Z"/><path d="M121.083,219.275h-2.192a.063.063,0,0,1-.067-.057v-1.979a.54.54,0,0,0-.563-.514h-2.813a.54.54,0,0,0-.563.514v1.979a.064.064,0,0,1-.067.057h-2.187a.54.54,0,0,0-.563.513v2.546a.54.54,0,0,0,.563.514h2.187a.063.063,0,0,1,.067.057v1.984a.54.54,0,0,0,.563.513h2.813a.54.54,0,0,0,.563-.513V222.9a.062.062,0,0,1,.067-.057h2.192a.54.54,0,0,0,.563-.514v-2.546A.54.54,0,0,0,121.083,219.275Zm-6.265,3.117h-2.187a.063.063,0,0,1-.067-.058v-2.546a.064.064,0,0,1,.067-.057h2.187a.541.541,0,0,0,.563-.513v-1.979a.062.062,0,0,1,.067-.057h2.813a.062.062,0,0,1,.067.057v1.979a.541.541,0,0,0,.563.513h2.192a.063.063,0,0,1,.067.057v2.546a.063.063,0,0,1-.067.058h-2.192a.541.541,0,0,0-.563.513v1.984a.062.062,0,0,1-.067.056h-2.813a.062.062,0,0,1-.067-.056V222.9A.541.541,0,0,0,114.818,222.392Z"/><path d="M123.205,233.243l.011-.009a.539.539,0,0,0,.129-.734l-.276-.417a1.633,1.633,0,0,0-2.1-.39,15.1,15.1,0,0,0-4.582,3.487,1.286,1.286,0,0,0-.058,1.81l.489.507a.678.678,0,0,0,.888.057Zm-.311-.356-5.509,4.319a.149.149,0,0,1-.195-.012l-.49-.508a.889.889,0,0,1,.079-1.226,14.592,14.592,0,0,1,4.428-3.366,1.46,1.46,0,0,1,.647-.158.924.924,0,0,1,.793.386l.274.415A.111.111,0,0,1,122.894,232.887Z"/><path d="M129.6,224.242l.494.119a.659.659,0,0,0,.165.02.635.635,0,0,0,.576-.344l2.937-6.046,0-.008a.534.534,0,0,0,.017-.413.6.6,0,0,0-.333-.335l-.536-.227a1.631,1.631,0,0,0-1.9.563,13.146,13.146,0,0,0-2.425,4.933,1.442,1.442,0,0,0,.13,1.119A1.363,1.363,0,0,0,129.6,224.242Zm-.514-1.631h0a12.7,12.7,0,0,1,2.339-4.764,1.254,1.254,0,0,1,.928-.5.948.948,0,0,1,.365.074l.534.226a.13.13,0,0,1,.071.071.109.109,0,0,1,0,.085l-2.937,6.046a.138.138,0,0,1-.162.068l-.494-.118a.854.854,0,0,1-.55-.392A1.051,1.051,0,0,1,129.091,222.611Z"/><path d="M135.925,217.815l-.4-.17a1.148,1.148,0,0,0-.817-.024,1.055,1.055,0,0,0-.616.519l-2.982,6.133a.924.924,0,0,0,.114,1,.58.58,0,0,1,.166.406,12.74,12.74,0,0,1-2.4,4.253,13.9,13.9,0,0,1-3.887,3.284.845.845,0,0,1-.5-.029,1.162,1.162,0,0,0-1.042.183l-5.428,4.26a1.247,1.247,0,0,0-.493.916,1.221,1.221,0,0,0,.4.847,7.068,7.068,0,0,0,4.589,1.895,3.775,3.775,0,0,0,1.389-.243,17.277,17.277,0,0,0,3.973-2.368,35.52,35.52,0,0,0,3.688-3.333c.722-.756,1.365-1.472,1.963-2.187.648-.787,1.244-1.563,1.772-2.308a33.1,33.1,0,0,0,2.515-4.122,14.343,14.343,0,0,0,1.422-4.124C139.618,220.8,137.764,218.589,135.925,217.815Zm-13.3,23.005a6.557,6.557,0,0,1-4.26-1.76.808.808,0,0,1-.261-.506.77.77,0,0,1,.312-.552l5.431-4.263a.677.677,0,0,1,.412-.138.59.59,0,0,1,.195.031,1.25,1.25,0,0,0,.834.01,14.358,14.358,0,0,0,4.054-3.411,13.184,13.184,0,0,0,2.5-4.459,1,1,0,0,0-.263-.8.46.46,0,0,1-.054-.5l2.982-6.133a.582.582,0,0,1,.346-.28.674.674,0,0,1,.483.01l.4.171c1.681.708,3.382,2.692,3.142,4.289a13.877,13.877,0,0,1-1.376,3.98,32.68,32.68,0,0,1-2.48,4.063c-.52.735-1.109,1.5-1.75,2.28-.59.705-1.224,1.412-1.941,2.162a34.892,34.892,0,0,1-3.638,3.288,16.793,16.793,0,0,1-3.858,2.3A3.307,3.307,0,0,1,122.626,240.82Z"/></g></g></svg>