<svg xmlns="http://www.w3.org/2000/svg" width="26.285" height="34.599" viewBox="0 0 26.285 34.599"><g transform="translate(1 1)" opacity="0.6"><path d="M605.433,354.339a2.234,2.234,0,1,0-2.589,2.309l.123.02v4.774a6.973,6.973,0,1,1-13.928,0v-4.766l.142,0a7.959,7.959,0,0,0,7.509-8.158V341.59a3.761,3.761,0,0,0-3.15-3.776l-.1-.015-.025-.1a1.307,1.307,0,0,0-1.254-1.039c-.638,0-1.035.522-1.035,1.364s.4,1.363,1.035,1.363a1.3,1.3,0,0,0,1.231-.959l.037-.127.125.021a3.251,3.251,0,0,1,2.664,3.268v6.691c0,2.355-3.369,5.23-7.3,5.23s-7.3-2.875-7.3-5.23V341.59a3.29,3.29,0,0,1,2.68-3.271l.125-.019.036.125a1.3,1.3,0,0,0,1.231.96c.638,0,1.034-.522,1.034-1.363s-.4-1.364-1.034-1.364a1.307,1.307,0,0,0-1.253,1.036l-.025.1-.1.014a3.758,3.758,0,0,0-3.166,3.779v6.925a8.018,8.018,0,0,0,7.285,8.146l.137.009v4.773a7.443,7.443,0,1,0,14.867,0v-4.774l.123-.02A2.3,2.3,0,0,0,605.433,354.339Zm-12.508-15.981a.826.826,0,0,1-.762.534c-.38,0-.565-.284-.565-.869s.185-.87.565-.87a.824.824,0,0,1,.761.534l.037.091-.066.074a.252.252,0,0,0-.067.17.248.248,0,0,0,.067.17l.067.073Zm-8-.65a.822.822,0,0,1,.766-.554c.379,0,.564.284.564.87s-.185.869-.564.869a.822.822,0,0,1-.767-.554l-.031-.086.057-.07a.252.252,0,0,0,.061-.159.242.242,0,0,0-.06-.156l-.058-.071Zm-2.857,13.433-.268-.768.515.613a8.736,8.736,0,0,0,13.211,0l.515-.612-.268.768a7.173,7.173,0,0,1-13.7,0Zm21.134,5.052a1.855,1.855,0,1,1,1.763-1.854A1.811,1.811,0,0,1,603.2,356.194Z" transform="translate(-581.148 -336.66)" fill="#f56060" stroke="#f56060" stroke-width="2"/><path d="M607.042,355.238a1.175,1.175,0,1,0,1.118,1.173A1.146,1.146,0,0,0,607.042,355.238Zm0,1.854a.681.681,0,1,1,.648-.681A.665.665,0,0,1,607.042,357.092Z" transform="translate(-584.989 -338.732)" fill="#f56060" stroke="#f56060" stroke-width="2"/></g></svg>